<?xml version="1.0" encoding="UTF-8"?>
<!DOCTYPE svg PUBLIC "-//W3C//DTD SVG 1.1//EN" "http://www.w3.org/Graphics/SVG/1.1/DTD/svg11.dtd">
<svg xmlns="http://www.w3.org/2000/svg" version="1.1" width="256px" height="256px" style="shape-rendering:geometricPrecision; text-rendering:geometricPrecision; image-rendering:optimizeQuality; fill-rule:evenodd; clip-rule:evenodd" xmlns:xlink="http://www.w3.org/1999/xlink">
<g><path style="opacity:0.63" fill="#207fff" d="M 150.5,-0.5 C 152.167,-0.5 153.833,-0.5 155.5,-0.5C 156.026,2.70935 157.692,3.37602 160.5,1.5C 164.725,2.26465 168.892,3.26465 173,4.5C 179.767,2.91492 186.6,2.41492 193.5,3C 194.993,4.15623 194.826,4.98957 193,5.5C 191.856,5.08893 190.689,4.7556 189.5,4.5C 185.196,5.20955 180.863,5.70955 176.5,6C 180.992,6.82309 183.326,9.48976 183.5,14C 182.391,20.206 179.057,24.8727 173.5,28C 181.165,27.1694 188.832,26.0028 196.5,24.5C 196.5,25.5 196.5,26.5 196.5,27.5C 187.74,28.4599 179.074,29.9599 170.5,32C 169.323,35.3494 166.99,36.8494 163.5,36.5C 163.906,34.8908 163.906,33.5575 163.5,32.5C 134.497,38.9534 105.163,42.4534 75.5,43C 70.6912,41.0454 70.1912,38.212 74,34.5C 78.0224,30.9767 82.189,27.6434 86.5,24.5C 87.521,25.0016 87.6877,25.6683 87,26.5C 83.3333,29.5 79.6667,32.5 76,35.5C 74.9914,37.0249 74.4914,38.6916 74.5,40.5C 83.1635,41.578 91.8302,41.4113 100.5,40C 122.997,37.2626 145.33,33.5959 167.5,29C 170.294,27.964 170.794,26.464 169,24.5C 166.478,27.3264 164.478,26.9931 163,23.5C 161.726,27.4853 159.726,28.1519 157,25.5C 156.121,28.3463 154.454,29.013 152,27.5C 149.81,30.2486 148.143,29.9153 147,26.5C 145.214,29.3616 142.881,30.0283 140,28.5C 136.678,32.7922 134.178,32.4588 132.5,27.5C 133.014,24.7894 134.014,22.2894 135.5,20C 135.167,19.8333 134.833,19.6667 134.5,19.5C 131.445,26.0554 126.612,30.722 120,33.5C 117.957,32.4206 116.624,30.754 116,28.5C 114.45,32.4507 111.783,34.1173 108,33.5C 107.519,29.2656 109.019,25.7656 112.5,23C 110.255,23.1953 108.422,24.3619 107,26.5C 105.291,29.4185 103.458,32.2518 101.5,35C 100.056,35.7805 98.723,35.6139 97.5,34.5C 99.1381,31.6959 100.971,29.0292 103,26.5C 103.688,25.6683 103.521,25.0016 102.5,24.5C 99.138,28.0614 96.138,31.8947 93.5,36C 92.0563,36.7805 90.723,36.6139 89.5,35.5C 92.1244,32.433 93.9577,29.0997 95,25.5C 93.4708,26.7287 92.3041,28.2287 91.5,30C 90.5,30.6667 89.5,30.6667 88.5,30C 90.6667,26.5 93.5,23.6667 97,21.5C 98.3333,22.1667 99.3333,23.1667 100,24.5C 101.351,22.981 102.851,21.6477 104.5,20.5C 105.799,21.09 106.632,22.09 107,23.5C 109.847,19.6202 112.347,19.6202 114.5,23.5C 113.579,25.9673 112.745,28.3006 112,30.5C 116.576,25.0133 120.909,19.3467 125,13.5C 124.566,11.8236 123.732,10.1569 122.5,8.5C 126.418,0.683677 131.418,-0.316323 137.5,5.5C 145.708,-1.12319 146.375,-0.289855 139.5,8C 140.126,8.75044 140.626,9.58377 141,10.5C 143.722,6.34771 146.888,2.68105 150.5,-0.5 Z M 151.5,1.5 C 154.907,1.12528 155.407,2.12528 153,4.5C 150.533,8.01281 147.366,10.1795 143.5,11C 145.839,7.44411 148.505,4.27744 151.5,1.5 Z M 130.5,3.5 C 131.5,3.5 132.5,3.5 133.5,3.5C 132.743,7.91928 130.076,10.2526 125.5,10.5C 125.281,6.73152 126.947,4.39819 130.5,3.5 Z M 180.5,15.5 C 178.473,15.3379 176.473,15.5045 174.5,16C 172.963,17.7073 171.296,19.2073 169.5,20.5C 169.369,16.3482 167.869,15.6815 165,18.5C 163.951,17.4829 162.784,17.3162 161.5,18C 160.627,19.045 159.627,19.8783 158.5,20.5C 159.087,19.2334 159.087,18.2334 158.5,17.5C 154.513,17.658 151.347,19.3247 149,22.5C 148.517,21.552 148.351,20.552 148.5,19.5C 146.692,19.4914 145.025,19.9914 143.5,21C 141.874,23.6277 139.874,25.961 137.5,28C 136.5,28.6667 135.5,28.6667 134.5,28C 136.794,23.912 138.961,19.7453 141,15.5C 147.174,12.9197 152.174,8.9197 156,3.5C 160.328,9.10897 165.662,10.109 172,6.5C 175.251,7.29268 178.251,8.62601 181,10.5C 181.64,12.265 181.473,13.9317 180.5,15.5 Z M 158.5,4.5 C 158.735,3.90326 159.235,3.56993 160,3.5C 162.135,4.12709 164.302,4.62709 166.5,5C 163.739,5.72183 161.073,5.55516 158.5,4.5 Z M 122.5,20.5 C 122.369,19.7611 122.536,19.0944 123,18.5C 126.81,14.6002 130.81,10.9336 135,7.5C 135.5,8 136,8.5 136.5,9C 134.968,11.0344 133.635,13.2011 132.5,15.5C 129.122,17.1888 125.789,18.8554 122.5,20.5 Z M 175.5,18.5 C 175.573,20.0269 174.906,21.0269 173.5,21.5C 173.427,19.9731 174.094,18.9731 175.5,18.5 Z M 128.5,19.5 C 129.239,19.369 129.906,19.5357 130.5,20C 128.623,22.2513 127.123,24.7513 126,27.5C 124.266,29.4506 122.099,30.4506 119.5,30.5C 120.626,25.3678 123.626,21.7011 128.5,19.5 Z M 153.5,21.5 C 153.573,23.0269 152.906,24.0269 151.5,24.5C 151.427,22.9731 152.094,21.9731 153.5,21.5 Z"/></g>
<g><path style="opacity:0.957" fill="#e7612d" d="M 217.5,-0.5 C 218.167,-0.5 218.833,-0.5 219.5,-0.5C 219.26,14.8023 213.927,27.9689 203.5,39C 201.612,40.3937 199.612,41.5604 197.5,42.5C 199.757,39.7193 202.59,36.7193 206,33.5C 206.667,32.8333 206.667,32.1667 206,31.5C 203.402,34.0277 200.569,35.861 197.5,37C 198.96,36.1887 199.293,35.3554 198.5,34.5C 195.149,36.8586 191.815,39.1919 188.5,41.5C 184.698,42.3197 181.364,43.9864 178.5,46.5C 173.124,49.2922 167.457,51.2922 161.5,52.5C 173.084,47.3745 184.084,41.2078 194.5,34C 199.417,29.9856 203.25,25.1523 206,19.5C 207,18.1667 208,18.1667 209,19.5C 210.548,16.7937 211.714,13.9603 212.5,11C 213.332,10.3123 213.998,10.479 214.5,11.5C 212.862,15.9177 211.362,20.251 210,24.5C 215.018,16.9436 217.518,8.6103 217.5,-0.5 Z"/></g>
<g><path style="opacity:1" fill="#e8652f" d="M 212.5,42.5 C 212.793,41.3566 212.793,40.0233 212.5,38.5C 210.167,39.8333 207.833,41.1667 205.5,42.5C 204.893,42.3764 204.56,42.0431 204.5,41.5C 213.784,36.8827 220.784,29.8827 225.5,20.5C 225.833,21 226.167,21.5 226.5,22C 223.157,29.8242 218.491,36.6576 212.5,42.5 Z"/></g>
<g><path style="opacity:1" fill="#f28b33" d="M 197.5,42.5 C 197.56,43.0431 197.893,43.3764 198.5,43.5C 200.323,42.2528 202.323,41.5861 204.5,41.5C 204.56,42.0431 204.893,42.3764 205.5,42.5C 207.833,41.1667 210.167,39.8333 212.5,38.5C 212.793,40.0233 212.793,41.3566 212.5,42.5C 212.167,43.5 211.5,44.1667 210.5,44.5C 210.44,43.9569 210.107,43.6236 209.5,43.5C 204.156,47.6713 198.156,50.5047 191.5,52C 193.167,52.6667 194.833,52.6667 196.5,52C 201.434,50.2885 206.434,48.7885 211.5,47.5C 212.696,47.8457 212.696,48.3457 211.5,49C 203.302,53.3992 194.635,56.3992 185.5,58C 190.201,58.7193 194.867,58.5526 199.5,57.5C 200.167,57.6667 200.833,57.8333 201.5,58C 200.255,58.7914 198.922,59.2914 197.5,59.5C 192.292,62.3545 187.292,62.0212 182.5,58.5C 184.491,55.9084 186.824,53.7417 189.5,52C 188.187,49.6742 186.187,48.3408 183.5,48C 185.901,45.9376 188.567,44.2709 191.5,43C 190.263,42.7679 189.263,42.2679 188.5,41.5C 191.815,39.1919 195.149,36.8586 198.5,34.5C 199.293,35.3554 198.96,36.1887 197.5,37C 200.569,35.861 203.402,34.0277 206,31.5C 206.667,32.1667 206.667,32.8333 206,33.5C 202.59,36.7193 199.757,39.7193 197.5,42.5 Z"/></g>
<g><path style="opacity:1" fill="#ef7c3b" d="M 188.5,41.5 C 189.263,42.2679 190.263,42.7679 191.5,43C 188.567,44.2709 185.901,45.9376 183.5,48C 186.187,48.3408 188.187,49.6742 189.5,52C 186.824,53.7417 184.491,55.9084 182.5,58.5C 187.292,62.0212 192.292,62.3545 197.5,59.5C 198.705,60.6857 200.039,60.6857 201.5,59.5C 201.5,59.8333 201.5,60.1667 201.5,60.5C 199.723,61.6005 197.723,62.4338 195.5,63C 200.49,63.5705 200.49,64.7372 195.5,66.5C 195.082,65.7784 194.416,65.2784 193.5,65C 186.808,64.1691 180.142,64.3358 173.5,65.5C 174.025,66.1924 174.692,66.6924 175.5,67C 171.911,67.2069 168.411,67.7069 165,68.5C 164.51,67.2068 164.343,65.8734 164.5,64.5C 162.345,64.628 160.345,64.128 158.5,63C 163.852,62.4794 169.185,61.8128 174.5,61C 173.636,59.8631 172.636,58.5298 171.5,57C 173.679,56.5581 174.345,55.5581 173.5,54C 176.028,52.6841 176.028,51.5174 173.5,50.5C 175.772,49.8658 177.439,48.5324 178.5,46.5C 181.364,43.9864 184.698,42.3197 188.5,41.5 Z"/></g>
<g><path style="opacity:0.294" fill="#e86530" d="M 59.5,82.5 C 58.8333,82.5 58.5,82.8333 58.5,83.5C 58.1667,83.5 57.8333,83.5 57.5,83.5C 59.4247,78.8967 61.2581,74.23 63,69.5C 63.6667,67.1667 63.6667,64.8333 63,62.5C 59.6956,69.463 55.1956,75.463 49.5,80.5C 52.2457,74.6662 54.7457,68.6662 57,62.5C 57.6667,59.8333 57.6667,57.1667 57,54.5C 55.1117,59.9448 52.445,64.9448 49,69.5C 48.3457,70.6956 47.8457,70.6956 47.5,69.5C 48.3256,68.549 48.4922,67.549 48,66.5C 45.6304,70.5969 42.7971,74.2635 39.5,77.5C 41.0477,73.4023 42.8811,69.4023 45,65.5C 46.4813,60.9081 47.648,56.2414 48.5,51.5C 49.3214,54.4465 49.8214,57.4465 50,60.5C 52.2854,55.0282 52.9521,49.3615 52,43.5C 50.2491,41.788 49.5825,39.788 50,37.5C 53.4731,41.4943 55.4731,46.161 56,51.5C 59.3973,39.6266 56.2306,29.96 46.5,22.5C 46.8333,22.1667 47.1667,21.8333 47.5,21.5C 54.1602,25.6774 58.3269,31.6774 60,39.5C 60.6667,45.5 60.6667,51.5 60,57.5C 58.8837,60.8196 58.217,64.153 58,67.5C 64.4636,56.6498 66.9636,44.9831 65.5,32.5C 69.5022,44.8436 69.3355,57.1769 65,69.5C 63.1542,73.8547 61.3209,78.1881 59.5,82.5 Z"/></g>
<g><path style="opacity:0.973" fill="#e66925" d="M 161.5,52.5 C 151.068,57.2061 140.402,61.7061 129.5,66C 125.23,69.4344 121.897,73.601 119.5,78.5C 114.53,84.4752 109.53,90.4752 104.5,96.5C 98.631,103.536 91.9643,109.703 84.5,115C 80.5615,118.429 77.2281,122.263 74.5,126.5C 73.5,127.167 72.5,127.833 71.5,128.5C 73.1241,125.642 72.4574,124.975 69.5,126.5C 67.8333,126.5 66.1667,126.5 64.5,126.5C 67.2154,124.928 70.2154,123.928 73.5,123.5C 75.2624,122.738 76.2624,121.404 76.5,119.5C 84.401,113.776 91.901,107.443 99,100.5C 108.547,89.2883 117.714,77.7883 126.5,66C 137.755,60.3703 149.421,55.8703 161.5,52.5 Z"/></g>
<g><path style="opacity:0.298" fill="#e7622b" d="M 197.5,67.5 C 196.833,67.5 196.5,67.8333 196.5,68.5C 195.508,68.3284 194.842,68.6618 194.5,69.5C 192.447,69.4021 190.78,70.0687 189.5,71.5C 188.209,71.2627 187.209,71.596 186.5,72.5C 184.833,72.5 183.167,72.5 181.5,72.5C 180.761,72.631 180.094,72.4643 179.5,72C 185.038,70.6545 190.371,68.8212 195.5,66.5C 200.49,64.7372 200.49,63.5705 195.5,63C 197.723,62.4338 199.723,61.6005 201.5,60.5C 204.167,60.1667 204.167,59.8333 201.5,59.5C 200.039,60.6857 198.705,60.6857 197.5,59.5C 198.922,59.2914 200.255,58.7914 201.5,58C 200.833,57.8333 200.167,57.6667 199.5,57.5C 194.867,58.5526 190.201,58.7193 185.5,58C 194.635,56.3992 203.302,53.3992 211.5,49C 212.696,48.3457 212.696,47.8457 211.5,47.5C 206.434,48.7885 201.434,50.2885 196.5,52C 194.833,52.6667 193.167,52.6667 191.5,52C 198.156,50.5047 204.156,47.6713 209.5,43.5C 210.107,43.6236 210.44,43.9569 210.5,44.5C 208.934,44.9763 208.6,45.643 209.5,46.5C 214.774,44.366 219.107,41.0327 222.5,36.5C 223.365,35.4173 224.365,35.2506 225.5,36C 222.882,40.5541 219.548,44.5541 215.5,48C 216.308,48.3076 216.975,48.8076 217.5,49.5C 215.31,51.524 212.977,53.3573 210.5,55C 211.167,55.3333 211.833,55.6667 212.5,56C 207.884,60.4633 202.884,64.2966 197.5,67.5 Z"/></g>
<g><path style="opacity:0.886" fill="#00e060" d="M 240.5,67.5 C 242.164,68.9488 242.998,70.9488 243,73.5C 247.415,84.4247 244.915,93.0914 235.5,99.5C 231.491,95.303 229.991,90.303 231,84.5C 234.698,79.1018 237.864,73.4352 240.5,67.5 Z"/></g>
<g><path style="opacity:1" fill="#f28e39" d="M 178.5,46.5 C 177.439,48.5324 175.772,49.8658 173.5,50.5C 176.028,51.5174 176.028,52.6841 173.5,54C 174.345,55.5581 173.679,56.5581 171.5,57C 172.636,58.5298 173.636,59.8631 174.5,61C 169.185,61.8128 163.852,62.4794 158.5,63C 160.345,64.128 162.345,64.628 164.5,64.5C 164.343,65.8734 164.51,67.2068 165,68.5C 168.411,67.7069 171.911,67.2069 175.5,67C 174.692,66.6924 174.025,66.1924 173.5,65.5C 180.142,64.3358 186.808,64.1691 193.5,65C 194.416,65.2784 195.082,65.7784 195.5,66.5C 190.371,68.8212 185.038,70.6545 179.5,72C 180.094,72.4643 180.761,72.631 181.5,72.5C 181.5,72.8333 181.5,73.1667 181.5,73.5C 183.631,74.3138 185.964,74.8138 188.5,75C 183.714,78.7263 178.381,81.3929 172.5,83C 175.167,83.3333 177.833,83.6667 180.5,84C 178.807,84.8466 177.14,85.6799 175.5,86.5C 175.082,85.7784 174.416,85.2784 173.5,85C 166.439,84.4734 159.939,85.9734 154,89.5C 153.228,89.3552 152.561,89.0219 152,88.5C 150.247,89.627 148.413,90.627 146.5,91.5C 144.135,88.6498 141.135,86.8164 137.5,86C 146.695,84.3822 146.695,83.3822 137.5,83C 139.167,82.6667 140.833,82.3333 142.5,82C 139.428,81.5441 136.428,81.5441 133.5,82C 134.328,81.0853 135.328,80.4186 136.5,80C 139.5,79.6667 142.5,79.3333 145.5,79C 144.5,78.6667 143.5,78.3333 142.5,78C 144.167,77.6667 145.833,77.3333 147.5,77C 146.5,76.6667 145.5,76.3333 144.5,76C 147.514,75.8724 150.514,75.8724 153.5,76C 150.833,75.3333 150.833,74.6667 153.5,74C 150.564,72.9546 147.564,72.1212 144.5,71.5C 143.646,72.5217 142.646,73.3551 141.5,74C 142.167,74.3333 142.833,74.6667 143.5,75C 138.79,75.5202 134.123,75.8535 129.5,76C 131.087,75.1376 132.754,74.4709 134.5,74C 130.148,73.5811 129.815,72.9145 133.5,72C 130.788,71.2619 128.455,71.9286 126.5,74C 127.167,74.3333 127.833,74.6667 128.5,75C 125.989,76.8478 123.489,78.6811 121,80.5C 119.97,80.1639 119.47,79.4972 119.5,78.5C 121.897,73.601 125.23,69.4344 129.5,66C 140.402,61.7061 151.068,57.2061 161.5,52.5C 167.457,51.2922 173.124,49.2922 178.5,46.5 Z"/></g>
<g><path style="opacity:1" fill="#e8672d" d="M 73.5,89.5 C 72.8333,89.5 72.5,89.8333 72.5,90.5C 71.8333,90.5 71.5,90.8333 71.5,91.5C 71.1667,91.5 70.8333,91.5 70.5,91.5C 72.346,88.2068 73.846,84.8734 75,81.5C 69.4852,88.5138 62.6519,93.8472 54.5,97.5C 54.0618,97.5654 53.7284,97.3988 53.5,97C 60.4502,91.2445 64.9502,84.0778 67,75.5C 62.5304,83.6022 56.3638,90.1022 48.5,95C 47.8333,95.6667 47.1667,95.6667 46.5,95C 51.0727,91.9297 54.7393,88.0964 57.5,83.5C 57.8333,86.1667 58.1667,86.1667 58.5,83.5C 59.1667,83.5 59.5,83.1667 59.5,82.5C 68.2554,72.63 72.9221,60.9634 73.5,47.5C 75.2065,63.386 71.2065,77.7193 61.5,90.5C 71.7282,85.8348 77.3949,77.5014 78.5,65.5C 79.9034,74.1503 78.2367,82.1503 73.5,89.5 Z"/></g>
<g><path style="opacity:0.9" fill="#e6632b" d="M 197.5,67.5 C 200.999,67.259 201.332,68.0924 198.5,70C 193.862,74.6543 188.529,78.321 182.5,81C 184.473,81.4955 186.473,81.6621 188.5,81.5C 188.5,82.5 188.5,83.5 188.5,84.5C 182.353,85.3255 176.687,87.3255 171.5,90.5C 168.314,91.963 164.98,92.463 161.5,92C 166.304,90.4281 170.971,88.5947 175.5,86.5C 177.14,85.6799 178.807,84.8466 180.5,84C 177.833,83.6667 175.167,83.3333 172.5,83C 178.381,81.3929 183.714,78.7263 188.5,75C 185.964,74.8138 183.631,74.3138 181.5,73.5C 183.415,73.7845 185.081,73.4511 186.5,72.5C 187.791,72.7373 188.791,72.404 189.5,71.5C 191.553,71.5979 193.22,70.9313 194.5,69.5C 195.492,69.6716 196.158,69.3382 196.5,68.5C 197.167,68.5 197.5,68.1667 197.5,67.5 Z"/></g>
<g><path style="opacity:0.836" fill="#00e060" d="M 231.5,114.5 C 231.672,115.492 231.338,116.158 230.5,116.5C 220.946,117.448 215.779,113.115 215,103.5C 214.361,98.1501 214.028,92.8168 214,87.5C 221.223,88.887 225.056,93.2204 225.5,100.5C 224.714,104.156 224.547,107.823 225,111.5C 226.734,113.451 228.901,114.451 231.5,114.5 Z"/></g>
<g><path style="opacity:1" fill="#f49638" d="M 175.5,86.5 C 170.971,88.5947 166.304,90.4281 161.5,92C 164.98,92.463 168.314,91.963 171.5,90.5C 171.833,90.5 172.167,90.5 172.5,90.5C 172.36,92.1238 173.027,93.2904 174.5,94C 171.24,95.475 167.907,96.6416 164.5,97.5C 163.942,96.2101 162.942,95.3768 161.5,95C 162.167,94.6667 162.833,94.3333 163.5,94C 160.322,93.5552 157.155,93.7219 154,94.5C 152.187,94.1734 150.52,93.5067 149,92.5C 148.055,92.9054 147.388,93.572 147,94.5C 144.694,92.1119 141.861,91.1119 138.5,91.5C 135.679,92.0644 133.012,92.0644 130.5,91.5C 125.915,93.1758 120.581,94.8425 114.5,96.5C 112.07,94.5287 109.57,94.8621 107,97.5C 106.329,96.7476 105.496,96.4142 104.5,96.5C 109.53,90.4752 114.53,84.4752 119.5,78.5C 119.47,79.4972 119.97,80.1639 121,80.5C 123.489,78.6811 125.989,76.8478 128.5,75C 127.833,74.6667 127.167,74.3333 126.5,74C 128.455,71.9286 130.788,71.2619 133.5,72C 129.815,72.9145 130.148,73.5811 134.5,74C 132.754,74.4709 131.087,75.1376 129.5,76C 134.123,75.8535 138.79,75.5202 143.5,75C 142.833,74.6667 142.167,74.3333 141.5,74C 142.646,73.3551 143.646,72.5217 144.5,71.5C 147.564,72.1212 150.564,72.9546 153.5,74C 150.833,74.6667 150.833,75.3333 153.5,76C 150.514,75.8724 147.514,75.8724 144.5,76C 145.5,76.3333 146.5,76.6667 147.5,77C 145.833,77.3333 144.167,77.6667 142.5,78C 143.5,78.3333 144.5,78.6667 145.5,79C 142.5,79.3333 139.5,79.6667 136.5,80C 135.328,80.4186 134.328,81.0853 133.5,82C 136.428,81.5441 139.428,81.5441 142.5,82C 140.833,82.3333 139.167,82.6667 137.5,83C 146.695,83.3822 146.695,84.3822 137.5,86C 141.135,86.8164 144.135,88.6498 146.5,91.5C 148.413,90.627 150.247,89.627 152,88.5C 152.561,89.0219 153.228,89.3552 154,89.5C 159.939,85.9734 166.439,84.4734 173.5,85C 174.416,85.2784 175.082,85.7784 175.5,86.5 Z"/></g>
<g><path style="opacity:1" fill="#f28f36" d="M 49.5,80.5 C 49.4142,81.4959 49.7476,82.3292 50.5,83C 49.3146,85.057 48.3146,87.057 47.5,89C 48.1667,89.3333 48.8333,89.6667 49.5,90C 47.3333,92.1667 45.1667,94.3333 43,96.5C 41.2495,93.0058 39.4162,92.8392 37.5,96C 41.3863,96.5785 41.3863,97.4119 37.5,98.5C 36.646,97.4783 35.646,96.6449 34.5,96C 35.6721,95.5814 36.6721,94.9147 37.5,94C 36.7877,92.575 36.621,91.075 37,89.5C 33.1372,93.4785 32.6372,92.9785 35.5,88C 33.3657,86.8149 31.699,87.6482 30.5,90.5C 27.0958,92.658 25.2625,95.658 25,99.5C 25.3333,99.1667 25.6667,98.8333 26,98.5C 26.4922,99.549 26.3256,100.549 25.5,101.5C 25.8457,102.696 26.3457,102.696 27,101.5C 27.4922,102.549 27.3256,103.549 26.5,104.5C 29.1667,105.5 29.1667,106.5 26.5,107.5C 25.549,106.674 24.549,106.508 23.5,107C 24.6405,107.741 24.6405,108.575 23.5,109.5C 24.4211,111.815 25.7544,111.982 27.5,110C 26.8333,109.667 26.1667,109.333 25.5,109C 26.8333,108.333 28.1667,108.333 29.5,109C 29.3333,110.833 29.1667,112.667 29,114.5C 29.7199,112.745 30.8866,111.911 32.5,112C 31.9126,114.562 31.5793,117.228 31.5,120C 32.3333,120.833 33.1667,121.667 34,122.5C 35.7454,120.911 36.912,118.911 37.5,116.5C 38.6199,115.167 39.9532,114.667 41.5,115C 37.617,118.257 36.9504,121.924 39.5,126C 37.3517,128.075 37.0183,130.408 38.5,133C 37.5842,133.278 36.9175,133.778 36.5,134.5C 34.5648,135.15 32.5648,135.483 30.5,135.5C 32.3819,134.249 34.3819,133.082 36.5,132C 34.3105,125.133 30.4772,119.3 25,114.5C 21.0184,110.204 19.685,105.204 21,99.5C 25.7442,93.1653 30.4108,87.4986 35,82.5C 36.517,80.7605 38.017,79.0938 39.5,77.5C 42.7971,74.2635 45.6304,70.5969 48,66.5C 48.4922,67.549 48.3256,68.549 47.5,69.5C 47.8457,70.6956 48.3457,70.6956 49,69.5C 52.445,64.9448 55.1117,59.9448 57,54.5C 57.6667,57.1667 57.6667,59.8333 57,62.5C 54.7457,68.6662 52.2457,74.6662 49.5,80.5 Z"/></g>
<g><path style="opacity:0.145" fill="#ea722d" d="M 72.5,100.5 C 71.8333,100.5 71.5,100.833 71.5,101.5C 71.1667,101.5 70.8333,101.5 70.5,101.5C 72.0042,98.1849 73.1709,94.8516 74,91.5C 69.8459,96.8338 64.6792,100.334 58.5,102C 62.6678,98.6638 66.6678,95.1638 70.5,91.5C 70.8333,92.8333 71.1667,92.8333 71.5,91.5C 72.1667,91.5 72.5,91.1667 72.5,90.5C 73.1667,90.5 73.5,90.1667 73.5,89.5C 75.9547,86.7663 78.9547,84.7663 82.5,83.5C 82.8333,83.8333 83.1667,84.1667 83.5,84.5C 77.8656,88.4213 74.199,93.7546 72.5,100.5 Z"/></g>
<g><path style="opacity:1" fill="#f49936" d="M 57.5,83.5 C 54.7393,88.0964 51.0727,91.9297 46.5,95C 47.1667,95.6667 47.8333,95.6667 48.5,95C 56.3638,90.1022 62.5304,83.6022 67,75.5C 64.9502,84.0778 60.4502,91.2445 53.5,97C 53.7284,97.3988 54.0618,97.5654 54.5,97.5C 53.8112,101.953 51.8112,106.119 48.5,110C 49.4491,110.617 50.2825,110.451 51,109.5C 51.6877,110.332 51.521,110.998 50.5,111.5C 44.0675,114.934 42.7342,114.101 46.5,109C 46.0426,108.586 45.7093,108.086 45.5,107.5C 50.6817,106.224 50.6817,105.557 45.5,105.5C 45.9059,103.891 45.9059,102.557 45.5,101.5C 44.9993,104.667 43.3326,107.001 40.5,108.5C 40.1667,108.167 39.8333,107.833 39.5,107.5C 42.028,106.184 42.028,105.017 39.5,104C 41.9047,102.385 41.9047,101.719 39.5,102C 37.9286,105.302 36.5953,105.135 35.5,101.5C 36.9023,100.158 36.5689,99.3242 34.5,99C 34.8333,98.6667 35.1667,98.3333 35.5,98C 33.1122,97.1349 31.6122,97.9683 31,100.5C 30.2496,99.8742 29.4162,99.3742 28.5,99C 30.1161,98.3848 31.4495,97.3848 32.5,96C 30.8333,96.3333 29.1667,96.6667 27.5,97C 27.9543,94.9055 28.9543,92.7388 30.5,90.5C 31.699,87.6482 33.3657,86.8149 35.5,88C 32.6372,92.9785 33.1372,93.4785 37,89.5C 36.621,91.075 36.7877,92.575 37.5,94C 36.6721,94.9147 35.6721,95.5814 34.5,96C 35.646,96.6449 36.646,97.4783 37.5,98.5C 41.3863,97.4119 41.3863,96.5785 37.5,96C 39.4162,92.8392 41.2495,93.0058 43,96.5C 45.1667,94.3333 47.3333,92.1667 49.5,90C 48.8333,89.6667 48.1667,89.3333 47.5,89C 48.3146,87.057 49.3146,85.057 50.5,83C 49.7476,82.3292 49.4142,81.4959 49.5,80.5C 55.1956,75.463 59.6956,69.463 63,62.5C 63.6667,64.8333 63.6667,67.1667 63,69.5C 61.2581,74.23 59.4247,78.8967 57.5,83.5 Z"/></g>
<g><path style="opacity:0.353" fill="#e8692c" d="M 70.5,112.5 C 69.7611,112.631 69.0944,112.464 68.5,112C 72.0364,108.799 75.2031,105.299 78,101.5C 78.6667,100.5 78.6667,99.5 78,98.5C 74.1887,102.168 70.022,105.168 65.5,107.5C 63.2549,108.635 60.9216,109.135 58.5,109C 63.033,107.24 67.033,104.74 70.5,101.5C 70.8333,102.833 71.1667,102.833 71.5,101.5C 72.1667,101.5 72.5,101.167 72.5,100.5C 77.0094,98.1564 80.3427,94.6564 82.5,90C 83.3317,89.3123 83.9984,89.479 84.5,90.5C 81.8114,99.1694 77.1447,106.503 70.5,112.5 Z"/></g>
<g><path style="opacity:1" fill="#f59d32" d="M 164.5,97.5 C 160.745,98.935 156.745,99.935 152.5,100.5C 155.107,101.318 157.774,101.818 160.5,102C 152.737,104.682 144.737,106.349 136.5,107C 141.469,108.159 146.469,109.159 151.5,110C 147.5,110.833 143.5,111.667 139.5,112.5C 142.673,114.587 146.006,116.421 149.5,118C 144.491,118.939 139.658,118.439 135,116.5C 134.235,116.57 133.735,116.903 133.5,117.5C 130.197,116.835 126.863,116.168 123.5,115.5C 119.101,117.868 114.435,119.368 109.5,120C 118.037,119.736 118.537,121.236 111,124.5C 109.338,123.003 107.838,121.337 106.5,119.5C 108.423,118.692 110.423,118.192 112.5,118C 111.366,116.984 111.699,116.317 113.5,116C 112.672,115.085 111.672,114.419 110.5,114C 112.833,113.667 115.167,113.333 117.5,113C 112.979,111.246 108.313,110.58 103.5,111C 105.555,111.687 107.221,112.854 108.5,114.5C 106.167,115.833 103.833,115.833 101.5,114.5C 102.478,113.199 102.145,112.032 100.5,111C 102.461,108.58 104.794,106.58 107.5,105C 106.101,104.405 104.768,104.572 103.5,105.5C 102.304,105.154 102.304,104.654 103.5,104C 107.287,103.84 110.954,103.174 114.5,102C 110.406,101.233 106.406,101.566 102.5,103C 97.4781,107.359 93.1448,112.359 89.5,118C 90.8333,119 92.1667,120 93.5,121C 91.5188,121.605 91.1854,122.605 92.5,124C 90.7059,125.681 90.2059,127.514 91,129.5C 89.9887,130.337 88.8221,130.67 87.5,130.5C 88.6843,129.312 88.6843,128.145 87.5,127C 88.8802,125.676 89.2135,124.343 88.5,123C 91,122.167 91.1667,121 89,119.5C 88.2904,120.973 87.1238,121.64 85.5,121.5C 86.1667,122.833 86.8333,124.167 87.5,125.5C 86.448,125.351 85.448,125.517 84.5,126C 83.6959,127.771 82.5292,129.271 81,130.5C 80.8595,132.256 81.3595,133.922 82.5,135.5C 82,135.833 81.5,136.167 81,136.5C 77.9996,134.416 75.4996,131.916 73.5,129C 74.2524,128.329 74.5858,127.496 74.5,126.5C 77.2281,122.263 80.5615,118.429 84.5,115C 91.9643,109.703 98.631,103.536 104.5,96.5C 105.496,96.4142 106.329,96.7476 107,97.5C 109.57,94.8621 112.07,94.5287 114.5,96.5C 120.581,94.8425 125.915,93.1758 130.5,91.5C 133.012,92.0644 135.679,92.0644 138.5,91.5C 141.861,91.1119 144.694,92.1119 147,94.5C 147.388,93.572 148.055,92.9054 149,92.5C 150.52,93.5067 152.187,94.1734 154,94.5C 157.155,93.7219 160.322,93.5552 163.5,94C 162.833,94.3333 162.167,94.6667 161.5,95C 162.942,95.3768 163.942,96.2101 164.5,97.5 Z"/></g>
<g><path style="opacity:1" fill="#f59b32" d="M 70.5,112.5 C 70.8333,112.5 71.1667,112.5 71.5,112.5C 73.1188,113.072 74.7855,113.405 76.5,113.5C 75.5,114.833 74.5,116.167 73.5,117.5C 73.6236,118.107 73.9569,118.44 74.5,118.5C 74.8417,119.338 75.5084,119.672 76.5,119.5C 76.2624,121.404 75.2624,122.738 73.5,123.5C 72.9423,122.21 71.9423,121.377 70.5,121C 72.5582,119.192 72.8916,117.025 71.5,114.5C 67.943,115.056 64.6097,115.889 61.5,117C 63.5,115.333 65.5,113.667 67.5,112C 65.1088,111.309 65.1088,110.309 67.5,109C 66.5842,108.722 65.9175,108.222 65.5,107.5C 70.022,105.168 74.1887,102.168 78,98.5C 78.6667,99.5 78.6667,100.5 78,101.5C 75.2031,105.299 72.0364,108.799 68.5,112C 69.0944,112.464 69.7611,112.631 70.5,112.5 Z"/></g>
<g><path style="opacity:1" fill="#e96b2c" d="M 74.5,118.5 C 73.9569,118.44 73.6236,118.107 73.5,117.5C 74.5,116.167 75.5,114.833 76.5,113.5C 74.7855,113.405 73.1188,113.072 71.5,112.5C 77.1861,110.984 81.1861,107.484 83.5,102C 84.3317,101.312 84.9984,101.479 85.5,102.5C 82.3045,108.247 78.6378,113.581 74.5,118.5 Z"/></g>
<g><path style="opacity:0.865" fill="#00e060" d="M 255.5,113.5 C 255.5,114.167 255.5,114.833 255.5,115.5C 252.05,122.213 247.717,128.379 242.5,134C 240.966,134.923 239.299,135.423 237.5,135.5C 234.395,134.779 231.395,133.779 228.5,132.5C 228.328,131.508 228.662,130.842 229.5,130.5C 232.258,132.048 234.758,131.715 237,129.5C 238.408,123.514 241.242,118.348 245.5,114C 248.817,113.502 252.15,113.335 255.5,113.5 Z"/></g>
<g><path style="opacity:0.841" fill="#00e060" d="M 223.5,145.5 C 223.672,146.492 223.338,147.158 222.5,147.5C 213.124,148.293 208.291,143.959 208,134.5C 207.171,129.136 207.337,123.802 208.5,118.5C 214.442,120.433 217.775,124.433 218.5,130.5C 217.631,134.818 217.464,139.151 218,143.5C 219.444,145.155 221.278,145.822 223.5,145.5 Z"/></g>
<g><path style="opacity:1" fill="#f6a42e" d="M 70.5,91.5 C 66.6678,95.1638 62.6678,98.6638 58.5,102C 64.6792,100.334 69.8459,96.8338 74,91.5C 73.1709,94.8516 72.0042,98.1849 70.5,101.5C 67.033,104.74 63.033,107.24 58.5,109C 60.9216,109.135 63.2549,108.635 65.5,107.5C 65.9175,108.222 66.5842,108.722 67.5,109C 65.1088,110.309 65.1088,111.309 67.5,112C 65.5,113.667 63.5,115.333 61.5,117C 64.6097,115.889 67.943,115.056 71.5,114.5C 72.8916,117.025 72.5582,119.192 70.5,121C 71.9423,121.377 72.9423,122.21 73.5,123.5C 70.2154,123.928 67.2154,124.928 64.5,126.5C 62.5,127.167 60.5,127.833 58.5,128.5C 51.7051,127.589 45.3717,129.089 39.5,133C 40.8333,133.667 42.1667,133.667 43.5,133C 47.1754,131.108 51.0088,129.608 55,128.5C 56.0769,129.429 57.2436,130.096 58.5,130.5C 56.7404,133.638 54.2404,134.638 51,133.5C 49.9783,134.354 49.1449,135.354 48.5,136.5C 50.8333,137.167 53.1667,137.833 55.5,138.5C 53.1487,140.759 53.8154,142.259 57.5,143C 56.6721,143.915 55.6721,144.581 54.5,145C 59.658,145.683 59.658,146.516 54.5,147.5C 53.4264,146.115 52.0931,144.949 50.5,144C 51.5,143.667 52.5,143.333 53.5,143C 50.5363,142.16 50.203,141.16 52.5,140C 49.8333,139.333 47.1667,138.667 44.5,138C 46.1247,137.147 46.4581,136.147 45.5,135C 42.5184,134.502 39.5184,134.335 36.5,134.5C 36.9175,133.778 37.5842,133.278 38.5,133C 37.0183,130.408 37.3517,128.075 39.5,126C 36.9504,121.924 37.617,118.257 41.5,115C 39.9532,114.667 38.6199,115.167 37.5,116.5C 36.912,118.911 35.7454,120.911 34,122.5C 33.1667,121.667 32.3333,120.833 31.5,120C 31.5793,117.228 31.9126,114.562 32.5,112C 30.8866,111.911 29.7199,112.745 29,114.5C 29.1667,112.667 29.3333,110.833 29.5,109C 28.1667,108.333 26.8333,108.333 25.5,109C 26.1667,109.333 26.8333,109.667 27.5,110C 25.7544,111.982 24.4211,111.815 23.5,109.5C 24.6405,108.575 24.6405,107.741 23.5,107C 24.549,106.508 25.549,106.674 26.5,107.5C 29.1667,106.5 29.1667,105.5 26.5,104.5C 27.3256,103.549 27.4922,102.549 27,101.5C 26.3457,102.696 25.8457,102.696 25.5,101.5C 26.3256,100.549 26.4922,99.549 26,98.5C 25.6667,98.8333 25.3333,99.1667 25,99.5C 25.2625,95.658 27.0958,92.658 30.5,90.5C 28.9543,92.7388 27.9543,94.9055 27.5,97C 29.1667,96.6667 30.8333,96.3333 32.5,96C 31.4495,97.3848 30.1161,98.3848 28.5,99C 29.4162,99.3742 30.2496,99.8742 31,100.5C 31.6122,97.9683 33.1122,97.1349 35.5,98C 35.1667,98.3333 34.8333,98.6667 34.5,99C 36.5689,99.3242 36.9023,100.158 35.5,101.5C 36.5953,105.135 37.9286,105.302 39.5,102C 41.9047,101.719 41.9047,102.385 39.5,104C 42.028,105.017 42.028,106.184 39.5,107.5C 39.8333,107.833 40.1667,108.167 40.5,108.5C 43.3326,107.001 44.9993,104.667 45.5,101.5C 45.9059,102.557 45.9059,103.891 45.5,105.5C 50.6817,105.557 50.6817,106.224 45.5,107.5C 45.7093,108.086 46.0426,108.586 46.5,109C 42.7342,114.101 44.0675,114.934 50.5,111.5C 51.521,110.998 51.6877,110.332 51,109.5C 50.2825,110.451 49.4491,110.617 48.5,110C 51.8112,106.119 53.8112,101.953 54.5,97.5C 62.6519,93.8472 69.4852,88.5138 75,81.5C 73.846,84.8734 72.346,88.2068 70.5,91.5 Z"/></g>
<g><path style="opacity:1" fill="#f7a729" d="M 133.5,117.5 C 136.961,118.731 140.294,120.231 143.5,122C 138.511,122.749 133.511,123.415 128.5,124C 131.362,124.93 133.695,126.597 135.5,129C 131.687,130.262 127.687,130.929 123.5,131C 124.448,131.483 125.448,131.649 126.5,131.5C 126.36,133.124 127.027,134.29 128.5,135C 123.97,135.947 119.636,135.447 115.5,133.5C 114.893,133.624 114.56,133.957 114.5,134.5C 113.85,134.804 113.183,135.137 112.5,135.5C 110.028,133.749 107.361,132.915 104.5,133C 106.221,134.527 108.221,135.527 110.5,136C 108.616,136.216 106.949,136.883 105.5,138C 102.668,138.212 100.002,138.379 97.5,138.5C 99.0009,139.752 100.668,140.752 102.5,141.5C 103.696,141.154 103.696,140.654 102.5,140C 105.265,140.72 107.599,142.387 109.5,145C 104.893,143.972 100.227,142.805 95.5,141.5C 94.6184,140.24 93.6184,139.074 92.5,138C 94.797,136.84 94.4637,135.84 91.5,135C 90.1011,134.405 88.7678,134.572 87.5,135.5C 86.1667,134.833 84.8333,134.167 83.5,133.5C 82.3866,129.705 83.7199,128.705 87.5,130.5C 88.8221,130.67 89.9887,130.337 91,129.5C 90.2059,127.514 90.7059,125.681 92.5,124C 91.1854,122.605 91.5188,121.605 93.5,121C 92.1667,120 90.8333,119 89.5,118C 93.1448,112.359 97.4781,107.359 102.5,103C 106.406,101.566 110.406,101.233 114.5,102C 110.954,103.174 107.287,103.84 103.5,104C 102.304,104.654 102.304,105.154 103.5,105.5C 104.768,104.572 106.101,104.405 107.5,105C 104.794,106.58 102.461,108.58 100.5,111C 102.145,112.032 102.478,113.199 101.5,114.5C 103.833,115.833 106.167,115.833 108.5,114.5C 107.221,112.854 105.555,111.687 103.5,111C 108.313,110.58 112.979,111.246 117.5,113C 115.167,113.333 112.833,113.667 110.5,114C 111.672,114.419 112.672,115.085 113.5,116C 111.699,116.317 111.366,116.984 112.5,118C 110.423,118.192 108.423,118.692 106.5,119.5C 107.838,121.337 109.338,123.003 111,124.5C 118.537,121.236 118.037,119.736 109.5,120C 114.435,119.368 119.101,117.868 123.5,115.5C 126.863,116.168 130.197,116.835 133.5,117.5 Z"/></g>
<g><path style="opacity:1" fill="#e96f2b" d="M 115.5,142.5 C 118.372,141.675 121.372,140.841 124.5,140C 121.277,137.938 117.943,136.104 114.5,134.5C 114.56,133.957 114.893,133.624 115.5,133.5C 119.636,135.447 123.97,135.947 128.5,135C 127.027,134.29 126.36,133.124 126.5,131.5C 125.448,131.649 124.448,131.483 123.5,131C 127.687,130.929 131.687,130.262 135.5,129C 133.695,126.597 131.362,124.93 128.5,124C 133.511,123.415 138.511,122.749 143.5,122C 140.294,120.231 136.961,118.731 133.5,117.5C 133.735,116.903 134.235,116.57 135,116.5C 139.658,118.439 144.491,118.939 149.5,118C 146.006,116.421 142.673,114.587 139.5,112.5C 143.5,111.667 147.5,110.833 151.5,110C 146.469,109.159 141.469,108.159 136.5,107C 144.737,106.349 152.737,104.682 160.5,102C 157.774,101.818 155.107,101.318 152.5,100.5C 156.745,99.935 160.745,98.935 164.5,97.5C 167.907,96.6416 171.24,95.475 174.5,94C 173.027,93.2904 172.36,92.1238 172.5,90.5C 176.383,90.8909 180.05,90.2242 183.5,88.5C 184.833,89.1667 184.833,89.8333 183.5,90.5C 179.947,93.4438 175.947,95.6104 171.5,97C 166.873,101.815 161.206,104.815 154.5,106C 157.711,106.798 160.711,106.298 163.5,104.5C 164.711,105.274 164.711,106.107 163.5,107C 157.866,110.321 151.866,112.655 145.5,114C 148.949,116.059 152.616,117.559 156.5,118.5C 149.62,122.974 141.954,125.141 133.5,125C 137.294,126.72 141.127,126.886 145,125.5C 145.483,126.448 145.649,127.448 145.5,128.5C 140.704,130.433 135.704,131.933 130.5,133C 133.5,133.833 136.5,134.667 139.5,135.5C 139,135.833 138.5,136.167 138,136.5C 133.205,137.254 128.372,137.754 123.5,138C 125.355,138.422 127.189,138.922 129,139.5C 131.12,138.541 133.287,138.374 135.5,139C 129.339,143.04 122.673,144.207 115.5,142.5 Z"/></g>
<g><path style="opacity:1" fill="#f6a12c" d="M 71.5,128.5 C 71.1961,129.15 70.8627,129.817 70.5,130.5C 73.4323,131.8 75.7656,133.8 77.5,136.5C 76.675,137.386 75.675,137.719 74.5,137.5C 74.719,136.325 74.3857,135.325 73.5,134.5C 72.4104,135.391 72.4104,136.391 73.5,137.5C 75.808,138.152 77.4747,139.485 78.5,141.5C 78.6309,142.376 78.2975,143.043 77.5,143.5C 75.5008,142.492 73.8342,141.159 72.5,139.5C 72.5858,138.504 72.2524,137.671 71.5,137C 69.5595,136.696 67.8928,135.863 66.5,134.5C 63.401,136.636 60.0677,136.97 56.5,135.5C 58.4503,133.247 60.7837,132.914 63.5,134.5C 64.7003,133.469 66.0337,132.635 67.5,132C 63.4606,132.09 62.7939,130.923 65.5,128.5C 66.7481,129.04 67.9148,129.707 69,130.5C 69.49,129.207 69.6567,127.873 69.5,126.5C 72.4574,124.975 73.1241,125.642 71.5,128.5 Z"/></g>
<g><path style="opacity:1" fill="#ea6f2b" d="M 58.5,128.5 C 59.8333,129.167 59.8333,129.833 58.5,130.5C 57.2436,130.096 56.0769,129.429 55,128.5C 51.0088,129.608 47.1754,131.108 43.5,133C 42.1667,133.667 40.8333,133.667 39.5,133C 45.3717,129.089 51.7051,127.589 58.5,128.5 Z"/></g>
<g><path style="opacity:0.282" fill="#007e3f" d="M 229.5,130.5 C 228.662,130.842 228.328,131.508 228.5,132.5C 226.61,142.396 223.943,152.063 220.5,161.5C 219.662,161.842 219.328,162.508 219.5,163.5C 216.567,173.299 213.234,182.966 209.5,192.5C 208.833,192.5 208.5,192.833 208.5,193.5C 204.05,202.95 198.05,211.283 190.5,218.5C 189.662,218.842 189.328,219.508 189.5,220.5C 181.387,227.22 172.054,231.22 161.5,232.5C 160.833,232.833 160.167,233.167 159.5,233.5C 149.176,234.078 138.843,234.412 128.5,234.5C 128.5,233.833 128.167,233.5 127.5,233.5C 132.396,231.554 137.729,230.887 143.5,231.5C 143.833,231.5 144.167,231.5 144.5,231.5C 154.991,231.944 164.991,230.278 174.5,226.5C 174.833,226.5 175.167,226.5 175.5,226.5C 185.016,221.985 192.683,215.319 198.5,206.5C 199.167,206.5 199.5,206.167 199.5,205.5C 204.632,196.901 208.966,187.901 212.5,178.5C 213.338,178.158 213.672,177.492 213.5,176.5C 217.102,167.026 220.102,157.359 222.5,147.5C 223.338,147.158 223.672,146.492 223.5,145.5C 225.99,135.874 228.323,126.208 230.5,116.5C 231.338,116.158 231.672,115.492 231.5,114.5C 231.866,109.703 232.866,105.037 234.5,100.5C 234.833,101.333 235.167,102.167 235.5,103C 233.732,112.237 231.732,121.404 229.5,130.5 Z"/></g>
<g><path style="opacity:1" fill="#fde75d" d="M 36.5,134.5 C 39.5184,134.335 42.5184,134.502 45.5,135C 46.4581,136.147 46.1247,137.147 44.5,138C 47.1667,138.667 49.8333,139.333 52.5,140C 50.203,141.16 50.5363,142.16 53.5,143C 52.5,143.333 51.5,143.667 50.5,144C 52.0931,144.949 53.4264,146.115 54.5,147.5C 50.8189,147.718 50.1522,148.884 52.5,151C 51.0506,152.117 49.3839,152.784 47.5,153C 47.8333,153.333 48.1667,153.667 48.5,154C 47.0257,155.316 45.359,156.316 43.5,157C 43.9574,157.414 44.2907,157.914 44.5,158.5C 42.6684,159.057 41.3351,160.057 40.5,161.5C 38.1625,159.989 37.4958,160.323 38.5,162.5C 36.5168,161.529 34.5168,160.529 32.5,159.5C 35.2828,158.841 37.9495,157.675 40.5,156C 39.6433,155.311 38.9767,154.478 38.5,153.5C 40.4233,152.692 42.4233,152.192 44.5,152C 45.7111,150.887 45.7111,149.72 44.5,148.5C 45.09,147.201 46.09,146.368 47.5,146C 46.5262,143.713 45.1929,141.713 43.5,140C 40.1064,139.248 36.773,139.415 33.5,140.5C 33.1667,139.833 32.8333,139.167 32.5,138.5C 28.6748,142.754 27.6748,142.087 29.5,136.5C 30.1667,136.5 30.5,136.167 30.5,135.5C 32.5648,135.483 34.5648,135.15 36.5,134.5 Z"/></g>
<g><path style="opacity:1" fill="#fefd81" d="M 29.5,136.5 C 27.6748,142.087 28.6748,142.754 32.5,138.5C 32.8333,139.167 33.1667,139.833 33.5,140.5C 36.773,139.415 40.1064,139.248 43.5,140C 45.1929,141.713 46.5262,143.713 47.5,146C 46.09,146.368 45.09,147.201 44.5,148.5C 45.7111,149.72 45.7111,150.887 44.5,152C 42.4233,152.192 40.4233,152.692 38.5,153.5C 38.9767,154.478 39.6433,155.311 40.5,156C 37.9495,157.675 35.2828,158.841 32.5,159.5C 32.1667,159.5 31.8333,159.5 31.5,159.5C 32.714,157.851 34.0473,156.185 35.5,154.5C 34.9747,153.808 34.3081,153.308 33.5,153C 34.6217,150.876 36.1217,149.043 38,147.5C 38.6667,146.833 38.6667,146.167 38,145.5C 35.6506,148.24 33.3172,150.24 31,151.5C 29.0573,151.041 27.724,152.041 27,154.5C 26,153.5 25,152.5 24,151.5C 22.3267,154.001 20.4933,156.334 18.5,158.5C 17.7132,157.758 17.0465,156.925 16.5,156C 19.1974,154.3 21.1974,151.966 22.5,149C 18.4281,149.586 14.4281,149.253 10.5,148C 8.41499,150.682 6.74832,153.516 5.5,156.5C 5.86711,151.269 8.20045,147.102 12.5,144C 18.1926,141.485 23.8593,138.985 29.5,136.5 Z"/></g>
<g><path style="opacity:0.482" fill="#eb7e2d" d="M 30.5,135.5 C 30.5,136.167 30.1667,136.5 29.5,136.5C 23.8593,138.985 18.1926,141.485 12.5,144C 8.20045,147.102 5.86711,151.269 5.5,156.5C 5.5,156.833 5.5,157.167 5.5,157.5C 4.39105,157.557 3.39105,157.89 2.5,158.5C 3.80302,152.4 6.80302,147.233 11.5,143C 17.6411,139.926 23.9744,137.426 30.5,135.5 Z"/></g>
<g><path style="opacity:1" fill="#f9b221" d="M 87.5,130.5 C 83.7199,128.705 82.3866,129.705 83.5,133.5C 84.8333,134.167 86.1667,134.833 87.5,135.5C 88.7678,134.572 90.1011,134.405 91.5,135C 94.4637,135.84 94.797,136.84 92.5,138C 93.6184,139.074 94.6184,140.24 95.5,141.5C 100.227,142.805 104.893,143.972 109.5,145C 107.599,142.387 105.265,140.72 102.5,140C 103.696,140.654 103.696,141.154 102.5,141.5C 100.668,140.752 99.0009,139.752 97.5,138.5C 100.002,138.379 102.668,138.212 105.5,138C 106.949,136.883 108.616,136.216 110.5,136C 108.221,135.527 106.221,134.527 104.5,133C 107.361,132.915 110.028,133.749 112.5,135.5C 113.183,135.137 113.85,134.804 114.5,134.5C 117.943,136.104 121.277,137.938 124.5,140C 121.372,140.841 118.372,141.675 115.5,142.5C 114.399,141.2 113.066,140.7 111.5,141C 113.809,143.487 116.476,145.487 119.5,147C 113.427,149.178 107.593,148.678 102,145.5C 103.399,148.544 105.899,150.711 109.5,152C 106.607,153.149 103.607,153.649 100.5,153.5C 98.1494,150.79 96.1494,151.123 94.5,154.5C 93.3079,153.434 93.6412,152.601 95.5,152C 93.2911,150.127 91.4578,147.96 90,145.5C 89.6924,146.308 89.1924,146.975 88.5,147.5C 85.1927,145.36 82.026,143.026 79,140.5C 78.6012,140.728 78.4346,141.062 78.5,141.5C 77.4747,139.485 75.808,138.152 73.5,137.5C 72.4104,136.391 72.4104,135.391 73.5,134.5C 74.3857,135.325 74.719,136.325 74.5,137.5C 75.675,137.719 76.675,137.386 77.5,136.5C 75.7656,133.8 73.4323,131.8 70.5,130.5C 70.8627,129.817 71.1961,129.15 71.5,128.5C 72.5,127.833 73.5,127.167 74.5,126.5C 74.5858,127.496 74.2524,128.329 73.5,129C 75.4996,131.916 77.9996,134.416 81,136.5C 81.5,136.167 82,135.833 82.5,135.5C 81.3595,133.922 80.8595,132.256 81,130.5C 82.5292,129.271 83.6959,127.771 84.5,126C 85.448,125.517 86.448,125.351 87.5,125.5C 86.8333,124.167 86.1667,122.833 85.5,121.5C 87.1238,121.64 88.2904,120.973 89,119.5C 91.1667,121 91,122.167 88.5,123C 89.2135,124.343 88.8802,125.676 87.5,127C 88.6843,128.145 88.6843,129.312 87.5,130.5 Z"/></g>
<g><path style="opacity:0.834" fill="#00e060" d="M 219.5,163.5 C 219.328,162.508 219.662,161.842 220.5,161.5C 222.738,162.537 225.071,162.703 227.5,162C 229.385,159.061 230.885,155.895 232,152.5C 236.287,145.562 241.787,143.729 248.5,147C 244.439,154.146 239.439,160.48 233.5,166C 228.503,167.627 223.837,166.794 219.5,163.5 Z"/></g>
<g><path style="opacity:1" fill="#fbbd19" d="M 72.5,139.5 C 73.8342,141.159 75.5008,142.492 77.5,143.5C 78.2975,143.043 78.6309,142.376 78.5,141.5C 78.4346,141.062 78.6012,140.728 79,140.5C 82.026,143.026 85.1927,145.36 88.5,147.5C 89.1924,146.975 89.6924,146.308 90,145.5C 91.4578,147.96 93.2911,150.127 95.5,152C 93.6412,152.601 93.3079,153.434 94.5,154.5C 95.7945,156.907 97.4611,159.074 99.5,161C 97.8739,160.805 96.2072,160.805 94.5,161C 97.0482,162.15 99.7149,162.983 102.5,163.5C 99.4557,165.011 96.1224,165.678 92.5,165.5C 92.9427,169.529 91.1094,171.529 87,171.5C 83.5882,168.33 80.9216,164.663 79,160.5C 78.5518,162.224 77.7185,162.891 76.5,162.5C 78.3761,163.99 79.0428,165.657 78.5,167.5C 78.1667,167.5 77.8333,167.5 77.5,167.5C 76.6365,166.537 75.9698,166.537 75.5,167.5C 76.0402,168.748 76.7069,169.915 77.5,171C 75.8739,170.805 74.2072,170.805 72.5,171C 73.2401,172.785 73.9067,174.618 74.5,176.5C 73.1095,176.109 72.1095,176.942 71.5,179C 70.1667,179.667 68.8333,179.667 67.5,179C 65.2117,178.054 63.045,176.887 61,175.5C 60.4926,176.996 60.9926,178.163 62.5,179C 61.8333,179.333 61.1667,179.667 60.5,180C 63.0468,181.316 63.7135,183.149 62.5,185.5C 65.3034,189.25 64.9701,189.916 61.5,187.5C 56.1615,178.981 49.8282,171.148 42.5,164C 41.255,163.209 39.9217,162.709 38.5,162.5C 37.4958,160.323 38.1625,159.989 40.5,161.5C 43.8131,160.955 47.1464,160.455 50.5,160C 51.1667,159.333 51.8333,158.667 52.5,158C 51.9491,156.602 51.6158,155.268 51.5,154C 53.4021,152.699 55.4021,152.032 57.5,152C 56.8742,152.75 56.3742,153.584 56,154.5C 55.6667,154.167 55.3333,153.833 55,153.5C 54.0211,157.423 54.5211,161.09 56.5,164.5C 54.2523,166.225 54.7523,167.558 58,168.5C 58.3333,165.5 58.6667,162.5 59,159.5C 61.9072,163.128 62.9072,167.128 62,171.5C 63.1096,173.037 64.6096,173.703 66.5,173.5C 66.3354,171.173 65.6687,169.007 64.5,167C 65.3081,166.692 65.9747,166.192 66.5,165.5C 64.3557,161.379 62.3557,157.212 60.5,153C 61.7932,152.51 63.1266,152.343 64.5,152.5C 63.7464,156.419 65.0797,157.753 68.5,156.5C 67.245,153.99 66.0784,151.657 65,149.5C 67.0693,150.264 69.236,150.764 71.5,151C 70.1667,151.333 68.8333,151.667 67.5,152C 69.1667,155 71.5,157.333 74.5,159C 75.9437,159.781 77.277,159.614 78.5,158.5C 76.8688,155.404 74.8688,152.57 72.5,150C 74.5269,150.498 76.5269,150.331 78.5,149.5C 76.144,146.978 73.9773,144.312 72,141.5C 71.3083,140.563 71.475,139.897 72.5,139.5 Z"/></g>
<g><path style="opacity:0.858" fill="#00e060" d="M 213.5,176.5 C 213.672,177.492 213.338,178.158 212.5,178.5C 202.629,177.659 197.962,172.159 198.5,162C 199.193,157.19 199.693,152.357 200,147.5C 203.362,149.35 206.362,151.683 209,154.5C 209.691,160.261 209.191,165.927 207.5,171.5C 208.289,174.568 210.289,176.235 213.5,176.5 Z"/></g>
<g><path style="opacity:0.518" fill="#ea7329" d="M 115.5,142.5 C 119.023,144.952 122.856,145.619 127,144.5C 127.483,145.448 127.649,146.448 127.5,147.5C 122.173,148.599 116.84,149.766 111.5,151C 114.226,151.182 116.893,151.682 119.5,152.5C 118.975,153.192 118.308,153.692 117.5,154C 113.181,154.76 108.848,155.427 104.5,156C 106.51,158.775 109.01,159.608 112,158.5C 112.617,159.449 112.451,160.282 111.5,161C 109.212,161.822 106.878,162.489 104.5,163C 107.248,165.041 110.248,166.541 113.5,167.5C 113.265,168.097 112.765,168.43 112,168.5C 109.773,167.637 107.607,166.637 105.5,165.5C 103.833,166.833 102.167,168.167 100.5,169.5C 100.167,169.333 99.8333,169.167 99.5,169C 101.019,167.649 102.352,166.149 103.5,164.5C 103.376,163.893 103.043,163.56 102.5,163.5C 99.7149,162.983 97.0482,162.15 94.5,161C 96.2072,160.805 97.8739,160.805 99.5,161C 97.4611,159.074 95.7945,156.907 94.5,154.5C 96.1494,151.123 98.1494,150.79 100.5,153.5C 103.607,153.649 106.607,153.149 109.5,152C 105.899,150.711 103.399,148.544 102,145.5C 107.593,148.678 113.427,149.178 119.5,147C 116.476,145.487 113.809,143.487 111.5,141C 113.066,140.7 114.399,141.2 115.5,142.5 Z"/></g>
<g><path style="opacity:1" fill="#f6a328" d="M 82.5,145.5 C 85.0145,147.182 87.0145,149.348 88.5,152C 88.1667,152.5 87.8333,153 87.5,153.5C 81.5986,150.534 80.932,151.701 85.5,157C 81.7108,157.608 78.7108,156.275 76.5,153C 77.7932,152.51 79.1266,152.343 80.5,152.5C 80.4003,149.892 81.0669,147.558 82.5,145.5 Z"/></g>
<g><path style="opacity:1" fill="#f8ad25" d="M 64.5,126.5 C 66.1667,126.5 67.8333,126.5 69.5,126.5C 69.6567,127.873 69.49,129.207 69,130.5C 67.9148,129.707 66.7481,129.04 65.5,128.5C 62.7939,130.923 63.4606,132.09 67.5,132C 66.0337,132.635 64.7003,133.469 63.5,134.5C 60.7837,132.914 58.4503,133.247 56.5,135.5C 60.0677,136.97 63.401,136.636 66.5,134.5C 67.8928,135.863 69.5595,136.696 71.5,137C 72.2524,137.671 72.5858,138.504 72.5,139.5C 71.475,139.897 71.3083,140.563 72,141.5C 73.9773,144.312 76.144,146.978 78.5,149.5C 76.5269,150.331 74.5269,150.498 72.5,150C 74.8688,152.57 76.8688,155.404 78.5,158.5C 77.277,159.614 75.9437,159.781 74.5,159C 71.5,157.333 69.1667,155 67.5,152C 68.8333,151.667 70.1667,151.333 71.5,151C 69.236,150.764 67.0693,150.264 65,149.5C 66.0784,151.657 67.245,153.99 68.5,156.5C 65.0797,157.753 63.7464,156.419 64.5,152.5C 63.1266,152.343 61.7932,152.51 60.5,153C 62.3557,157.212 64.3557,161.379 66.5,165.5C 65.9747,166.192 65.3081,166.692 64.5,167C 65.6687,169.007 66.3354,171.173 66.5,173.5C 64.6096,173.703 63.1096,173.037 62,171.5C 62.9072,167.128 61.9072,163.128 59,159.5C 58.6667,162.5 58.3333,165.5 58,168.5C 54.7523,167.558 54.2523,166.225 56.5,164.5C 54.5211,161.09 54.0211,157.423 55,153.5C 55.3333,153.833 55.6667,154.167 56,154.5C 56.3742,153.584 56.8742,152.75 57.5,152C 55.4021,152.032 53.4021,152.699 51.5,154C 51.6158,155.268 51.9491,156.602 52.5,158C 51.8333,158.667 51.1667,159.333 50.5,160C 47.1464,160.455 43.8131,160.955 40.5,161.5C 41.3351,160.057 42.6684,159.057 44.5,158.5C 44.2907,157.914 43.9574,157.414 43.5,157C 45.359,156.316 47.0257,155.316 48.5,154C 48.1667,153.667 47.8333,153.333 47.5,153C 49.3839,152.784 51.0506,152.117 52.5,151C 50.1522,148.884 50.8189,147.718 54.5,147.5C 59.658,146.516 59.658,145.683 54.5,145C 55.6721,144.581 56.6721,143.915 57.5,143C 53.8154,142.259 53.1487,140.759 55.5,138.5C 53.1667,137.833 50.8333,137.167 48.5,136.5C 49.1449,135.354 49.9783,134.354 51,133.5C 54.2404,134.638 56.7404,133.638 58.5,130.5C 59.8333,129.833 59.8333,129.167 58.5,128.5C 60.5,127.833 62.5,127.167 64.5,126.5 Z"/></g>
<g><path style="opacity:1" fill="#f9eb75" d="M 31.5,159.5 C 25.7098,159.438 20.3764,160.771 15.5,163.5C 13.5,163.833 11.5,164.167 9.5,164.5C 10.1667,163.5 10.8333,162.5 11.5,161.5C 13.487,160.836 15.1537,159.669 16.5,158C 16.1667,157.833 15.8333,157.667 15.5,157.5C 13.5808,158.612 11.9142,159.946 10.5,161.5C 7.71015,162.151 6.04348,160.817 5.5,157.5C 5.5,157.167 5.5,156.833 5.5,156.5C 6.74832,153.516 8.41499,150.682 10.5,148C 14.4281,149.253 18.4281,149.586 22.5,149C 21.1974,151.966 19.1974,154.3 16.5,156C 17.0465,156.925 17.7132,157.758 18.5,158.5C 20.4933,156.334 22.3267,154.001 24,151.5C 25,152.5 26,153.5 27,154.5C 27.724,152.041 29.0573,151.041 31,151.5C 33.3172,150.24 35.6506,148.24 38,145.5C 38.6667,146.167 38.6667,146.833 38,147.5C 36.1217,149.043 34.6217,150.876 33.5,153C 34.3081,153.308 34.9747,153.808 35.5,154.5C 34.0473,156.185 32.714,157.851 31.5,159.5 Z"/></g>
<g><path style="opacity:1" fill="#5f5f39" d="M 12.5,151.5 C 14.1765,152.183 14.8432,153.517 14.5,155.5C 10.1547,155.702 9.48799,154.369 12.5,151.5 Z"/></g>
<g><path style="opacity:1" fill="#fbc118" d="M 100.5,153.5 C 102.294,155.797 104.294,157.963 106.5,160C 103.653,160.944 101.153,160.444 99,158.5C 98.5439,157.256 99.0439,156.423 100.5,156C 98.1582,154.608 98.1582,153.775 100.5,153.5 Z"/></g>
<g><path style="opacity:0.89" fill="#ec8747" d="M 2.5,158.5 C 2.57298,160.027 1.90632,161.027 0.5,161.5C 0.427017,159.973 1.09368,158.973 2.5,158.5 Z"/></g>
<g><path style="opacity:1" fill="#e6d8de" d="M 5.5,157.5 C 6.04348,160.817 7.71015,162.151 10.5,161.5C 10.8333,161.5 11.1667,161.5 11.5,161.5C 10.8333,162.5 10.1667,163.5 9.5,164.5C 8.83333,165.5 8.16667,166.5 7.5,167.5C 4.85795,167.488 3.52462,168.821 3.5,171.5C 2.06888,171.119 1.23555,170.119 1,168.5C 0.503354,166.19 0.336688,163.857 0.5,161.5C 1.90632,161.027 2.57298,160.027 2.5,158.5C 3.39105,157.89 4.39105,157.557 5.5,157.5 Z"/></g>
<g><path style="opacity:1" fill="#e36128" d="M 11.5,161.5 C 11.1667,161.5 10.8333,161.5 10.5,161.5C 11.9142,159.946 13.5808,158.612 15.5,157.5C 15.8333,157.667 16.1667,157.833 16.5,158C 15.1537,159.669 13.487,160.836 11.5,161.5 Z"/></g>
<g><path style="opacity:0.439" fill="#ea7724" d="M 31.5,159.5 C 31.8333,159.5 32.1667,159.5 32.5,159.5C 34.5168,160.529 36.5168,161.529 38.5,162.5C 39.9217,162.709 41.255,163.209 42.5,164C 49.8282,171.148 56.1615,178.981 61.5,187.5C 60.8333,187.167 60.1667,186.833 59.5,186.5C 54.4222,179.248 48.7555,172.415 42.5,166C 38.2852,164.155 34.1185,162.322 30,160.5C 25.1386,161.439 20.3052,162.439 15.5,163.5C 20.3764,160.771 25.7098,159.438 31.5,159.5 Z"/></g>
<g><path style="opacity:1" fill="#e76027" d="M 172.5,162.5 C 172.158,161.662 171.492,161.328 170.5,161.5C 172.151,160.03 173.985,158.697 176,157.5C 175.923,159.772 174.757,161.438 172.5,162.5 Z"/></g>
<g><path style="opacity:0.957" fill="#ec974c" d="M -0.5,161.5 C -0.166667,161.5 0.166667,161.5 0.5,161.5C 0.336688,163.857 0.503354,166.19 1,168.5C 1.23555,170.119 2.06888,171.119 3.5,171.5C 3.5,171.833 3.5,172.167 3.5,172.5C 3.5,173.167 3.5,173.833 3.5,174.5C 1.80584,173.473 0.472504,172.139 -0.5,170.5C -0.5,167.5 -0.5,164.5 -0.5,161.5 Z"/></g>
<g><path style="opacity:0.514" fill="#ee8823" d="M 15.5,163.5 C 13.1515,165.341 10.4848,166.674 7.5,167.5C 8.16667,166.5 8.83333,165.5 9.5,164.5C 11.5,164.167 13.5,163.833 15.5,163.5 Z"/></g>
<g><path style="opacity:0.984" fill="#e86728" d="M 166.5,169.5 C 165.761,169.631 165.094,169.464 164.5,169C 168.115,168.268 171.448,166.935 174.5,165C 166.729,167.508 166.063,166.675 172.5,162.5C 175.152,162.974 177.819,162.307 180.5,160.5C 180.833,160.833 181.167,161.167 181.5,161.5C 177.423,165.913 172.423,168.58 166.5,169.5 Z"/></g>
<g><path style="opacity:1" fill="#f08d24" d="M 170.5,161.5 C 171.492,161.328 172.158,161.662 172.5,162.5C 166.063,166.675 166.729,167.508 174.5,165C 171.448,166.935 168.115,168.268 164.5,169C 165.094,169.464 165.761,169.631 166.5,169.5C 166.5,169.833 166.5,170.167 166.5,170.5C 168.969,171.317 171.635,171.817 174.5,172C 173.207,172.49 171.873,172.657 170.5,172.5C 159.862,172.145 149.195,171.978 138.5,172C 144.539,171.663 150.539,170.997 156.5,170C 144.181,170.419 131.848,170.419 119.5,170C 117.347,169.901 115.681,169.067 114.5,167.5C 133.736,170.335 152.403,168.335 170.5,161.5 Z"/></g>
<g><path style="opacity:1" fill="#e87935" d="M 7.5,167.5 C 6.5,169.167 5.16667,170.5 3.5,171.5C 3.52462,168.821 4.85795,167.488 7.5,167.5 Z"/></g>
<g><path style="opacity:1" fill="#f9b41d" d="M 102.5,163.5 C 103.043,163.56 103.376,163.893 103.5,164.5C 102.352,166.149 101.019,167.649 99.5,169C 99.8333,169.167 100.167,169.333 100.5,169.5C 102.167,168.167 103.833,166.833 105.5,165.5C 107.607,166.637 109.773,167.637 112,168.5C 112.765,168.43 113.265,168.097 113.5,167.5C 113.833,167.5 114.167,167.5 114.5,167.5C 115.681,169.067 117.347,169.901 119.5,170C 131.848,170.419 144.181,170.419 156.5,170C 150.539,170.997 144.539,171.663 138.5,172C 149.195,171.978 159.862,172.145 170.5,172.5C 165.299,175.051 159.632,176.551 153.5,177C 157.5,177.333 161.5,177.667 165.5,178C 166.167,178.667 166.833,179.333 167.5,180C 165.26,180.977 162.927,181.477 160.5,181.5C 156.353,180.675 152.019,180.175 147.5,180C 147.833,179.667 148.167,179.333 148.5,179C 146.122,178.489 143.788,177.822 141.5,177C 145.167,176.667 148.833,176.333 152.5,176C 140.312,172.871 127.978,172.205 115.5,174C 118.228,175.086 120.894,175.42 123.5,175C 122.269,176.405 120.936,177.571 119.5,178.5C 116.143,178.23 113.809,178.896 112.5,180.5C 112.67,179.178 112.337,178.011 111.5,177C 112.833,177 114.167,177 115.5,177C 115.047,174.307 113.547,172.473 111,171.5C 108.766,175.458 105.933,178.958 102.5,182C 100.5,182.667 98.5,182.667 96.5,182C 97.5,181.667 98.5,181.333 99.5,181C 100.061,179.324 101.061,177.991 102.5,177C 101.366,175.984 101.699,175.317 103.5,175C 101.204,174.909 98.8704,175.076 96.5,175.5C 94.3066,175.674 92.4733,175.007 91,173.5C 90.8782,175.169 91.2115,176.835 92,178.5C 93.8942,182.236 96.3942,185.569 99.5,188.5C 99.0798,190.326 99.0798,192.326 99.5,194.5C 98.9569,194.56 98.6236,194.893 98.5,195.5C 99.1925,196.518 99.8592,197.518 100.5,198.5C 99.8333,198.5 99.5,198.833 99.5,199.5C 99.5,200.833 99.5,202.167 99.5,203.5C 98.209,203.737 97.209,203.404 96.5,202.5C 97.8799,202.038 98.5466,201.038 98.5,199.5C 97.7515,197.964 96.7515,196.631 95.5,195.5C 97.0049,194.158 97.6715,192.492 97.5,190.5C 92.965,190.355 88.6317,189.522 84.5,188C 85.1258,187.25 85.6258,186.416 86,185.5C 89.4901,187.859 91.9901,186.859 93.5,182.5C 90.2615,182.214 87.0948,182.214 84,182.5C 80.4499,178.883 81.2832,177.05 86.5,177C 82.7767,175.741 81.7767,173.408 83.5,170C 81.8068,169.153 80.1401,168.32 78.5,167.5C 79.0428,165.657 78.3761,163.99 76.5,162.5C 77.7185,162.891 78.5518,162.224 79,160.5C 80.9216,164.663 83.5882,168.33 87,171.5C 91.1094,171.529 92.9427,169.529 92.5,165.5C 96.1224,165.678 99.4557,165.011 102.5,163.5 Z"/></g>
<g><path style="opacity:1" fill="#fcc611" d="M 112.5,180.5 C 108.013,184.073 108.68,185.24 114.5,184C 116.705,182.294 119.038,180.794 121.5,179.5C 121.043,178.702 120.376,178.369 119.5,178.5C 120.936,177.571 122.269,176.405 123.5,175C 120.894,175.42 118.228,175.086 115.5,174C 127.978,172.205 140.312,172.871 152.5,176C 148.833,176.333 145.167,176.667 141.5,177C 143.788,177.822 146.122,178.489 148.5,179C 148.167,179.333 147.833,179.667 147.5,180C 152.019,180.175 156.353,180.675 160.5,181.5C 158.5,181.5 156.5,181.5 154.5,181.5C 148.824,181.072 143.157,180.905 137.5,181C 141.804,182.106 146.137,183.106 150.5,184C 144.833,184.333 139.167,184.667 133.5,185C 137.939,185.855 142.273,186.855 146.5,188C 140.401,189.991 133.401,190.991 125.5,191C 129.466,191.828 133.466,192.328 137.5,192.5C 140.423,193.542 143.09,194.875 145.5,196.5C 145.167,196.5 144.833,196.5 144.5,196.5C 136.564,197.6 128.564,198.6 120.5,199.5C 121.665,200.584 122.998,201.417 124.5,202C 119.711,204.096 115.044,203.929 110.5,201.5C 109.304,201.846 109.304,202.346 110.5,203C 109.906,203.464 109.239,203.631 108.5,203.5C 104.528,201.528 101.528,198.528 99.5,194.5C 99.0798,192.326 99.0798,190.326 99.5,188.5C 96.3942,185.569 93.8942,182.236 92,178.5C 91.2115,176.835 90.8782,175.169 91,173.5C 92.4733,175.007 94.3066,175.674 96.5,175.5C 98.8704,175.076 101.204,174.909 103.5,175C 101.699,175.317 101.366,175.984 102.5,177C 101.061,177.991 100.061,179.324 99.5,181C 98.5,181.333 97.5,181.667 96.5,182C 98.5,182.667 100.5,182.667 102.5,182C 105.933,178.958 108.766,175.458 111,171.5C 113.547,172.473 115.047,174.307 115.5,177C 114.167,177 112.833,177 111.5,177C 112.337,178.011 112.67,179.178 112.5,180.5 Z"/></g>
<g><path style="opacity:0.006" fill="#fef139" d="M 3.5,172.5 C 6.18674,174.394 6.18674,175.061 3.5,174.5C 3.5,173.833 3.5,173.167 3.5,172.5 Z"/></g>
<g><path style="opacity:0.847" fill="#00e060" d="M 199.5,205.5 C 199.5,206.167 199.167,206.5 198.5,206.5C 192.063,206.048 188.229,202.714 187,196.5C 187.36,189.044 188.694,181.71 191,174.5C 195.521,176.855 198.354,180.522 199.5,185.5C 197.734,190.298 196.067,195.132 194.5,200C 194.931,202.932 196.598,204.766 199.5,205.5 Z"/></g>
<g><path style="opacity:0.853" fill="#00e060" d="M 208.5,193.5 C 208.5,192.833 208.833,192.5 209.5,192.5C 211.738,193.537 214.071,193.703 216.5,193C 218.501,186.984 222.168,182.317 227.5,179C 231.337,178.239 235.004,178.739 238.5,180.5C 233.645,187.522 227.645,193.355 220.5,198C 215.747,198.455 211.747,196.955 208.5,193.5 Z"/></g>
<g><path style="opacity:1" fill="#f69f2b" d="M 119.5,178.5 C 120.376,178.369 121.043,178.702 121.5,179.5C 119.038,180.794 116.705,182.294 114.5,184C 108.68,185.24 108.013,184.073 112.5,180.5C 113.809,178.896 116.143,178.23 119.5,178.5 Z"/></g>
<g><path style="opacity:1" fill="#f7a922" d="M 77.5,167.5 C 78.7298,169.297 79.3964,171.297 79.5,173.5C 76.162,173.109 75.162,174.276 76.5,177C 76.0946,177.945 75.428,178.612 74.5,179C 75.0585,179.725 75.3918,180.558 75.5,181.5C 72.7873,188.159 73.1207,194.659 76.5,201C 75.944,201.383 75.6107,201.883 75.5,202.5C 73.1878,200.854 71.1878,198.854 69.5,196.5C 68.479,197.002 68.3123,197.668 69,198.5C 71.5566,200.695 73.5566,203.028 75,205.5C 70.1672,204.192 65.3338,204.192 60.5,205.5C 59.9489,199.157 59.6156,192.824 59.5,186.5C 60.1667,186.833 60.8333,187.167 61.5,187.5C 64.9701,189.916 65.3034,189.25 62.5,185.5C 63.7135,183.149 63.0468,181.316 60.5,180C 61.1667,179.667 61.8333,179.333 62.5,179C 60.9926,178.163 60.4926,176.996 61,175.5C 63.045,176.887 65.2117,178.054 67.5,179C 68.8333,179.667 70.1667,179.667 71.5,179C 72.1095,176.942 73.1095,176.109 74.5,176.5C 73.9067,174.618 73.2401,172.785 72.5,171C 74.2072,170.805 75.8739,170.805 77.5,171C 76.7069,169.915 76.0402,168.748 75.5,167.5C 75.9698,166.537 76.6365,166.537 77.5,167.5 Z"/></g>
<g><path style="opacity:1" fill="#f4912c" d="M 122.5,183.5 C 124.842,183.775 124.842,184.608 122.5,186C 120.55,187.496 118.55,187.663 116.5,186.5C 118.594,185.482 120.594,184.482 122.5,183.5 Z"/></g>
<g><path style="opacity:1" fill="#fcc416" d="M 77.5,167.5 C 77.8333,167.5 78.1667,167.5 78.5,167.5C 80.1401,168.32 81.8068,169.153 83.5,170C 81.7767,173.408 82.7767,175.741 86.5,177C 81.2832,177.05 80.4499,178.883 84,182.5C 87.0948,182.214 90.2615,182.214 93.5,182.5C 91.9901,186.859 89.4901,187.859 86,185.5C 85.6258,186.416 85.1258,187.25 84.5,188C 88.6317,189.522 92.965,190.355 97.5,190.5C 97.6715,192.492 97.0049,194.158 95.5,195.5C 96.7515,196.631 97.7515,197.964 98.5,199.5C 98.5466,201.038 97.8799,202.038 96.5,202.5C 95.5768,201.697 94.5768,201.53 93.5,202C 94.9882,203.717 96.8215,204.884 99,205.5C 99.9309,207.459 100.764,209.459 101.5,211.5C 100.624,212.251 99.624,212.751 98.5,213C 100.32,213.2 101.653,214.034 102.5,215.5C 102.5,215.833 102.5,216.167 102.5,216.5C 99.1948,214.981 96.8615,215.981 95.5,219.5C 96.6053,220.892 97.9386,222.059 99.5,223C 97.1873,223.662 94.854,224.162 92.5,224.5C 90.9731,224.573 89.9731,223.906 89.5,222.5C 88.2154,220.194 88.8821,218.361 91.5,217C 89.3762,215.878 87.5429,214.378 86,212.5C 85.6667,212.833 85.3333,213.167 85,213.5C 83.647,212.315 82.4803,210.981 81.5,209.5C 80.3892,211.552 78.7225,212.886 76.5,213.5C 76.5,212.833 76.5,212.167 76.5,211.5C 77.3019,210.048 77.8019,208.382 78,206.5C 78.8113,207.96 79.6446,208.293 80.5,207.5C 79.1455,205.479 77.4788,203.812 75.5,202.5C 75.6107,201.883 75.944,201.383 76.5,201C 73.1207,194.659 72.7873,188.159 75.5,181.5C 75.3918,180.558 75.0585,179.725 74.5,179C 75.428,178.612 76.0946,177.945 76.5,177C 75.162,174.276 76.162,173.109 79.5,173.5C 79.3964,171.297 78.7298,169.297 77.5,167.5 Z"/></g>
<g><path style="opacity:1" fill="#f7ac18" d="M 154.5,181.5 C 157.355,183.25 160.689,184.083 164.5,184C 159.896,185.061 155.229,185.727 150.5,186C 152.221,187.527 154.221,188.527 156.5,189C 154.5,189.333 152.5,189.667 150.5,190C 150.833,190.333 151.167,190.667 151.5,191C 146.649,191.174 141.982,191.674 137.5,192.5C 133.466,192.328 129.466,191.828 125.5,191C 133.401,190.991 140.401,189.991 146.5,188C 142.273,186.855 137.939,185.855 133.5,185C 139.167,184.667 144.833,184.333 150.5,184C 146.137,183.106 141.804,182.106 137.5,181C 143.157,180.905 148.824,181.072 154.5,181.5 Z"/></g>
<g><path style="opacity:0.596" fill="#eb7526" d="M 145.5,196.5 C 143.09,194.875 140.423,193.542 137.5,192.5C 141.982,191.674 146.649,191.174 151.5,191C 151.167,190.667 150.833,190.333 150.5,190C 152.5,189.667 154.5,189.333 156.5,189C 154.221,188.527 152.221,187.527 150.5,186C 155.229,185.727 159.896,185.061 164.5,184C 160.689,184.083 157.355,183.25 154.5,181.5C 156.5,181.5 158.5,181.5 160.5,181.5C 162.927,181.477 165.26,180.977 167.5,180C 166.833,179.333 166.167,178.667 165.5,178C 161.5,177.667 157.5,177.333 153.5,177C 159.632,176.551 165.299,175.051 170.5,172.5C 171.873,172.657 173.207,172.49 174.5,172C 171.635,171.817 168.969,171.317 166.5,170.5C 172.947,170.26 179.113,168.927 185,166.5C 185.483,167.448 185.649,168.448 185.5,169.5C 181.988,170.005 179.655,172.005 178.5,175.5C 176.641,177.192 174.641,178.692 172.5,180C 174.645,180.743 174.811,181.576 173,182.5C 168.48,185.007 163.647,186.507 158.5,187C 162.332,187.762 165.998,187.262 169.5,185.5C 170.711,186.274 170.711,187.107 169.5,188C 167.167,189 164.833,190 162.5,191C 162.833,191.333 163.167,191.667 163.5,192C 157.29,192.989 151.29,194.489 145.5,196.5 Z"/></g>
<g><path style="opacity:1" fill="#f59b28" d="M 108.5,189.5 C 108.735,188.903 109.235,188.57 110,188.5C 120.792,190.001 120.292,191.667 108.5,193.5C 107.5,193.333 106.5,193.167 105.5,193C 107.715,191.956 110.048,191.29 112.5,191C 111.099,190.59 109.766,190.09 108.5,189.5 Z"/></g>
<g><path style="opacity:0.867" fill="#00e060" d="M 175.5,226.5 C 175.167,226.5 174.833,226.5 174.5,226.5C 166.327,220.844 165.827,214.178 173,206.5C 175.98,202.686 179.146,199.019 182.5,195.5C 185.049,199.509 185.882,203.842 185,208.5C 181.806,212.605 178.14,216.272 174,219.5C 173.4,222.095 173.9,224.429 175.5,226.5 Z"/></g>
<g><path style="opacity:0.784" fill="#e77021" d="M 99.5,194.5 C 101.528,198.528 104.528,201.528 108.5,203.5C 105.592,202.713 102.926,201.38 100.5,199.5C 100.5,199.167 100.5,198.833 100.5,198.5C 99.8592,197.518 99.1925,196.518 98.5,195.5C 98.6236,194.893 98.9569,194.56 99.5,194.5 Z"/></g>
<g><path style="opacity:0.357" fill="#eb7826" d="M 144.5,196.5 C 139.524,197.655 134.524,199.155 129.5,201C 129.833,201.333 130.167,201.667 130.5,202C 123.193,205.674 115.86,206.174 108.5,203.5C 109.239,203.631 109.906,203.464 110.5,203C 109.304,202.346 109.304,201.846 110.5,201.5C 115.044,203.929 119.711,204.096 124.5,202C 122.998,201.417 121.665,200.584 120.5,199.5C 128.564,198.6 136.564,197.6 144.5,196.5 Z"/></g>
<g><path style="opacity:1" fill="#f07e3b" d="M 85.5,198.5 C 92.332,201.566 91.9987,202.566 84.5,201.5C 85.1272,200.583 85.4606,199.583 85.5,198.5 Z"/></g>
<g><path style="opacity:1" fill="#f08837" d="M 75.5,202.5 C 77.4788,203.812 79.1455,205.479 80.5,207.5C 79.6446,208.293 78.8113,207.96 78,206.5C 77.8019,208.382 77.3019,210.048 76.5,211.5C 74.6028,210.195 72.2695,209.529 69.5,209.5C 66.7471,209.551 64.0805,209.884 61.5,210.5C 60.962,208.883 60.6287,207.216 60.5,205.5C 65.3338,204.192 70.1672,204.192 75,205.5C 73.5566,203.028 71.5566,200.695 69,198.5C 68.3123,197.668 68.479,197.002 69.5,196.5C 71.1878,198.854 73.1878,200.854 75.5,202.5 Z"/></g>
<g><path style="opacity:0.844" fill="#00e060" d="M 144.5,231.5 C 144.167,231.5 143.833,231.5 143.5,231.5C 140.141,225.485 141.141,220.318 146.5,216C 152.776,212.409 159.443,209.909 166.5,208.5C 166.886,214.496 164.552,218.996 159.5,222C 155.137,222.894 150.804,223.894 146.5,225C 144.984,226.897 144.317,229.064 144.5,231.5 Z"/></g>
<g><path style="opacity:0.757" fill="#ee8129" d="M 99.5,199.5 C 99.8333,199.5 100.167,199.5 100.5,199.5C 100.673,202.179 101.673,204.513 103.5,206.5C 102.975,207.192 102.308,207.692 101.5,208C 102.047,210.367 103.047,212.533 104.5,214.5C 104.043,215.298 103.376,215.631 102.5,215.5C 101.653,214.034 100.32,213.2 98.5,213C 99.624,212.751 100.624,212.251 101.5,211.5C 100.764,209.459 99.9309,207.459 99,205.5C 96.8215,204.884 94.9882,203.717 93.5,202C 94.5768,201.53 95.5768,201.697 96.5,202.5C 97.209,203.404 98.209,203.737 99.5,203.5C 99.5,202.167 99.5,200.833 99.5,199.5 Z"/></g>
<g><path style="opacity:0.853" fill="#00e060" d="M 189.5,220.5 C 189.328,219.508 189.662,218.842 190.5,218.5C 192.516,221.144 195.183,221.977 198.5,221C 201.993,215.991 206.66,212.824 212.5,211.5C 215.863,212.015 218.863,213.348 221.5,215.5C 216.351,220.58 210.351,224.413 203.5,227C 201.167,227.667 198.833,227.667 196.5,227C 193.642,225.306 191.309,223.139 189.5,220.5 Z"/></g>
<g><path style="opacity:1" fill="#ec653a" d="M 76.5,211.5 C 76.5,212.167 76.5,212.833 76.5,213.5C 75.8333,213.5 75.5,213.833 75.5,214.5C 75.0825,215.222 74.4158,215.722 73.5,216C 70.854,216.497 68.1873,216.664 65.5,216.5C 64.8333,216.5 64.1667,216.5 63.5,216.5C 62.8333,214.5 62.1667,212.5 61.5,210.5C 64.0805,209.884 66.7471,209.551 69.5,209.5C 72.2695,209.529 74.6028,210.195 76.5,211.5 Z"/></g>
<g><path style="opacity:1" fill="#f5a922" d="M 63.5,216.5 C 64.1667,216.5 64.8333,216.5 65.5,216.5C 64.1516,217.186 62.985,218.186 62,219.5C 61.6667,218.833 61.3333,218.167 61,217.5C 57.5618,223.172 58.8951,223.839 65,219.5C 65.1667,219.833 65.3333,220.167 65.5,220.5C 63.6641,221.919 61.6641,223.086 59.5,224C 58.8095,225.067 58.3095,226.234 58,227.5C 57.2828,226.956 56.7828,226.289 56.5,225.5C 57.9687,223.895 57.6354,223.395 55.5,224C 54.7476,224.671 54.4142,225.504 54.5,226.5C 54.5,226.833 54.5,227.167 54.5,227.5C 54.5,228.167 54.8333,228.5 55.5,228.5C 55.3398,230.199 55.5065,231.866 56,233.5C 56.2784,232.584 56.7784,231.918 57.5,231.5C 57.3285,233.492 57.9951,235.158 59.5,236.5C 58.0379,237.471 56.7046,237.138 55.5,235.5C 51.2857,229.239 51.6191,223.406 56.5,218C 58.74,217.023 61.0733,216.523 63.5,216.5 Z M 56.5,225.5 C 55.8333,225.833 55.1667,226.167 54.5,226.5C 54.4142,225.504 54.7476,224.671 55.5,224C 57.6354,223.395 57.9687,223.895 56.5,225.5 Z"/></g>
<g><path style="opacity:0.565" fill="#ed8526" d="M 102.5,216.5 C 103.361,219.04 105.028,221.04 107.5,222.5C 106.271,223.281 104.938,223.781 103.5,224C 104.252,224.671 104.586,225.504 104.5,226.5C 103.288,225.77 102.288,224.77 101.5,223.5C 99.1419,224.154 97.4752,225.487 96.5,227.5C 95.1283,226.488 93.795,225.488 92.5,224.5C 94.854,224.162 97.1873,223.662 99.5,223C 97.9386,222.059 96.6053,220.892 95.5,219.5C 96.8615,215.981 99.1948,214.981 102.5,216.5 Z"/></g>
<g><path style="opacity:1" fill="#fdd319" d="M 98.5,217.5 C 100.978,218.195 102.978,219.695 104.5,222C 102.456,222.048 100.456,221.548 98.5,220.5C 97.4376,219.575 97.4376,218.575 98.5,217.5 Z"/></g>
<g><path style="opacity:0.99" fill="#fcc412" d="M 84.5,220.5 C 83.9285,222.36 83.9285,224.027 84.5,225.5C 80.8333,225.5 77.1667,225.5 73.5,225.5C 74.7135,218.729 78.3802,217.062 84.5,220.5 Z"/></g>
<g><path style="opacity:1" fill="#fccd1e" d="M 75.5,214.5 C 76.4778,214.811 77.1445,215.478 77.5,216.5C 74.8103,218.193 72.8103,220.527 71.5,223.5C 70.635,224.583 69.635,224.749 68.5,224C 69.5536,222.612 69.7203,221.112 69,219.5C 66.116,222.685 62.9493,225.518 59.5,228C 61.9504,226.793 64.6171,226.127 67.5,226C 65.8588,227.129 64.8588,228.629 64.5,230.5C 64.1667,231.5 63.5,232.167 62.5,232.5C 61.5655,233.568 61.2322,234.901 61.5,236.5C 60.2082,234.745 59.2082,232.745 58.5,230.5C 57.8933,230.624 57.56,230.957 57.5,231.5C 56.7784,231.918 56.2784,232.584 56,233.5C 55.5065,231.866 55.3398,230.199 55.5,228.5C 54.8333,228.5 54.5,228.167 54.5,227.5C 54.5,227.167 54.5,226.833 54.5,226.5C 55.1667,226.167 55.8333,225.833 56.5,225.5C 56.7828,226.289 57.2828,226.956 58,227.5C 58.3095,226.234 58.8095,225.067 59.5,224C 61.6641,223.086 63.6641,221.919 65.5,220.5C 65.3333,220.167 65.1667,219.833 65,219.5C 58.8951,223.839 57.5618,223.172 61,217.5C 61.3333,218.167 61.6667,218.833 62,219.5C 62.985,218.186 64.1516,217.186 65.5,216.5C 68.1873,216.664 70.854,216.497 73.5,216C 74.4158,215.722 75.0825,215.222 75.5,214.5 Z"/></g>
<g><path style="opacity:0.966" fill="#f5a324" d="M 89.5,222.5 C 88.1805,221.058 86.5138,220.392 84.5,220.5C 78.3802,217.062 74.7135,218.729 73.5,225.5C 77.1667,225.5 80.8333,225.5 84.5,225.5C 85.0431,225.56 85.3764,225.893 85.5,226.5C 84.846,228.115 84.346,229.782 84,231.5C 83.6174,230.944 83.1174,230.611 82.5,230.5C 79.9407,230.198 77.6074,230.532 75.5,231.5C 74.609,232.11 73.609,232.443 72.5,232.5C 71.9612,230.495 71.2945,228.495 70.5,226.5C 69.6313,230.033 67.6313,232.699 64.5,234.5C 65.0476,232.606 66.0476,230.94 67.5,229.5C 67.3333,229.167 67.1667,228.833 67,228.5C 66.2917,229.381 65.4584,230.047 64.5,230.5C 64.8588,228.629 65.8588,227.129 67.5,226C 64.6171,226.127 61.9504,226.793 59.5,228C 62.9493,225.518 66.116,222.685 69,219.5C 69.7203,221.112 69.5536,222.612 68.5,224C 69.635,224.749 70.635,224.583 71.5,223.5C 72.8103,220.527 74.8103,218.193 77.5,216.5C 77.1445,215.478 76.4778,214.811 75.5,214.5C 75.5,213.833 75.8333,213.5 76.5,213.5C 78.7225,212.886 80.3892,211.552 81.5,209.5C 82.4803,210.981 83.647,212.315 85,213.5C 85.3333,213.167 85.6667,212.833 86,212.5C 87.5429,214.378 89.3762,215.878 91.5,217C 88.8821,218.361 88.2154,220.194 89.5,222.5 Z"/></g>
<g><path style="opacity:1" fill="#fccc1c" d="M 104.5,226.5 C 104.804,227.15 105.137,227.817 105.5,228.5C 103.604,229.466 101.604,229.799 99.5,229.5C 97.9731,229.573 96.9731,228.906 96.5,227.5C 97.4752,225.487 99.1419,224.154 101.5,223.5C 102.288,224.77 103.288,225.77 104.5,226.5 Z"/></g>
<g><path style="opacity:0.024" fill="#ed792b" d="M 104.5,226.5 C 106.312,226.771 107.978,227.438 109.5,228.5C 106.195,230.55 102.862,230.883 99.5,229.5C 101.604,229.799 103.604,229.466 105.5,228.5C 105.137,227.817 104.804,227.15 104.5,226.5 Z"/></g>
<g><path style="opacity:1" fill="#fbd126" d="M 72.5,232.5 C 72.6716,233.492 72.3382,234.158 71.5,234.5C 70.4246,233.438 69.4246,233.438 68.5,234.5C 68.8501,237.647 69.5168,240.98 70.5,244.5C 70.1667,245.5 69.8333,246.5 69.5,247.5C 68.5258,245.257 68.1924,242.924 68.5,240.5C 66.7376,240.357 65.0709,240.691 63.5,241.5C 62,243.833 60.5,246.167 59,248.5C 58.2597,246.681 57.0931,245.348 55.5,244.5C 56.5622,241.622 58.5622,239.622 61.5,238.5C 63.4456,237.965 64.4456,236.632 64.5,234.5C 67.6313,232.699 69.6313,230.033 70.5,226.5C 71.2945,228.495 71.9612,230.495 72.5,232.5 Z"/></g>
<g><path style="opacity:0.745" fill="#f07a3c" d="M 82.5,230.5 C 82.3015,232.96 81.6348,235.293 80.5,237.5C 79.2011,236.91 78.3678,235.91 78,234.5C 77.3333,235.167 76.6667,235.833 76,236.5C 76.5258,234.773 76.3591,233.106 75.5,231.5C 77.6074,230.532 79.9407,230.198 82.5,230.5 Z"/></g>
<g><path style="opacity:0.847" fill="#00e060" d="M 127.5,233.5 C 128.167,233.5 128.5,233.833 128.5,234.5C 128.549,237.099 129.549,239.266 131.5,241C 136.666,241.269 141.666,242.269 146.5,244C 149.812,247.099 151.479,250.933 151.5,255.5C 150.167,255.5 148.833,255.5 147.5,255.5C 143.313,253.936 138.98,252.436 134.5,251C 126.17,247.505 123.837,241.671 127.5,233.5 Z"/></g>
<g><path style="opacity:0.837" fill="#00e060" d="M 161.5,232.5 C 161.472,234.582 162.139,236.416 163.5,238C 168.012,238.5 172.512,238.333 177,237.5C 179.3,237.494 181.466,237.994 183.5,239C 185.869,241.57 187.869,244.404 189.5,247.5C 181.371,248.992 173.371,248.492 165.5,246C 161.203,243.055 159.203,238.888 159.5,233.5C 160.167,233.167 160.833,232.833 161.5,232.5 Z"/></g>
<g><path style="opacity:1" fill="#ec8027" d="M 62.5,232.5 C 62.1307,234.993 62.7973,235.66 64.5,234.5C 64.4456,236.632 63.4456,237.965 61.5,238.5C 61.5,237.833 61.5,237.167 61.5,236.5C 61.2322,234.901 61.5655,233.568 62.5,232.5 Z"/></g>
<g><path style="opacity:0.929" fill="#f39f2e" d="M 71.5,234.5 C 71.0183,235.416 70.685,236.416 70.5,237.5C 74.0759,244.752 72.7426,250.752 66.5,255.5C 65.5,255.5 64.5,255.5 63.5,255.5C 63.3893,254.883 63.056,254.383 62.5,254C 63.756,253.583 64.4226,252.75 64.5,251.5C 65.675,251.719 66.675,251.386 67.5,250.5C 66.484,247.866 66.484,245.2 67.5,242.5C 66.448,242.351 65.448,242.517 64.5,243C 61.5902,245.822 61.2569,248.656 63.5,251.5C 62.8333,251.5 62.1667,251.5 61.5,251.5C 60.1147,250.386 58.6147,249.386 57,248.5C 56.5172,249.448 56.3505,250.448 56.5,251.5C 55.5318,249.393 55.1984,247.059 55.5,244.5C 57.0931,245.348 58.2597,246.681 59,248.5C 60.5,246.167 62,243.833 63.5,241.5C 65.0709,240.691 66.7376,240.357 68.5,240.5C 68.1924,242.924 68.5258,245.257 69.5,247.5C 69.8333,246.5 70.1667,245.5 70.5,244.5C 69.5168,240.98 68.8501,237.647 68.5,234.5C 69.4246,233.438 70.4246,233.438 71.5,234.5 Z M 64.5,251.5 C 64.1667,251.5 63.8333,251.5 63.5,251.5C 61.2569,248.656 61.5902,245.822 64.5,243C 65.448,242.517 66.448,242.351 67.5,242.5C 66.484,245.2 66.484,247.866 67.5,250.5C 66.675,251.386 65.675,251.719 64.5,251.5 Z"/></g>
<g><path style="opacity:0.937" fill="#fbd32f" d="M 61.5,251.5 C 62.1667,252.833 62.8333,252.833 63.5,251.5C 63.8333,251.5 64.1667,251.5 64.5,251.5C 64.4226,252.75 63.756,253.583 62.5,254C 63.056,254.383 63.3893,254.883 63.5,255.5C 62.1667,255.5 60.8333,255.5 59.5,255.5C 58.147,254.474 57.147,253.141 56.5,251.5C 56.3505,250.448 56.5172,249.448 57,248.5C 58.6147,249.386 60.1147,250.386 61.5,251.5 Z"/></g>
</svg>
