<svg width="512" height="512" viewBox="0 0 512 512" fill="none" xmlns="http://www.w3.org/2000/svg">
<path d="M0 255.243H512" stroke="#BFC5CE" stroke-opacity="0.9"/>
<line x1="268.618" y1="-3.31069e-08" x2="268.618" y2="512" stroke="#BFC5CE" stroke-opacity="0.9"/>
<path d="M440.791 83.3278C406.789 49.3262 363.468 26.1709 316.307 16.7899C269.145 7.4089 220.261 12.2236 175.836 30.6251C131.411 49.0266 93.4401 80.1884 66.7253 120.17C40.0104 160.152 25.7515 207.157 25.7515 255.243C25.7515 303.328 40.0105 350.334 66.7253 390.315C93.4402 430.297 131.411 461.459 175.836 479.86C220.261 498.262 269.145 503.076 316.307 493.695C363.468 484.314 406.789 461.159 440.791 427.157L402.282 388.648C375.896 415.034 342.28 433.002 305.682 440.282C269.085 447.562 231.151 443.825 196.677 429.546C162.203 415.266 132.738 391.085 112.007 360.059C91.2763 329.033 80.2113 292.557 80.2113 255.243C80.2113 217.928 91.2763 181.452 112.007 150.426C132.738 119.401 162.203 95.219 196.677 80.9394C231.151 66.6598 269.085 62.9236 305.682 70.2033C342.28 77.483 375.896 95.4515 402.282 121.837L440.791 83.3278Z" fill="#EA4335"/>
<path d="M387.235 136.884C371.691 121.341 353.239 109.011 332.931 100.599C312.623 92.1875 290.857 87.858 268.876 87.858C246.894 87.858 225.128 92.1875 204.82 100.599C184.512 109.011 166.06 121.341 150.517 136.884L174.354 160.721C186.767 148.309 201.503 138.462 217.721 131.745C233.939 125.027 251.322 121.569 268.876 121.569C286.43 121.569 303.812 125.027 320.03 131.745C336.248 138.462 350.984 148.309 363.397 160.721L387.235 136.884Z" fill="#FBBC05"/>
<path d="M387.235 373.601C355.844 404.992 313.269 422.627 268.876 422.627C224.483 422.627 181.908 404.992 150.517 373.601L174.354 349.764C199.423 374.833 233.423 388.916 268.876 388.916C304.328 388.916 338.328 374.833 363.397 349.764L387.235 373.601Z" fill="#FBBC05"/>
<path d="M189.077 175.444C210.241 154.28 238.946 142.391 268.876 142.391C298.806 142.391 327.51 154.28 348.674 175.444L268.876 255.243L189.077 175.444Z" fill="#4285F4"/>
<line x1="151.896" y1="135.928" x2="388.505" y2="372.537" stroke="#34A853" stroke-width="5"/>
</svg>
