<?xml version="1.0" encoding="UTF-8"?>
<!DOCTYPE svg PUBLIC "-//W3C//DTD SVG 1.1//EN" "http://www.w3.org/Graphics/SVG/1.1/DTD/svg11.dtd">
<svg xmlns="http://www.w3.org/2000/svg" version="1.1" width="1027px" height="425px" style="shape-rendering:geometricPrecision; text-rendering:geometricPrecision; image-rendering:optimizeQuality; fill-rule:evenodd; clip-rule:evenodd" xmlns:xlink="http://www.w3.org/1999/xlink">
<g><path style="opacity:0.016" fill="#2fff53" d="M 243.5,0.5 C 243.5,0.166667 243.5,-0.166667 243.5,-0.5C 244.5,-0.5 245.5,-0.5 246.5,-0.5C 245.791,0.403972 244.791,0.737305 243.5,0.5 Z"/></g>
<g><path style="opacity:0.012" fill="#2f083a" d="M 247.5,1.5 C 248.251,0.426544 249.251,0.259877 250.5,1C 249.552,1.48278 248.552,1.64945 247.5,1.5 Z"/></g>
<g><path style="opacity:0.016" fill="#2fff53" d="M 261.5,5.5 C 262.251,4.42654 263.251,4.25988 264.5,5C 263.552,5.48278 262.552,5.64945 261.5,5.5 Z"/></g>
<g><path style="opacity:0.012" fill="#2f083a" d="M 265.5,6.5 C 266.251,5.42654 267.251,5.25988 268.5,6C 267.552,6.48278 266.552,6.64945 265.5,6.5 Z"/></g>
<g><path style="opacity:0.012" fill="#2f083a" d="M 108.5,11.5 C 109.251,10.4265 110.251,10.2599 111.5,11C 110.552,11.4828 109.552,11.6495 108.5,11.5 Z"/></g>
<g><path style="opacity:1" fill="#32234a" d="M 155.5,-0.5 C 159.5,-0.5 163.5,-0.5 167.5,-0.5C 130.702,10.3711 93.7019,21.0378 56.5,31.5C 56.5299,30.5028 56.0299,29.8361 55,29.5C 51.9063,30.5655 48.7396,31.2322 45.5,31.5C 45.5,31.1667 45.5,30.8333 45.5,30.5C 82.3548,20.4561 119.021,10.1228 155.5,-0.5 Z"/></g>
<g><path style="opacity:1" fill="#382b50" d="M 229.5,-0.5 C 232.833,-0.5 236.167,-0.5 239.5,-0.5C 240.568,0.434475 241.901,0.767809 243.5,0.5C 249.231,2.76871 255.231,4.43537 261.5,5.5C 275.52,10.2577 289.853,14.2577 304.5,17.5C 310.231,19.7687 316.231,21.4354 322.5,22.5C 328.5,24.5 334.5,26.5 340.5,28.5C 336.66,27.6648 332.994,27.6648 329.5,28.5C 295.741,19.7331 262.408,10.0664 229.5,-0.5 Z"/></g>
<g><path style="opacity:0.016" fill="#2fff53" d="M 304.5,17.5 C 305.251,16.4265 306.251,16.2599 307.5,17C 306.552,17.4828 305.552,17.6495 304.5,17.5 Z"/></g>
<g><path style="opacity:0.012" fill="#3b083a" d="M 308.5,18.5 C 309.251,17.4265 310.251,17.2599 311.5,18C 310.552,18.4828 309.552,18.6495 308.5,18.5 Z"/></g>
<g><path style="opacity:0.016" fill="#2fff53" d="M 322.5,22.5 C 323.251,21.4265 324.251,21.2599 325.5,22C 324.552,22.4828 323.552,22.6495 322.5,22.5 Z"/></g>
<g><path style="opacity:0.012" fill="#2f083a" d="M 326.5,23.5 C 327.251,22.4265 328.251,22.2599 329.5,23C 328.552,23.4828 327.552,23.6495 326.5,23.5 Z"/></g>
<g><path style="opacity:0.012" fill="#3b083a" d="M 51.5,27.5 C 52.2506,26.4265 53.2506,26.2599 54.5,27C 53.552,27.4828 52.552,27.6495 51.5,27.5 Z"/></g>
<g><path style="opacity:0.911" fill="#fefefe" d="M 621.5,27.5 C 637.759,26.3012 653.092,29.4679 667.5,37C 680.501,46.6847 688.667,59.518 692,75.5C 695.458,96.0435 694.458,116.377 689,136.5C 680.873,158.955 665.04,172.455 641.5,177C 585.019,185.465 556.685,161.298 556.5,104.5C 555.42,83.249 561.253,64.249 574,47.5C 587.186,34.419 603.019,27.7523 621.5,27.5 Z M 621.5,53.5 C 641.479,52.3345 653.979,61.3345 659,80.5C 660.567,93.4519 660.9,106.452 660,119.5C 652.58,148.213 634.747,157.713 606.5,148C 597.898,141.636 592.731,133.136 591,122.5C 588.27,105.918 589.27,89.5851 594,73.5C 599.973,62.3494 609.14,55.6827 621.5,53.5 Z"/></g>
<g><path style="opacity:0.902" fill="#fefefe" d="M 490.5,28.5 C 501.564,28.0939 512.564,28.5939 523.5,30C 529.523,31.5608 535.19,33.8941 540.5,37C 542.378,38.5429 543.878,40.3762 545,42.5C 545.667,49.8333 545.667,57.1667 545,64.5C 544.167,65.3333 543.333,66.1667 542.5,67C 538.185,66.8897 534.519,65.2231 531.5,62C 519.102,54.4316 506.102,53.0982 492.5,58C 482.779,64.2493 476.613,73.0827 474,84.5C 471.03,101.244 472.363,117.578 478,133.5C 486.936,147.712 499.77,153.212 516.5,150C 523.945,148.609 530.612,145.609 536.5,141C 539.133,139.5 541.8,139.333 544.5,140.5C 546.958,148.422 547.124,156.422 545,164.5C 537.145,171.349 527.979,175.516 517.5,177C 492.949,181.698 471.783,175.531 454,158.5C 442.902,142.33 437.402,124.33 437.5,104.5C 437.613,84.7248 443.113,66.7248 454,50.5C 463.806,39.1831 475.973,31.8497 490.5,28.5 Z"/></g>
<g><path style="opacity:0.903" fill="#fefefe" d="M 727.5,29.5 C 743.524,29.2752 759.524,29.7752 775.5,31C 809.274,36.1492 822.774,55.6492 816,89.5C 811.091,108.075 799.258,119.575 780.5,124C 769.889,125.375 759.222,125.875 748.5,125.5C 748.818,141.548 748.485,157.548 747.5,173.5C 745.78,174.934 743.78,175.767 741.5,176C 735.5,176.667 729.5,176.667 723.5,176C 720.506,175.594 718.339,174.094 717,171.5C 716.333,127.167 716.333,82.8333 717,38.5C 718.299,32.7869 721.799,29.7869 727.5,29.5 Z M 748.5,55.5 C 757.663,54.9069 766.663,55.7402 775.5,58C 785.729,68.2412 787.229,79.7412 780,92.5C 777.292,96.1043 773.792,98.6043 769.5,100C 762.508,100.5 755.508,100.666 748.5,100.5C 748.5,85.5 748.5,70.5 748.5,55.5 Z"/></g>
<g><path style="opacity:0.895" fill="#fefefe" d="M 847.5,29.5 C 871.502,29.3334 895.502,29.5 919.5,30C 920.766,30.3095 921.933,30.8095 923,31.5C 926.605,39.6662 926.105,47.4996 921.5,55C 904.17,55.4999 886.837,55.6666 869.5,55.5C 869.5,66.5 869.5,77.5 869.5,88.5C 884.504,88.3334 899.504,88.5001 914.5,89C 918.45,96.6024 918.45,104.269 914.5,112C 899.504,112.5 884.504,112.667 869.5,112.5C 869.5,125.167 869.5,137.833 869.5,150.5C 886.837,150.333 904.17,150.5 921.5,151C 923.723,151.652 924.89,153.152 925,155.5C 925.667,160.5 925.667,165.5 925,170.5C 924.727,172.329 923.893,173.829 922.5,175C 896.167,175.667 869.833,175.667 843.5,175C 841.714,174.215 840.214,173.049 839,171.5C 837.354,126.879 837.021,82.2126 838,37.5C 839.555,32.8198 842.722,30.1531 847.5,29.5 Z"/></g>
<g><path style="opacity:0.004" fill="#000000" d="M 41.5,32.5 C 40.8333,31.1667 40.8333,31.1667 41.5,32.5 Z"/></g>
<g><path style="opacity:0.004" fill="#140601" d="M 40.5,32.5 C 40.6662,38.8421 40.4995,45.1754 40,51.5C 39.18,44.9863 39.3467,38.6529 40.5,32.5 Z"/></g>
<g><path style="opacity:0.004" fill="#1a0912" d="M 354.5,34.5 C 355.658,43.6575 355.824,52.9908 355,62.5C 354.5,53.1726 354.334,43.8393 354.5,34.5 Z"/></g>
<g><path style="opacity:1" fill="#ccc7c3" d="M 48.5,33.5 C 47.5024,134.096 47.1691,234.763 47.5,335.5C 47.1667,335.5 46.8333,335.5 46.5,335.5C 45.8356,234.494 46.5022,133.828 48.5,33.5 Z"/></g>
<g><path style="opacity:0.005" fill="#1c0c21" d="M 353.5,60.5 C 354.635,104.484 354.801,148.484 354,192.5C 353.832,173.329 353.332,154.329 352.5,135.5C 352.169,110.328 352.502,85.3278 353.5,60.5 Z"/></g>
<g><path style="opacity:0.629" fill="#9b4d52" d="M 45.5,30.5 C 45.5,30.8333 45.5,31.1667 45.5,31.5C 45.1667,32.1667 44.8333,32.8333 44.5,33.5C 43.5007,117.998 43.1673,202.665 43.5,287.5C 42.7798,202.663 42.1131,117.663 41.5,32.5C 42.8333,31.8333 44.1667,31.1667 45.5,30.5 Z"/></g>
<g><path style="opacity:0.984" fill="#2b1f4e" d="M 56.5,31.5 C 53.779,31.9628 51.1123,32.6295 48.5,33.5C 46.5022,133.828 45.8356,234.494 46.5,335.5C 46.44,336.043 46.1067,336.376 45.5,336.5C 44.5,235.502 44.1667,134.502 44.5,33.5C 44.8333,32.8333 45.1667,32.1667 45.5,31.5C 48.7396,31.2322 51.9063,30.5655 55,29.5C 56.0299,29.8361 56.5299,30.5028 56.5,31.5 Z"/></g>
<g><path style="opacity:0.004" fill="#1e1022" d="M 352.5,181.5 C 353.57,228.827 353.736,276.161 353,323.5C 352.832,304.329 352.332,285.329 351.5,266.5C 351.169,237.995 351.502,209.662 352.5,181.5 Z"/></g>
<g><path style="opacity:1" fill="#fefffe" d="M 372.5,198.5 C 584.167,198.333 795.834,198.5 1007.5,199C 1008.83,200.333 1008.83,201.667 1007.5,203C 795.833,203.667 584.167,203.667 372.5,203C 371.272,201.51 371.272,200.01 372.5,198.5 Z"/></g>
<g><path style="opacity:0.731" fill="#fefefe" d="M 608.5,229.5 C 612.673,228.956 616.506,229.623 620,231.5C 620.667,248.833 620.667,266.167 620,283.5C 616.663,286.527 612.83,287.193 608.5,285.5C 607.181,266.769 607.181,248.102 608.5,229.5 Z"/></g>
<g><path style="opacity:0.641" fill="#fefefe" d="M 629.5,230.5 C 639.612,229.142 642.612,232.976 638.5,242C 629.547,245.788 625.714,242.955 627,233.5C 627.698,232.309 628.531,231.309 629.5,230.5 Z"/></g>
<g><path style="opacity:0.635" fill="#fefefe" d="M 919.5,230.5 C 929.645,229.124 932.645,232.957 928.5,242C 919.763,245.586 915.93,242.752 917,233.5C 917.698,232.309 918.531,231.309 919.5,230.5 Z"/></g>
<g><path style="opacity:0.757" fill="#fefefe" d="M 389.5,231.5 C 395.122,231.691 400.456,233.024 405.5,235.5C 406.192,236.025 406.692,236.692 407,237.5C 409.368,248.021 406.202,250.188 397.5,244C 389.344,242.138 384.178,245.304 382,253.5C 379.8,262.039 381.967,269.205 388.5,275C 393.694,276.242 398.36,275.242 402.5,272C 404.134,271.506 405.801,271.34 407.5,271.5C 409.88,279.776 406.88,284.609 398.5,286C 378.553,288.56 368.22,279.726 367.5,259.5C 367.836,250.305 371.17,242.472 377.5,236C 381.503,234.151 385.503,232.651 389.5,231.5 Z"/></g>
<g><path style="opacity:0.754" fill="#fefefe" d="M 424.5,231.5 C 430.142,231.328 435.476,232.495 440.5,235C 442.657,238.271 442.99,241.771 441.5,245.5C 437.288,244.388 432.954,243.388 428.5,242.5C 422.905,244.187 422.238,247.021 426.5,251C 433.504,253.202 439.337,257.035 444,262.5C 446.706,278.142 440.039,286.475 424,287.5C 419.61,286.856 415.443,285.522 411.5,283.5C 410.007,281.636 409.34,279.47 409.5,277C 409.544,275.236 409.878,273.569 410.5,272C 414.693,273.816 419.193,274.982 424,275.5C 429.756,276.411 432.09,274.078 431,268.5C 425.482,265.331 419.982,262.164 414.5,259C 407.079,245.754 410.413,236.587 424.5,231.5 Z"/></g>
<g><path style="opacity:0.774" fill="#fefefe" d="M 529.5,231.5 C 549.06,230.066 559.06,239.066 559.5,258.5C 559.297,275.975 550.631,285.642 533.5,287.5C 519.744,287.569 511.577,280.903 509,267.5C 506.533,255.183 509.699,244.683 518.5,236C 522.266,234.441 525.932,232.941 529.5,231.5 Z M 528.5,243.5 C 537.13,241.077 542.63,244.077 545,252.5C 547.073,261.397 544.906,268.897 538.5,275C 530.797,277.564 525.63,275.064 523,267.5C 520.321,258.388 522.154,250.388 528.5,243.5 Z"/></g>
<g><path style="opacity:0.782" fill="#fefefe" d="M 453.5,232.5 C 463.111,231.778 472.444,232.945 481.5,236C 488.495,243.786 489.329,252.286 484,261.5C 478.293,266.804 471.46,269.137 463.5,268.5C 463.666,273.844 463.499,279.177 463,284.5C 459,287.167 455,287.167 451,284.5C 450.333,268.167 450.333,251.833 451,235.5C 451.698,234.309 452.531,233.309 453.5,232.5 Z M 463.5,243.5 C 469.279,242.336 472.945,244.502 474.5,250C 473.318,256.012 469.651,258.846 463.5,258.5C 463.5,253.5 463.5,248.5 463.5,243.5 Z"/></g>
<g><path style="opacity:0.78" fill="#fefefe" d="M 751.5,232.5 C 761.111,231.778 770.444,232.945 779.5,236C 786.082,243.279 787.249,251.446 783,260.5C 777.245,266.697 770.079,269.363 761.5,268.5C 761.666,273.844 761.499,279.177 761,284.5C 757.036,286.824 752.87,287.157 748.5,285.5C 748.333,268.83 748.5,252.163 749,235.5C 749.698,234.309 750.531,233.309 751.5,232.5 Z M 761.5,243.5 C 771.278,242.541 774.278,246.541 770.5,255.5C 767.972,257.874 764.972,258.874 761.5,258.5C 761.5,253.5 761.5,248.5 761.5,243.5 Z"/></g>
<g><path style="opacity:0.004" fill="#311022" d="M 40.5,53.5 C 41.6656,131.332 41.8323,209.332 41,287.5C 40.5,209.501 40.3333,131.501 40.5,53.5 Z"/></g>
<g><path style="opacity:0.776" fill="#fefefe" d="M 892.5,236.5 C 896.182,236.335 899.848,236.501 903.5,237C 904.451,240.057 904.784,243.223 904.5,246.5C 912.752,246.184 920.919,246.518 929,247.5C 929.833,260.18 929.666,272.846 928.5,285.5C 925.167,286.833 921.833,286.833 918.5,285.5C 917.502,275.856 917.168,266.19 917.5,256.5C 913.167,256.5 908.833,256.5 904.5,256.5C 904.5,262.833 904.5,269.167 904.5,275.5C 913.86,274.805 915.86,278.305 910.5,286C 906.5,286.667 902.5,286.667 898.5,286C 894.835,284.332 892.668,281.499 892,277.5C 891.5,270.508 891.334,263.508 891.5,256.5C 887.51,257.176 885.843,255.51 886.5,251.5C 885.843,247.49 887.51,245.824 891.5,246.5C 891.253,243.061 891.586,239.728 892.5,236.5 Z"/></g>
<g><path style="opacity:0.495" fill="#402c47" d="M 350.5,31.5 C 351.397,32.5981 352.23,32.5981 353,31.5C 354.039,32.2438 354.539,33.2438 354.5,34.5C 353.507,42.9839 353.174,51.6506 353.5,60.5C 352.502,85.3278 352.169,110.328 352.5,135.5C 352.5,150.833 352.5,166.167 352.5,181.5C 351.502,209.662 351.169,237.995 351.5,266.5C 351.5,285.5 351.5,304.5 351.5,323.5C 351.167,323.5 350.833,323.5 350.5,323.5C 351.026,226.145 351.026,128.811 350.5,31.5 Z"/></g>
<g><path style="opacity:0.984" fill="#32244f" d="M 340.5,28.5 C 344.116,28.8993 347.45,29.8993 350.5,31.5C 351.026,128.811 351.026,226.145 350.5,323.5C 350.879,328.297 350.379,332.964 349,337.5C 348.768,336.263 348.268,335.263 347.5,334.5C 348.658,234.521 348.824,134.521 348,34.5C 341.719,32.5612 335.553,30.5612 329.5,28.5C 332.994,27.6648 336.66,27.6648 340.5,28.5 Z"/></g>
<g><path style="opacity:0.758" fill="#fefefe" d="M 567.5,245.5 C 570.914,245.073 573.748,246.073 576,248.5C 582.904,244.579 589.738,244.579 596.5,248.5C 598.194,250.554 599.361,252.888 600,255.5C 600.667,265.167 600.667,274.833 600,284.5C 596,287.167 592,287.167 588,284.5C 587.667,275.833 587.333,267.167 587,258.5C 585.981,257.313 584.814,256.313 583.5,255.5C 580.906,256.592 578.739,258.259 577,260.5C 576.832,268.853 576.332,277.187 575.5,285.5C 571.853,286.648 568.186,286.648 564.5,285.5C 564.5,272.5 564.5,259.5 564.5,246.5C 565.791,246.737 566.791,246.404 567.5,245.5 Z"/></g>
<g><path style="opacity:0.767" fill="#fefefe" d="M 629.5,245.5 C 632.881,245.46 636.214,245.793 639.5,246.5C 639.5,259.5 639.5,272.5 639.5,285.5C 635.814,286.648 632.147,286.648 628.5,285.5C 628.167,279 627.833,272.5 627.5,266C 627.538,258.929 628.205,252.096 629.5,245.5 Z"/></g>
<g><path style="opacity:0.781" fill="#fefefe" d="M 648.5,245.5 C 652.401,244.857 655.734,245.857 658.5,248.5C 665.946,244.225 673.113,244.558 680,249.5C 680.667,251.5 681.333,253.5 682,255.5C 682.5,265.494 682.666,275.494 682.5,285.5C 678.814,286.648 675.147,286.648 671.5,285.5C 670.668,277.187 670.168,268.853 670,260.5C 669.027,258.36 667.527,256.693 665.5,255.5C 663.807,257.027 661.973,258.36 660,259.5C 659.667,267.833 659.333,276.167 659,284.5C 655.69,286.663 652.19,286.996 648.5,285.5C 647.187,272.104 647.187,258.771 648.5,245.5 Z"/></g>
<g><path style="opacity:0.747" fill="#fefefe" d="M 700.5,245.5 C 706.732,244.939 712.732,245.772 718.5,248C 724.547,254.23 725.881,261.23 722.5,269C 715.174,269.5 707.841,269.666 700.5,269.5C 700.444,272.561 701.778,274.728 704.5,276C 709.939,276.636 715.272,276.136 720.5,274.5C 721.086,274.709 721.586,275.043 722,275.5C 722.777,278.429 722.61,281.263 721.5,284C 711.905,288.671 702.571,288.337 693.5,283C 687.842,276.17 686.009,268.336 688,259.5C 689.954,252.72 694.12,248.053 700.5,245.5 Z M 704.5,254.5 C 709.186,253.984 711.519,255.984 711.5,260.5C 707.774,260.823 704.107,260.489 700.5,259.5C 701.16,257.185 702.493,255.519 704.5,254.5 Z"/></g>
<g><path style="opacity:0.733" fill="#fefefe" d="M 792.5,245.5 C 796.287,244.814 799.454,245.814 802,248.5C 802.833,247.667 803.667,246.833 804.5,246C 815.167,243 818.5,246.667 814.5,257C 812.623,257.576 810.789,257.409 809,256.5C 807.056,257.439 805.389,258.773 804,260.5C 803.667,268.5 803.333,276.5 803,284.5C 798.969,287.065 794.969,287.065 791,284.5C 790.333,272.167 790.333,259.833 791,247.5C 791.717,246.956 792.217,246.289 792.5,245.5 Z"/></g>
<g><path style="opacity:0.755" fill="#fefefe" d="M 825.5,245.5 C 830.511,245.334 835.511,245.501 840.5,246C 845.79,246.958 848.624,250.124 849,255.5C 849.667,265.167 849.667,274.833 849,284.5C 846.503,286.478 843.669,286.978 840.5,286C 839.874,285.25 839.374,284.416 839,283.5C 830.619,288.828 822.952,287.828 816,280.5C 812.822,270.378 816.322,264.211 826.5,262C 830.152,261.501 833.818,261.335 837.5,261.5C 837.528,259.418 836.861,257.584 835.5,256C 830.105,254.869 825.105,255.702 820.5,258.5C 819.558,258.392 818.725,258.059 818,257.5C 816.195,254.789 816.195,252.122 818,249.5C 820.417,247.872 822.917,246.539 825.5,245.5 Z M 832.5,269.5 C 834.167,269.5 835.833,269.5 837.5,269.5C 837.413,273.762 835.246,276.429 831,277.5C 828.942,276.942 827.775,275.609 827.5,273.5C 828.662,271.462 830.328,270.128 832.5,269.5 Z"/></g>
<g><path style="opacity:0.748" fill="#fefefe" d="M 867.5,245.5 C 871.514,245.334 875.514,245.501 879.5,246C 885.807,248.742 887.141,253.075 883.5,259C 880.407,257.978 877.24,256.811 874,255.5C 870.691,256.142 868.691,258.142 868,261.5C 865.75,275.108 870.583,278.774 882.5,272.5C 883.442,272.608 884.275,272.941 885,273.5C 887.13,280.077 884.964,284.244 878.5,286C 862.929,288.723 854.929,282.223 854.5,266.5C 854.065,256.341 858.398,249.341 867.5,245.5 Z"/></g>
<g><path style="opacity:0.749" fill="#fefefe" d="M 947.5,245.5 C 952.848,245.041 958.015,245.708 963,247.5C 964.949,248.958 965.782,250.958 965.5,253.5C 965.782,256.042 964.949,258.042 963,259.5C 953.877,252.484 948.71,254.651 947.5,266C 947.956,275.75 952.29,278.084 960.5,273C 962.134,272.506 963.801,272.34 965.5,272.5C 965.665,275.85 965.498,279.183 965,282.5C 963.2,284.317 961.034,285.484 958.5,286C 949.445,288.428 942.278,285.928 937,278.5C 935.443,271.247 935.11,263.914 936,256.5C 938.412,251.252 942.246,247.586 947.5,245.5 Z"/></g>
<g><path style="opacity:0.754" fill="#fefefe" d="M 981.5,245.5 C 996.334,242.714 1004.33,248.714 1005.5,263.5C 1004.91,265.382 1004.24,267.215 1003.5,269C 995.833,269.333 988.167,269.667 980.5,270C 981.473,272.635 983.14,274.635 985.5,276C 991.259,276.395 996.925,276.061 1002.5,275C 1003.83,278 1003.83,281 1002.5,284C 995.213,286.833 987.88,287.499 980.5,286C 973.791,283.957 969.957,279.457 969,272.5C 967.609,265.001 968.776,258.001 972.5,251.5C 975.052,248.731 978.052,246.731 981.5,245.5 Z M 985.5,254.5 C 989.86,254.286 992.193,256.286 992.5,260.5C 988.774,260.823 985.107,260.489 981.5,259.5C 982.16,257.185 983.493,255.519 985.5,254.5 Z"/></g>
<g><path style="opacity:0.007" fill="#080108" d="M 41.5,293.5 C 42.6611,308.328 42.8277,323.328 42,338.5C 41.5001,323.504 41.3334,308.504 41.5,293.5 Z"/></g>
<g><path style="opacity:0.666" fill="#fefefe" d="M 596.5,327.5 C 605.975,324.819 609.808,328.152 608,337.5C 596.447,342.776 592.614,339.443 596.5,327.5 Z"/></g>
<g><path style="opacity:0.776" fill="#fefefe" d="M 479.5,329.5 C 489.19,329.168 498.856,329.502 508.5,330.5C 509.795,333.366 509.795,336.199 508.5,339C 502.509,339.499 496.509,339.666 490.5,339.5C 490.5,343.167 490.5,346.833 490.5,350.5C 495.511,350.334 500.511,350.501 505.5,351C 506.833,354 506.833,357 505.5,360C 500.511,360.499 495.511,360.666 490.5,360.5C 490.5,364.167 490.5,367.833 490.5,371.5C 495.844,371.334 501.177,371.501 506.5,372C 507.416,372.374 508.25,372.874 509,373.5C 509.777,376.429 509.61,379.263 508.5,382C 498.256,382.819 488.09,382.652 478,381.5C 477.333,364.833 477.333,348.167 478,331.5C 478.717,330.956 479.217,330.289 479.5,329.5 Z"/></g>
<g><path style="opacity:0.764" fill="#fefefe" d="M 879.5,333.5 C 882.518,333.335 885.518,333.502 888.5,334C 889.451,337.057 889.784,340.223 889.5,343.5C 899.102,341.255 901.769,344.421 897.5,353C 894.854,353.497 892.187,353.664 889.5,353.5C 889.139,359.593 889.639,365.593 891,371.5C 893.476,371.768 895.976,372.102 898.5,372.5C 900.956,380.254 898.123,383.921 890,383.5C 884.875,384.105 881.208,382.105 879,377.5C 877.637,369.571 877.137,361.571 877.5,353.5C 873.42,353.919 871.42,352.086 871.5,348C 871.43,344.008 873.43,342.508 877.5,343.5C 877.06,339.821 877.727,336.488 879.5,333.5 Z"/></g>
<g><path style="opacity:0.016" fill="#3f083f" d="M 44.5,341.5 C 44.6495,342.552 44.4828,343.552 44,344.5C 43.2599,343.251 43.4265,342.251 44.5,341.5 Z"/></g>
<g><path style="opacity:0.754" fill="#fefefe" d="M 518.5,342.5 C 520.527,342.338 522.527,342.505 524.5,343C 525.849,343.772 526.682,344.939 527,346.5C 527.374,345.584 527.874,344.75 528.5,344C 533.428,342.582 538.428,342.249 543.5,343C 547.488,344.448 549.988,347.281 551,351.5C 551.5,361.828 551.666,372.161 551.5,382.5C 547.814,383.648 544.147,383.648 540.5,382.5C 539.668,373.852 539.168,365.186 539,356.5C 535.787,351.411 532.454,351.411 529,356.5C 528.667,364.833 528.333,373.167 528,381.5C 523.969,384.065 519.969,384.065 516,381.5C 515.5,368.838 515.333,356.171 515.5,343.5C 516.791,343.737 517.791,343.404 518.5,342.5 Z"/></g>
<g><path style="opacity:0.75" fill="#fefefe" d="M 555.5,342.5 C 559.257,342.071 562.757,342.737 566,344.5C 568.614,352.066 570.947,359.733 573,367.5C 575.279,359.5 577.446,351.5 579.5,343.5C 583.833,342.167 588.167,342.167 592.5,343.5C 589.265,356.706 584.931,369.539 579.5,382C 574.861,383.932 570.194,383.932 565.5,382C 561.043,370.182 557.043,358.182 553.5,346C 553.862,344.566 554.528,343.399 555.5,342.5 Z"/></g>
<g><path style="opacity:0.719" fill="#fefefe" d="M 598.5,342.5 C 602.244,341.973 605.411,342.973 608,345.5C 608.667,357.167 608.667,368.833 608,380.5C 604.318,383.999 600.318,384.333 596,381.5C 595.5,368.838 595.333,356.171 595.5,343.5C 596.791,343.737 597.791,343.404 598.5,342.5 Z"/></g>
<g><path style="opacity:0.766" fill="#fefefe" d="M 617.5,342.5 C 621.013,341.876 623.847,342.876 626,345.5C 629.681,342.64 633.848,341.807 638.5,343C 639.98,344.299 640.646,345.966 640.5,348C 640.212,350.187 639.878,352.354 639.5,354.5C 634.422,352.359 630.588,353.692 628,358.5C 627.667,366.167 627.333,373.833 627,381.5C 623.69,383.663 620.19,383.996 616.5,382.5C 616.167,376 615.833,369.5 615.5,363C 615.538,355.929 616.205,349.096 617.5,342.5 Z"/></g>
<g><path style="opacity:0.77" fill="#fefefe" d="M 653.5,342.5 C 675.402,340.283 683.902,349.95 679,371.5C 677.567,376.598 674.4,380.098 669.5,382C 645.849,386.681 636.683,377.181 642,353.5C 644.391,348.275 648.224,344.608 653.5,342.5 Z M 659.5,351.5 C 665.034,352.862 667.701,356.362 667.5,362C 668.116,367.949 665.616,371.782 660,373.5C 655.195,371.747 652.695,368.247 652.5,363C 653.13,360.11 653.963,357.276 655,354.5C 656.409,353.219 657.909,352.219 659.5,351.5 Z"/></g>
<g><path style="opacity:0.761" fill="#fefefe" d="M 687.5,342.5 C 689.857,342.337 692.19,342.503 694.5,343C 695.667,343.5 696.5,344.333 697,345.5C 702.908,342.193 709.075,341.693 715.5,344C 717.378,345.543 718.878,347.376 720,349.5C 721.443,360.131 721.776,370.798 721,381.5C 717,384.167 713,384.167 709,381.5C 708.667,372.833 708.333,364.167 708,355.5C 707.3,353.968 706.134,352.968 704.5,352.5C 701.906,353.592 699.739,355.259 698,357.5C 697.5,365.827 697.334,374.16 697.5,382.5C 693.457,384.154 689.623,383.821 686,381.5C 685.833,375.167 685.667,368.833 685.5,362.5C 685.539,355.595 686.206,348.929 687.5,342.5 Z"/></g>
<g><path style="opacity:0.778" fill="#fefefe" d="M 731.5,342.5 C 734.914,342.073 737.748,343.073 740,345.5C 745.841,342.121 752.008,341.621 758.5,344C 759.701,344.903 760.535,346.069 761,347.5C 762.637,345.19 764.804,343.69 767.5,343C 772.257,342.19 776.924,342.524 781.5,344C 784.142,346.576 785.642,349.743 786,353.5C 786.667,362.833 786.667,372.167 786,381.5C 782.69,383.663 779.19,383.996 775.5,382.5C 774.668,374.521 774.168,366.521 774,358.5C 771.448,350.897 768.115,350.564 764,357.5C 763.667,365.5 763.333,373.5 763,381.5C 759.69,383.663 756.19,383.996 752.5,382.5C 751.668,373.852 751.168,365.186 751,356.5C 750.333,354.5 749,353.167 747,352.5C 744.708,353.79 742.708,355.457 741,357.5C 740.667,365.5 740.333,373.5 740,381.5C 736.377,383.821 732.543,384.154 728.5,382.5C 728.5,369.5 728.5,356.5 728.5,343.5C 729.791,343.737 730.791,343.404 731.5,342.5 Z"/></g>
<g><path style="opacity:0.747" fill="#fefefe" d="M 803.5,342.5 C 810.042,341.989 816.376,342.822 822.5,345C 828.308,351.217 829.641,358.217 826.5,366C 819.174,366.5 811.841,366.666 804.5,366.5C 803.974,369.808 805.307,371.974 808.5,373C 814.587,373.469 820.587,372.969 826.5,371.5C 828.244,377.938 825.91,381.772 819.5,383C 797.667,386.5 788.5,377.333 792,355.5C 793.299,352.853 794.632,350.186 796,347.5C 798.426,345.548 800.926,343.881 803.5,342.5 Z M 807.5,351.5 C 812.836,350.185 815.503,352.185 815.5,357.5C 811.833,357.5 808.167,357.5 804.5,357.5C 804.615,355.053 805.615,353.053 807.5,351.5 Z"/></g>
<g><path style="opacity:0.753" fill="#fefefe" d="M 835.5,342.5 C 839.401,341.857 842.734,342.857 845.5,345.5C 850.45,342.667 855.784,341.834 861.5,343C 866.555,344.591 869.055,348.091 869,353.5C 869.818,363.078 869.651,372.578 868.5,382C 865.241,383.728 861.908,383.894 858.5,382.5C 857.668,374.187 857.168,365.853 857,357.5C 853.849,351.044 850.515,351.044 847,357.5C 846.667,365.5 846.333,373.5 846,381.5C 842,384.167 838,384.167 834,381.5C 833.833,375.167 833.667,368.833 833.5,362.5C 833.539,355.595 834.206,348.929 835.5,342.5 Z"/></g>
<g><path style="opacity:0.012" fill="#000055" d="M 342.5,357.5 C 342.833,357.5 343.167,357.5 343.5,357.5C 343.315,358.17 342.981,358.17 342.5,357.5 Z"/></g>
<g><path style="opacity:0.012" fill="#000055" d="M 338.5,362.5 C 338.833,362.5 339.167,362.5 339.5,362.5C 339.315,363.17 338.981,363.17 338.5,362.5 Z"/></g>
<g><path style="opacity:0.007" fill="#13020d" d="M 54.5,359.5 C 54.5,360.167 54.8333,360.5 55.5,360.5C 55.5,361.167 55.8333,361.5 56.5,361.5C 56.5,362.167 56.8333,362.5 57.5,362.5C 57.5,363.167 57.8333,363.5 58.5,363.5C 58.5,364.167 58.8333,364.5 59.5,364.5C 59.5,365.167 59.8333,365.5 60.5,365.5C 60.5,366.167 60.8333,366.5 61.5,366.5C 61.5,367.167 61.8333,367.5 62.5,367.5C 62.1034,368.525 61.4368,368.692 60.5,368C 58.3333,365.833 56.1667,363.667 54,361.5C 53.3083,360.563 53.475,359.897 54.5,359.5 Z"/></g>
<g><path style="opacity:0.016" fill="#3e003f" d="M 328.5,372.5 C 328.833,372.5 329.167,372.5 329.5,372.5C 329.315,373.17 328.981,373.17 328.5,372.5 Z"/></g>
<g><path style="opacity:0.016" fill="#3e003f" d="M 327.5,373.5 C 327.833,373.5 328.167,373.5 328.5,373.5C 328.315,374.17 327.981,374.17 327.5,373.5 Z"/></g>
<g><path style="opacity:0.016" fill="#3e003f" d="M 326.5,374.5 C 326.833,374.5 327.167,374.5 327.5,374.5C 327.315,375.17 326.981,375.17 326.5,374.5 Z"/></g>
<g><path style="opacity:0.016" fill="#3e003f" d="M 325.5,375.5 C 325.833,375.5 326.167,375.5 326.5,375.5C 326.315,376.17 325.981,376.17 325.5,375.5 Z"/></g>
<g><path style="opacity:0.012" fill="#540055" d="M 324.5,376.5 C 324.833,376.5 325.167,376.5 325.5,376.5C 325.315,377.17 324.981,377.17 324.5,376.5 Z"/></g>
<g><path style="opacity:0.008" fill="#7e007f" d="M 323.5,377.5 C 323.833,377.5 324.167,377.5 324.5,377.5C 324.315,378.17 323.981,378.17 323.5,377.5 Z"/></g>
<g><path style="opacity:0.016" fill="#3e003f" d="M 321.5,378.5 C 322.833,379.167 322.833,379.167 321.5,378.5 Z"/></g>
<g><path style="opacity:0.004" fill="#100020" d="M 319.5,380.5 C 319.5,380.167 319.5,379.833 319.5,379.5C 320.167,379.5 320.833,379.5 321.5,379.5C 321.158,380.338 320.492,380.672 319.5,380.5 Z"/></g>
<g><path style="opacity:0.012" fill="#540055" d="M 80.5,380.5 C 79.8333,381.167 79.8333,381.167 80.5,380.5 Z"/></g>
<g><path style="opacity:0.988" fill="#39244a" d="M 44.5,33.5 C 44.1667,134.502 44.5,235.502 45.5,336.5C 46.1067,336.376 46.44,336.043 46.5,335.5C 46.8333,335.5 47.1667,335.5 47.5,335.5C 52.403,353.246 63.0697,366.412 79.5,375C 89.9394,381.034 100.939,385.701 112.5,389C 140.656,396.58 168.822,404.08 197,411.5C 227.154,402.444 257.654,394.61 288.5,388C 306.993,383.34 322.827,374.173 336,360.5C 341.748,352.671 345.581,344.005 347.5,334.5C 348.268,335.263 348.768,336.263 349,337.5C 350.379,332.964 350.879,328.297 350.5,323.5C 350.833,323.5 351.167,323.5 351.5,323.5C 353.549,336.003 350.883,347.336 343.5,357.5C 343.167,356.167 342.833,356.167 342.5,357.5C 341.167,357.833 341.167,358.167 342.5,358.5C 342.262,360.404 341.262,361.738 339.5,362.5C 339.167,361.167 338.833,361.167 338.5,362.5C 337.167,362.833 337.167,363.167 338.5,363.5C 336.5,367.5 333.5,370.5 329.5,372.5C 329.167,371.167 328.833,371.167 328.5,372.5C 327.833,372.5 327.5,372.833 327.5,373.5C 326.833,373.5 326.5,373.833 326.5,374.5C 325.833,374.5 325.5,374.833 325.5,375.5C 324.833,375.5 324.5,375.833 324.5,376.5C 323.833,376.5 323.5,376.833 323.5,377.5C 322.508,377.328 321.842,377.662 321.5,378.5C 320.508,378.328 319.842,378.662 319.5,379.5C 318.833,379.5 318.5,379.833 318.5,380.5C 317.508,380.328 316.842,380.662 316.5,381.5C 315.508,381.328 314.842,381.662 314.5,382.5C 313.508,382.328 312.842,382.662 312.5,383.5C 311.508,383.328 310.842,383.662 310.5,384.5C 309.508,384.328 308.842,384.662 308.5,385.5C 307.508,385.328 306.842,385.662 306.5,386.5C 304.901,386.232 303.568,386.566 302.5,387.5C 301.209,387.263 300.209,387.596 299.5,388.5C 298.209,388.263 297.209,388.596 296.5,389.5C 294.901,389.232 293.568,389.566 292.5,390.5C 291.209,390.263 290.209,390.596 289.5,391.5C 287.901,391.232 286.568,391.566 285.5,392.5C 283.901,392.232 282.568,392.566 281.5,393.5C 280.209,393.263 279.209,393.596 278.5,394.5C 276.901,394.232 275.568,394.566 274.5,395.5C 272.901,395.232 271.568,395.566 270.5,396.5C 268.901,396.232 267.568,396.566 266.5,397.5C 264.901,397.232 263.568,397.566 262.5,398.5C 261.209,398.263 260.209,398.596 259.5,399.5C 257.901,399.232 256.568,399.566 255.5,400.5C 253.901,400.232 252.568,400.566 251.5,401.5C 249.901,401.232 248.568,401.566 247.5,402.5C 244.848,402.41 242.515,403.076 240.5,404.5C 238.901,404.232 237.568,404.566 236.5,405.5C 234.901,405.232 233.568,405.566 232.5,406.5C 230.901,406.232 229.568,406.566 228.5,407.5C 227.209,407.263 226.209,407.596 225.5,408.5C 223.901,408.232 222.568,408.566 221.5,409.5C 219.901,409.232 218.568,409.566 217.5,410.5C 215.901,410.232 214.568,410.566 213.5,411.5C 212.209,411.263 211.209,411.596 210.5,412.5C 202.167,413.833 193.833,413.833 185.5,412.5C 168.433,407.231 151.1,402.565 133.5,398.5C 121.329,394.87 108.996,391.37 96.5,388C 91.2655,385.215 85.9321,382.715 80.5,380.5C 74.5235,376.199 68.5235,371.865 62.5,367.5C 61.8333,367.5 61.5,367.167 61.5,366.5C 60.8333,366.5 60.5,366.167 60.5,365.5C 59.8333,365.5 59.5,365.167 59.5,364.5C 58.8333,364.5 58.5,364.167 58.5,363.5C 57.8333,363.5 57.5,363.167 57.5,362.5C 56.8333,362.5 56.5,362.167 56.5,361.5C 55.8333,361.5 55.5,361.167 55.5,360.5C 54.8333,360.5 54.5,360.167 54.5,359.5C 53.719,357.678 52.5523,357.011 51,357.5C 49.3333,354.833 47.6667,352.167 46,349.5C 45.2051,346.811 44.7051,344.144 44.5,341.5C 43.5399,323.534 43.2066,305.534 43.5,287.5C 43.1673,202.665 43.5007,117.998 44.5,33.5 Z"/></g>
<g><path style="opacity:0.012" fill="#540055" d="M 318.5,380.5 C 318.833,380.5 319.167,380.5 319.5,380.5C 319.315,381.17 318.981,381.17 318.5,380.5 Z"/></g>
<g><path style="opacity:0.012" fill="#540055" d="M 316.5,381.5 C 317.833,382.167 317.833,382.167 316.5,381.5 Z"/></g>
<g><path style="opacity:0.008" fill="#000000" d="M 314.5,383.5 C 314.5,383.167 314.5,382.833 314.5,382.5C 315.167,382.5 315.833,382.5 316.5,382.5C 316.158,383.338 315.492,383.672 314.5,383.5 Z"/></g>
<g><path style="opacity:0.008" fill="#541053" d="M 312.5,384.5 C 312.5,384.167 312.5,383.833 312.5,383.5C 313.167,383.5 313.833,383.5 314.5,383.5C 314.158,384.338 313.492,384.672 312.5,384.5 Z"/></g>
<g><path style="opacity:0.012" fill="#3a0a39" d="M 310.5,385.5 C 310.5,385.167 310.5,384.833 310.5,384.5C 311.167,384.5 311.833,384.5 312.5,384.5C 312.158,385.338 311.492,385.672 310.5,385.5 Z"/></g>
<g><path style="opacity:0.012" fill="#3a0a39" d="M 308.5,386.5 C 308.5,386.167 308.5,385.833 308.5,385.5C 309.167,385.5 309.833,385.5 310.5,385.5C 310.158,386.338 309.492,386.672 308.5,386.5 Z"/></g>
<g><path style="opacity:0.008" fill="#680068" d="M 306.5,387.5 C 306.5,387.167 306.5,386.833 306.5,386.5C 307.167,386.5 307.833,386.5 308.5,386.5C 308.158,387.338 307.492,387.672 306.5,387.5 Z"/></g>
<g><path style="opacity:0.016" fill="#340b33" d="M 302.5,388.5 C 302.5,388.167 302.5,387.833 302.5,387.5C 303.833,387.5 305.167,387.5 306.5,387.5C 305.432,388.434 304.099,388.768 302.5,388.5 Z"/></g>
<g><path style="opacity:0.016" fill="#280535" d="M 299.5,389.5 C 299.5,389.167 299.5,388.833 299.5,388.5C 300.5,388.5 301.5,388.5 302.5,388.5C 301.791,389.404 300.791,389.737 299.5,389.5 Z"/></g>
<g><path style="opacity:0.012" fill="#2f083a" d="M 296.5,390.5 C 296.5,390.167 296.5,389.833 296.5,389.5C 297.5,389.5 298.5,389.5 299.5,389.5C 298.791,390.404 297.791,390.737 296.5,390.5 Z"/></g>
<g><path style="opacity:0.016" fill="#250733" d="M 292.5,391.5 C 292.5,391.167 292.5,390.833 292.5,390.5C 293.833,390.5 295.167,390.5 296.5,390.5C 295.432,391.434 294.099,391.768 292.5,391.5 Z"/></g>
<g><path style="opacity:0.012" fill="#320640" d="M 289.5,392.5 C 289.5,392.167 289.5,391.833 289.5,391.5C 290.5,391.5 291.5,391.5 292.5,391.5C 291.791,392.404 290.791,392.737 289.5,392.5 Z"/></g>
<g><path style="opacity:0.016" fill="#22062c" d="M 285.5,393.5 C 285.5,393.167 285.5,392.833 285.5,392.5C 286.833,392.5 288.167,392.5 289.5,392.5C 288.432,393.434 287.099,393.768 285.5,393.5 Z"/></g>
<g><path style="opacity:0.016" fill="#2c092b" d="M 281.5,394.5 C 281.5,394.167 281.5,393.833 281.5,393.5C 282.833,393.5 284.167,393.5 285.5,393.5C 284.432,394.434 283.099,394.768 281.5,394.5 Z"/></g>
<g><path style="opacity:0.012" fill="#2f083a" d="M 278.5,395.5 C 278.5,395.167 278.5,394.833 278.5,394.5C 279.5,394.5 280.5,394.5 281.5,394.5C 280.791,395.404 279.791,395.737 278.5,395.5 Z"/></g>
<g><path style="opacity:0.016" fill="#270443" d="M 274.5,396.5 C 274.5,396.167 274.5,395.833 274.5,395.5C 275.833,395.5 277.167,395.5 278.5,395.5C 277.432,396.434 276.099,396.768 274.5,396.5 Z"/></g>
<g><path style="opacity:0.016" fill="#340b33" d="M 270.5,397.5 C 270.5,397.167 270.5,396.833 270.5,396.5C 271.833,396.5 273.167,396.5 274.5,396.5C 273.432,397.434 272.099,397.768 270.5,397.5 Z"/></g>
<g><path style="opacity:0.016" fill="#2c092b" d="M 266.5,398.5 C 266.5,398.167 266.5,397.833 266.5,397.5C 267.833,397.5 269.167,397.5 270.5,397.5C 269.432,398.434 268.099,398.768 266.5,398.5 Z"/></g>
<g><path style="opacity:0.012" fill="#300a30" d="M 133.5,398.5 C 133.5,398.833 133.5,399.167 133.5,399.5C 128.167,399.167 128.167,398.833 133.5,398.5 Z"/></g>
<g><path style="opacity:0.016" fill="#2c092b" d="M 262.5,399.5 C 262.5,399.167 262.5,398.833 262.5,398.5C 263.833,398.5 265.167,398.5 266.5,398.5C 265.432,399.434 264.099,399.768 262.5,399.5 Z"/></g>
<g><path style="opacity:0.012" fill="#2f083a" d="M 133.5,399.5 C 134.552,399.351 135.552,399.517 136.5,400C 135.251,400.74 134.251,400.573 133.5,399.5 Z"/></g>
<g><path style="opacity:0.012" fill="#5dfe3c" d="M 259.5,400.5 C 259.5,400.167 259.5,399.833 259.5,399.5C 260.5,399.5 261.5,399.5 262.5,399.5C 261.791,400.404 260.791,400.737 259.5,400.5 Z"/></g>
<g><path style="opacity:0.016" fill="#340b33" d="M 255.5,401.5 C 255.5,401.167 255.5,400.833 255.5,400.5C 256.833,400.5 258.167,400.5 259.5,400.5C 258.432,401.434 257.099,401.768 255.5,401.5 Z"/></g>
<g><path style="opacity:0.016" fill="#340b33" d="M 251.5,402.5 C 251.5,402.167 251.5,401.833 251.5,401.5C 252.833,401.5 254.167,401.5 255.5,401.5C 254.432,402.434 253.099,402.768 251.5,402.5 Z"/></g>
<g><path style="opacity:1" fill="#e1ddcd" d="M 167.5,-0.5 C 170.167,-0.5 172.833,-0.5 175.5,-0.5C 137.902,11.4319 99.9023,22.5985 61.5,33C 57.9382,33.7389 54.7716,35.2389 52,37.5C 51.3333,134.5 51.3333,231.5 52,328.5C 56.0407,344.425 64.8741,356.925 78.5,366C 89.9351,373.55 102.268,379.216 115.5,383C 142.687,390.372 169.854,397.872 197,405.5C 224.753,396.52 252.919,389.02 281.5,383C 300.982,378.514 317.482,369.014 331,354.5C 337.007,346.486 340.673,337.486 342,327.5C 343.247,230.836 343.581,134.169 343,37.5C 341.174,35.821 339.008,34.6544 336.5,34C 296.622,22.9316 256.955,11.4316 217.5,-0.5C 221.5,-0.5 225.5,-0.5 229.5,-0.5C 262.408,10.0664 295.741,19.7331 329.5,28.5C 335.553,30.5612 341.719,32.5612 348,34.5C 348.824,134.521 348.658,234.521 347.5,334.5C 345.581,344.005 341.748,352.671 336,360.5C 322.827,374.173 306.993,383.34 288.5,388C 257.654,394.61 227.154,402.444 197,411.5C 168.822,404.08 140.656,396.58 112.5,389C 100.939,385.701 89.9394,381.034 79.5,375C 63.0697,366.412 52.403,353.246 47.5,335.5C 47.1691,234.763 47.5024,134.096 48.5,33.5C 51.1123,32.6295 53.779,31.9628 56.5,31.5C 93.7019,21.0378 130.702,10.3711 167.5,-0.5 Z"/></g>
<g><path style="opacity:1" fill="#2d214e" d="M 175.5,-0.5 C 180.167,-0.5 184.833,-0.5 189.5,-0.5C 144.913,12.4833 100.246,25.4833 55.5,38.5C 54.5,131.831 54.1667,225.164 54.5,318.5C 149.164,319.336 243.831,319.67 338.5,319.5C 338.988,225.832 339.655,132.165 340.5,38.5C 294.3,26.0583 248.3,13.0583 202.5,-0.5C 207.5,-0.5 212.5,-0.5 217.5,-0.5C 256.955,11.4316 296.622,22.9316 336.5,34C 339.008,34.6544 341.174,35.821 343,37.5C 343.581,134.169 343.247,230.836 342,327.5C 340.673,337.486 337.007,346.486 331,354.5C 317.482,369.014 300.982,378.514 281.5,383C 252.919,389.02 224.753,396.52 197,405.5C 169.854,397.872 142.687,390.372 115.5,383C 102.268,379.216 89.9351,373.55 78.5,366C 64.8741,356.925 56.0407,344.425 52,328.5C 51.3333,231.5 51.3333,134.5 52,37.5C 54.7716,35.2389 57.9382,33.7389 61.5,33C 99.9023,22.5985 137.902,11.4319 175.5,-0.5 Z"/></g>
<g><path style="opacity:1" fill="#d6d4dc" d="M 109.5,341.5 C 111.173,344.952 112.173,348.786 112.5,353C 114.441,353.743 116.274,353.576 118,352.5C 118.175,348.789 118.675,345.122 119.5,341.5C 120.833,346.833 122.167,346.833 123.5,341.5C 124.838,344.484 123.838,346.151 120.5,346.5C 122.057,353.442 119.39,356.275 112.5,355C 111.667,354.167 110.833,353.333 110,352.5C 109.501,348.848 109.335,345.182 109.5,341.5 Z"/></g>
<g><path style="opacity:1" fill="#dbd9df" d="M 159.5,341.5 C 161.857,341.337 164.19,341.503 166.5,342C 168.26,342.965 168.594,344.132 167.5,345.5C 165.056,341.979 162.222,341.645 159,344.5C 156.832,350.979 158.999,353.812 165.5,353C 166.973,352.29 167.64,351.124 167.5,349.5C 166.022,349.762 164.689,349.429 163.5,348.5C 165.396,347.534 167.396,347.201 169.5,347.5C 169.051,354.733 165.384,356.9 158.5,354C 155.598,349.501 155.932,345.335 159.5,341.5 Z"/></g>
<g><path style="opacity:1" fill="#d9d7dd" d="M 142.5,341.5 C 143.675,341.281 144.675,341.614 145.5,342.5C 147.138,345.304 148.971,347.971 151,350.5C 151.179,347.447 151.679,344.447 152.5,341.5C 153.833,346.167 153.833,350.833 152.5,355.5C 149.768,352.384 147.268,349.051 145,345.5C 144.824,348.882 144.324,352.215 143.5,355.5C 142.507,350.88 142.173,346.214 142.5,341.5 Z"/></g>
<g><path style="opacity:1" fill="#dbd9df" d="M 299.5,341.5 C 300.675,341.281 301.675,341.614 302.5,342.5C 304.138,345.304 305.971,347.971 308,350.5C 308.179,347.447 308.679,344.447 309.5,341.5C 310.833,346.167 310.833,350.833 309.5,355.5C 306.768,352.384 304.268,349.051 302,345.5C 301.824,348.882 301.324,352.215 300.5,355.5C 299.507,350.88 299.173,346.214 299.5,341.5 Z"/></g>
<g><path style="opacity:1" fill="#dedce2" d="M 273.5,341.5 C 275.785,342.957 277.618,344.957 279,347.5C 280.167,345.667 281.333,343.833 282.5,342C 283.332,341.312 283.998,341.479 284.5,342.5C 283.243,344.679 281.743,346.679 280,348.5C 279.814,350.9 279.314,353.234 278.5,355.5C 277.936,350.386 276.27,345.719 273.5,341.5 Z"/></g>
<g><path style="opacity:1" fill="#e2e0e6" d="M 202.5,341.5 C 205.777,341.216 208.943,341.549 212,342.5C 213.199,348.513 210.699,350.847 204.5,349.5C 204.799,351.604 204.466,353.604 203.5,355.5C 202.507,350.88 202.173,346.214 202.5,341.5 Z"/></g>
<g><path style="opacity:1" fill="#e0dee5" d="M 188.5,341.5 C 190.256,342.552 190.923,344.219 190.5,346.5C 192.833,346.5 195.167,346.5 197.5,346.5C 197.215,344.712 197.548,343.045 198.5,341.5C 199.833,346.167 199.833,350.833 198.5,355.5C 197.526,353.257 197.192,350.924 197.5,348.5C 195.167,348.5 192.833,348.5 190.5,348.5C 190.808,350.924 190.474,353.257 189.5,355.5C 188.507,350.88 188.173,346.214 188.5,341.5 Z"/></g>
<g><path style="opacity:1" fill="#726c85" d="M 296.5,341.5 C 297.043,341.56 297.376,341.893 297.5,342.5C 294.914,343.48 292.247,343.813 289.5,343.5C 289.5,344.5 289.5,345.5 289.5,346.5C 292.059,346.198 294.393,346.532 296.5,347.5C 293.833,347.5 291.167,347.5 288.5,347.5C 288.5,345.833 288.5,344.167 288.5,342.5C 291.385,342.806 294.052,342.473 296.5,341.5 Z"/></g>
<g><path style="opacity:1" fill="#787189" d="M 175.5,342.5 C 177.167,342.5 178.833,342.5 180.5,342.5C 180.833,358.5 181.167,358.5 181.5,342.5C 183.167,342.5 184.833,342.5 186.5,342.5C 185.432,343.434 184.099,343.768 182.5,343.5C 182.5,347.5 182.5,351.5 182.5,355.5C 181.5,355.5 180.5,355.5 179.5,355.5C 179.5,351.5 179.5,347.5 179.5,343.5C 177.901,343.768 176.568,343.434 175.5,342.5 Z"/></g>
<g><path style="opacity:1" fill="#767089" d="M 214.5,342.5 C 216.167,342.5 217.833,342.5 219.5,342.5C 219.833,358.5 220.167,358.5 220.5,342.5C 222.167,342.5 223.833,342.5 225.5,342.5C 224.432,343.434 223.099,343.768 221.5,343.5C 221.5,347.5 221.5,351.5 221.5,355.5C 220.5,355.5 219.5,355.5 218.5,355.5C 218.5,351.5 218.5,347.5 218.5,343.5C 216.901,343.768 215.568,343.434 214.5,342.5 Z"/></g>
<g><path style="opacity:1" fill="#dedce2" d="M 234.5,341.5 C 236.857,341.337 239.19,341.503 241.5,342C 243.26,342.965 243.594,344.132 242.5,345.5C 239.57,341.562 236.737,341.562 234,345.5C 232.332,351.493 234.498,353.993 240.5,353C 241.047,352.075 241.713,351.242 242.5,350.5C 243.282,352.329 242.616,353.829 240.5,355C 234.403,356.279 231.403,353.779 231.5,347.5C 231.628,345.045 232.628,343.045 234.5,341.5 Z"/></g>
<g><path style="opacity:1" fill="#2b1f4b" d="M 204.5,343.5 C 206.527,343.338 208.527,343.505 210.5,344C 211.833,345 211.833,346 210.5,347C 208.527,347.495 206.527,347.662 204.5,347.5C 204.5,346.167 204.5,344.833 204.5,343.5 Z"/></g>
<g><path style="opacity:1" fill="#d6d4dc" d="M 130.5,337.5 C 132.855,339.963 135.522,342.296 138.5,344.5C 139.251,343.624 139.751,342.624 140,341.5C 140.167,342.167 140.333,342.833 140.5,343.5C 139.033,346.266 138.2,349.266 138,352.5C 131.222,357.572 127.056,355.905 125.5,347.5C 126.155,344.003 128.155,341.503 131.5,340C 130.748,339.329 130.414,338.496 130.5,337.5 Z"/></g>
<g><path style="opacity:1" fill="#2e224e" d="M 130.5,342.5 C 136.156,342.867 137.989,345.867 136,351.5C 129.534,355.056 126.868,353.056 128,345.5C 129.045,344.627 129.878,343.627 130.5,342.5 Z"/></g>
<g><path style="opacity:1" fill="#e9e7ec" d="M 83.5,342.5 C 89.5653,341.166 91.5653,341.166 89.5,342.5C 88.8333,359.833 88.1667,359.833 87.5,342.5C 86.1667,342.5 84.8333,342.5 83.5,342.5 Z"/></g>
<g><path style="opacity:1" fill="#e5e4e9" d="M 296.5,341.5 C 294.052,342.473 291.385,342.806 288.5,342.5C 288.5,344.167 288.5,345.833 288.5,347.5C 291.167,347.5 293.833,347.5 296.5,347.5C 294.052,348.473 291.385,348.806 288.5,348.5C 288.5,350.167 288.5,351.833 288.5,353.5C 291.572,353.183 294.572,353.516 297.5,354.5C 293.893,355.489 290.226,355.823 286.5,355.5C 286.5,350.833 286.5,346.167 286.5,341.5C 289.833,341.5 293.167,341.5 296.5,341.5 Z"/></g>
<g><path style="opacity:1" fill="#eeedf1" d="M 260.5,341.5 C 261.321,344.641 261.821,347.975 262,351.5C 264.333,354.167 266.667,354.167 269,351.5C 269.333,348.167 269.667,344.833 270,341.5C 270.667,345.5 270.667,349.5 270,353.5C 267,356.167 264,356.167 261,353.5C 260.501,349.514 260.334,345.514 260.5,341.5 Z"/></g>
<g><path style="opacity:1" fill="#cecbd4" d="M 246.5,341.5 C 248.256,342.552 248.923,344.219 248.5,346.5C 250.5,346.5 252.5,346.5 254.5,346.5C 254.5,344.833 254.5,343.167 254.5,341.5C 255.5,341.5 256.5,341.5 257.5,341.5C 257.827,346.214 257.493,350.88 256.5,355.5C 255.526,353.257 255.192,350.924 255.5,348.5C 252.833,348.5 250.167,348.5 247.5,348.5C 247.663,350.857 247.497,353.19 247,355.5C 246.501,350.845 246.334,346.179 246.5,341.5 Z"/></g>
<g><path style="opacity:1" fill="#fdfcfd" d="M 214.5,342.5 C 218.167,341.167 221.833,341.167 225.5,342.5C 223.833,342.5 222.167,342.5 220.5,342.5C 220.167,358.5 219.833,358.5 219.5,342.5C 217.833,342.5 216.167,342.5 214.5,342.5 Z"/></g>
<g><path style="opacity:1" fill="#fdfcfd" d="M 175.5,342.5 C 179.167,341.167 182.833,341.167 186.5,342.5C 184.833,342.5 183.167,342.5 181.5,342.5C 181.167,358.5 180.833,358.5 180.5,342.5C 178.833,342.5 177.167,342.5 175.5,342.5 Z"/></g>
<g><path style="opacity:1" fill="#dcdae0" d="M 95.5,341.5 C 99.1064,341.211 102.606,341.544 106,342.5C 107.14,345.528 106.306,347.695 103.5,349C 106.116,350.709 107.116,352.876 106.5,355.5C 104.937,354.055 103.604,352.389 102.5,350.5C 100.955,349.548 99.288,349.215 97.5,349.5C 97.7989,351.604 97.4656,353.604 96.5,355.5C 95.5067,350.88 95.1734,346.214 95.5,341.5 Z"/></g>
<g><path style="opacity:1" fill="#362c55" d="M 97.5,342.5 C 99.5273,342.338 101.527,342.505 103.5,343C 104.833,344.333 104.833,345.667 103.5,347C 101.527,347.495 99.5273,347.662 97.5,347.5C 97.5,345.833 97.5,344.167 97.5,342.5 Z"/></g>
<g><path style="opacity:1" fill="#cbc9d1" d="M 290.5,337.5 C 292.359,337.461 293.692,338.294 294.5,340C 293.065,339.689 291.732,339.855 290.5,340.5C 289.438,339.575 289.438,338.575 290.5,337.5 Z"/></g>
<g><path style="opacity:1" fill="#e8e0cc" d="M 189.5,-0.5 C 193.833,-0.5 198.167,-0.5 202.5,-0.5C 248.3,13.0583 294.3,26.0583 340.5,38.5C 339.655,132.165 338.988,225.832 338.5,319.5C 243.831,319.67 149.164,319.336 54.5,318.5C 54.1667,225.164 54.5,131.831 55.5,38.5C 100.246,25.4833 144.913,12.4833 189.5,-0.5 Z"/></g>
<g><path style="opacity:1" fill="#2b96d7" d="M 190.5,139.5 C 191.479,142.625 191.813,145.958 191.5,149.5C 190.532,147.393 190.198,145.059 190.5,142.5C 177.529,140.289 164.529,138.123 151.5,136C 139.409,135.027 127.409,135.527 115.5,137.5C 120.768,174.113 127.435,210.446 135.5,246.5C 158.328,250.265 180.661,255.932 202.5,263.5C 202.908,264.643 203.575,265.643 204.5,266.5C 206.687,264.578 209.02,262.912 211.5,261.5C 227.966,253.792 245.3,249.125 263.5,247.5C 264.966,236.368 266.966,225.368 269.5,214.5C 269.833,213.5 270.5,212.833 271.5,212.5C 272.124,212.917 272.457,213.584 272.5,214.5C 270.219,226.468 268.219,238.468 266.5,250.5C 254.107,251.176 242.107,253.676 230.5,258C 245.06,256.112 259.726,254.945 274.5,254.5C 278.94,236.191 283.274,217.858 287.5,199.5C 287.5,199.167 287.5,198.833 287.5,198.5C 291.296,184.32 294.962,169.987 298.5,155.5C 294.2,150.953 288.866,148.953 282.5,149.5C 280.508,161.787 278.841,174.12 277.5,186.5C 276.026,185.564 275.026,184.23 274.5,182.5C 276.407,168.486 278.407,154.486 280.5,140.5C 280.167,139.5 279.833,138.5 279.5,137.5C 265.511,134.88 251.511,134.88 237.5,137.5C 236.094,137.027 235.427,136.027 235.5,134.5C 251.814,131.875 268.147,131.875 284.5,134.5C 284.5,138.167 284.5,141.833 284.5,145.5C 288.049,145.439 291.382,146.273 294.5,148C 298.672,151.499 303.338,154.166 308.5,156C 311.148,157.633 312.481,159.967 312.5,163C 304.353,200.236 296.02,237.403 287.5,274.5C 260.085,266.968 232.251,264.968 204,268.5C 171.413,264.305 139.246,266.305 107.5,274.5C 97.9203,237.349 88.2537,200.183 78.5,163C 79.3338,160.152 81.0005,157.818 83.5,156C 89.944,153.89 95.944,150.89 101.5,147C 105.06,145.763 108.727,145.263 112.5,145.5C 111.54,141.805 111.54,138.139 112.5,134.5C 138.826,130.961 164.826,132.628 190.5,139.5 Z"/></g>
<g><path style="opacity:1" fill="#f8fcfb" d="M 269.5,214.5 C 266.966,225.368 264.966,236.368 263.5,247.5C 245.3,249.125 227.966,253.792 211.5,261.5C 230.458,245.356 249.791,229.69 269.5,214.5 Z"/></g>
<g><path style="opacity:1" fill="#f4fafb" d="M 287.5,199.5 C 283.274,217.858 278.94,236.191 274.5,254.5C 259.726,254.945 245.06,256.112 230.5,258C 242.107,253.676 254.107,251.176 266.5,250.5C 268.219,238.468 270.219,226.468 272.5,214.5C 272.457,213.584 272.124,212.917 271.5,212.5C 276.809,208.197 282.142,203.863 287.5,199.5 Z"/></g>
<g><path style="opacity:1" fill="#f5fafb" d="M 301.5,157.5 C 305.614,157.618 308.28,159.618 309.5,163.5C 300.703,199.019 292.703,234.686 285.5,270.5C 265.856,265.378 245.856,262.878 225.5,263C 242.607,259.19 259.94,257.69 277.5,258.5C 284.404,224.552 292.404,190.885 301.5,157.5 Z"/></g>
<g><path style="opacity:1" fill="#f9fcfc" d="M 86.5,157.5 C 88.5,157.5 90.5,157.5 92.5,157.5C 101.288,191.202 110.288,224.869 119.5,258.5C 138.947,258.532 158.28,260.032 177.5,263C 155.136,262.466 133.136,264.966 111.5,270.5C 111.167,270.167 110.833,269.833 110.5,269.5C 100.914,234.322 91.2469,199.155 81.5,164C 82.2831,161.062 83.9497,158.896 86.5,157.5 Z"/></g>
<g><path style="opacity:1" fill="#f8fcfc" d="M 287.5,198.5 C 283.82,194.817 280.486,190.817 277.5,186.5C 278.841,174.12 280.508,161.787 282.5,149.5C 288.866,148.953 294.2,150.953 298.5,155.5C 294.962,169.987 291.296,184.32 287.5,198.5 Z"/></g>
<g><path style="opacity:1" fill="#f7fbfc" d="M 103.5,149.5 C 106.833,149.5 110.167,149.5 113.5,149.5C 119.098,183.269 125.432,216.936 132.5,250.5C 146.055,251.815 159.388,254.315 172.5,258C 155.903,256.481 139.236,255.647 122.5,255.5C 113.866,222.131 104.533,188.964 94.5,156C 96.807,152.858 99.807,150.691 103.5,149.5 Z"/></g>
<g><path style="opacity:1" fill="#fdfefe" d="M 191.5,149.5 C 195.729,187.439 199.396,225.439 202.5,263.5C 180.661,255.932 158.328,250.265 135.5,246.5C 127.435,210.446 120.768,174.113 115.5,137.5C 127.409,135.527 139.409,135.027 151.5,136C 164.529,138.123 177.529,140.289 190.5,142.5C 190.198,145.059 190.532,147.393 191.5,149.5 Z"/></g>
<g><path style="opacity:1" fill="#fafdfd" d="M 274.5,182.5 C 261.796,167.796 249.462,152.796 237.5,137.5C 251.511,134.88 265.511,134.88 279.5,137.5C 279.833,138.5 280.167,139.5 280.5,140.5C 278.407,154.486 276.407,168.486 274.5,182.5 Z"/></g>
<g><path style="opacity:1" fill="#cc3125" d="M 308.5,98.5 C 312.161,98.4257 312.828,99.4257 310.5,101.5C 309.081,100.995 308.415,99.9953 308.5,98.5 Z"/></g>
<g><path style="opacity:1" fill="#d33526" d="M 331.5,91.5 C 333.686,91.5106 334.519,92.5106 334,94.5C 330.639,99.1956 326.805,103.029 322.5,106C 321.549,105.282 321.383,104.449 322,103.5C 325.381,99.625 328.547,95.625 331.5,91.5 Z"/></g>
<g><path style="opacity:1" fill="#d43628" d="M 315.5,81.5 C 318.777,81.2161 321.943,81.5495 325,82.5C 328.166,89.4459 326.666,94.9459 320.5,99C 311.115,99.6224 307.615,95.4557 310,86.5C 311.73,84.5981 313.563,82.9314 315.5,81.5 Z"/></g>
<g><path style="opacity:1" fill="#ecd9c5" d="M 315.5,85.5 C 323.457,84.9393 325.29,87.9393 321,94.5C 316.793,97.7443 313.96,96.9109 312.5,92C 312.84,89.4887 313.84,87.322 315.5,85.5 Z"/></g>
<g><path style="opacity:1" fill="#d53225" d="M 302.5,68.5 C 304.132,68.8247 305.132,69.8247 305.5,71.5C 304.485,75.1311 304.319,78.7978 305,82.5C 306.458,80.04 308.291,77.8734 310.5,76C 311.635,75.2506 312.635,75.4173 313.5,76.5C 310.453,81.2963 306.953,85.6296 303,89.5C 301.053,88.9561 300.22,87.6228 300.5,85.5C 302.931,74.6966 301.265,73.8632 295.5,83C 294.035,83.6013 293.035,83.1013 292.5,81.5C 295.857,77.148 299.191,72.8147 302.5,68.5 Z"/></g>
<g><path style="opacity:1" fill="#1eaa6e" d="M 235.5,134.5 C 235.427,136.027 236.094,137.027 237.5,137.5C 249.462,152.796 261.796,167.796 274.5,182.5C 275.026,184.23 276.026,185.564 277.5,186.5C 280.486,190.817 283.82,194.817 287.5,198.5C 287.5,198.833 287.5,199.167 287.5,199.5C 282.142,203.863 276.809,208.197 271.5,212.5C 270.5,212.833 269.833,213.5 269.5,214.5C 249.791,229.69 230.458,245.356 211.5,261.5C 209.02,262.912 206.687,264.578 204.5,266.5C 203.575,265.643 202.908,264.643 202.5,263.5C 199.396,225.439 195.729,187.439 191.5,149.5C 191.813,145.958 191.479,142.625 190.5,139.5C 188.613,118.137 186.779,96.8033 185,75.5C 197.667,90.8333 210.333,106.167 223,121.5C 226.738,126.367 230.905,130.7 235.5,134.5 Z"/></g>
<g><path style="opacity:1" fill="#dad7b8" d="M 229.5,202.5 C 230.496,202.414 231.329,202.748 232,203.5C 234.5,208 237,212.5 239.5,217C 233.804,217.83 228.137,217.663 222.5,216.5C 224.86,211.78 227.193,207.114 229.5,202.5 Z"/></g>
<g><path style="opacity:1" fill="#d4d8b6" d="M 236.5,178.5 C 238.722,178.178 240.556,178.845 242,180.5C 243.555,178.485 245.389,178.152 247.5,179.5C 244.893,182.563 245.226,185.396 248.5,188C 245.682,188.84 243.516,188.006 242,185.5C 240.475,188.087 238.308,188.92 235.5,188C 238.987,185.079 239.32,181.912 236.5,178.5 Z"/></g>
<g><path style="opacity:1" fill="#cfd5b2" d="M 229.5,174.5 C 230.833,174.5 232.167,174.5 233.5,174.5C 233.5,179.167 233.5,183.833 233.5,188.5C 231.136,187.471 228.803,187.471 226.5,188.5C 224.971,188.471 223.804,187.804 223,186.5C 221.167,180.481 223.334,177.814 229.5,178.5C 229.5,177.167 229.5,175.833 229.5,174.5 Z"/></g>
<g><path style="opacity:1" fill="#dcd7b7" d="M 207.5,148.5 C 214.35,147.297 217.183,149.963 216,156.5C 213.527,157.12 211.027,157.786 208.5,158.5C 213.745,174.146 217.412,190.146 219.5,206.5C 221.119,213.961 218.285,218.294 211,219.5C 206.918,218.841 205.584,216.508 207,212.5C 209.901,212.066 212.401,210.899 214.5,209C 211.865,200.094 209.031,191.261 206,182.5C 202.848,173.397 201.848,164.064 203,154.5C 204.277,152.253 205.777,150.253 207.5,148.5 Z"/></g>
<g><path style="opacity:1" fill="#d43225" d="M 75.5,67.5 C 76.4972,67.4701 77.1639,67.9701 77.5,69C 76.7113,70.6255 75.7113,72.1255 74.5,73.5C 76.6667,76.5 78.8333,79.5 81,82.5C 81.6987,84.0738 81.3654,85.4071 80,86.5C 77.1667,83 74.3333,79.5 71.5,76C 69.8374,75.7351 68.3374,76.2351 67,77.5C 66.3076,76.9747 65.8076,76.3081 65.5,75.5C 69.1654,73.1593 72.4988,70.4926 75.5,67.5 Z"/></g>
<g><path style="opacity:1" fill="#d43426" d="M 87.5,59.5 C 93.8026,59.9239 95.4692,62.7572 92.5,68C 95.4767,68.4813 98.1433,69.6479 100.5,71.5C 100,72.8805 99.0004,73.5472 97.5,73.5C 94.59,72.0272 91.59,71.1938 88.5,71C 87.3322,72.8709 87.8322,74.3709 90,75.5C 90.49,76.7932 90.6567,78.1266 90.5,79.5C 89.325,79.719 88.325,79.3857 87.5,78.5C 84.7023,74.4016 82.0357,70.2349 79.5,66C 82.0216,63.5834 84.6883,61.4167 87.5,59.5 Z"/></g>
<g><path style="opacity:1" fill="#eed7c2" d="M 86.5,63.5 C 87.8333,63.5 89.1667,63.5 90.5,63.5C 90.3739,66.4678 88.8739,68.4678 86,69.5C 82.6814,67.1549 82.8481,65.1549 86.5,63.5 Z"/></g>
<g><path style="opacity:1" fill="#d42f22" d="M 286.5,57.5 C 286.804,58.1499 287.137,58.8165 287.5,59.5C 286.583,65.1677 285.583,70.8344 284.5,76.5C 282.22,75.2451 281.053,73.2451 281,70.5C 279.745,69.7894 278.579,68.956 277.5,68C 275.822,68.1123 274.155,68.6123 272.5,69.5C 271.833,69.1667 271.167,68.8333 270.5,68.5C 274.327,64.8427 278.327,61.3427 282.5,58C 283.793,57.51 285.127,57.3433 286.5,57.5 Z"/></g>
<g><path style="opacity:1" fill="#f0d5c0" d="M 281.5,62.5 C 282.649,62.7911 283.316,63.6244 283.5,65C 282.83,67.8974 281.497,68.0641 279.5,65.5C 280.193,64.4822 280.859,63.4822 281.5,62.5 Z"/></g>
<g><path style="opacity:1" fill="#d43123" d="M 109.5,47.5 C 113.985,49.2743 114.652,52.1076 111.5,56C 115.08,64.7654 112.08,68.7654 102.5,68C 99.9075,64.1479 97.5742,60.1479 95.5,56C 95.7627,54.0543 96.7627,53.3877 98.5,54C 100.446,57.3897 102.279,60.8897 104,64.5C 107.114,66.1786 109.281,65.3452 110.5,62C 108.074,57.9831 106.074,53.8165 104.5,49.5C 107.272,49.5952 109.272,50.9285 110.5,53.5C 110.833,53 111.167,52.5 111.5,52C 110.293,50.6998 109.626,49.1998 109.5,47.5 Z"/></g>
<g><path style="opacity:1" fill="#d43728" d="M 117.5,38.5 C 121.733,40.1381 126.066,41.8048 130.5,43.5C 130.833,43.3333 131.167,43.1667 131.5,43C 129.963,41.8904 129.297,40.3904 129.5,38.5C 130.822,38.33 131.989,38.6634 133,39.5C 132.749,44.4569 132.749,49.4569 133,54.5C 126.725,61.6464 121.392,60.9797 117,52.5C 115.357,47.5724 116.857,44.0724 121.5,42C 119.456,41.5017 118.122,40.335 117.5,38.5 Z"/></g>
<g><path style="opacity:1" fill="#d43224" d="M 262.5,46.5 C 263.5,46.5 264.5,46.5 265.5,46.5C 265.414,48.677 264.747,50.677 263.5,52.5C 267.637,57.0864 270.303,56.4197 271.5,50.5C 273.346,50.2222 274.68,50.8888 275.5,52.5C 273.244,56.7543 271.077,61.0877 269,65.5C 267.989,66.3366 266.822,66.67 265.5,66.5C 265.724,64.2133 266.391,62.0466 267.5,60C 266.307,57.4035 264.307,56.4035 261.5,57C 260.782,58.9874 259.782,60.8208 258.5,62.5C 257.28,62.1131 256.613,61.2798 256.5,60C 258.103,55.2971 260.103,50.7971 262.5,46.5 Z"/></g>
<g><path style="opacity:1" fill="#d14b3d" d="M 286.5,57.5 C 285.566,55.7615 285.566,54.0948 286.5,52.5C 289.063,54.3354 289.063,56.0021 286.5,57.5 Z"/></g>
<g><path style="opacity:1" fill="#d53628" d="M 239.5,37.5 C 243.062,37.9652 246.395,39.1319 249.5,41C 252.311,44.2935 251.978,47.2935 248.5,50C 245.623,50.7249 242.957,50.2249 240.5,48.5C 238.914,50.1727 238.247,52.1727 238.5,54.5C 236.654,54.7778 235.32,54.1112 234.5,52.5C 236.771,47.6863 238.438,42.6863 239.5,37.5 Z"/></g>
<g><path style="opacity:1" fill="#ecddc9" d="M 122.5,44.5 C 128.133,44.9613 130.633,47.9613 130,53.5C 124.319,57.1977 121.153,55.6977 120.5,49C 120.759,47.2134 121.425,45.7134 122.5,44.5 Z"/></g>
<g><path style="opacity:1" fill="#d53729" d="M 147.5,33.5 C 148.5,33.5 149.5,33.5 150.5,33.5C 152.131,39.0577 153.131,44.7244 153.5,50.5C 148.757,49.4394 145.091,46.7727 142.5,42.5C 142.167,43 141.833,43.5 141.5,44C 142.994,46.6388 143.661,49.4721 143.5,52.5C 141.876,52.6399 140.71,51.9733 140,50.5C 138.988,46.1174 137.821,41.7841 136.5,37.5C 137.348,35.7172 138.681,35.2172 140.5,36C 143,38.5 145.5,41 148,43.5C 148.172,40.1745 148.005,36.8411 147.5,33.5 Z"/></g>
<g><path style="opacity:1" fill="#eed8c4" d="M 242.5,41.5 C 246.172,41.1826 247.838,42.8493 247.5,46.5C 245.5,46.5 243.5,46.5 241.5,46.5C 241.366,44.7085 241.699,43.0418 242.5,41.5 Z"/></g>
<g><path style="opacity:1" fill="#d53729" d="M 160.5,30.5 C 164.911,29.66 168.577,30.8267 171.5,34C 169.726,35.7557 168.059,35.7557 166.5,34C 159.463,33.694 157.629,36.8607 161,43.5C 164.598,46.4771 167.098,45.8104 168.5,41.5C 167.167,41.5 165.833,41.5 164.5,41.5C 164.5,40.5 164.5,39.5 164.5,38.5C 167.167,38.1667 169.833,37.8333 172.5,37.5C 172.777,40.4475 172.444,43.2809 171.5,46C 162.704,50.7682 157.371,48.2682 155.5,38.5C 155.672,34.8072 157.339,32.1406 160.5,30.5 Z"/></g>
<g><path style="opacity:1" fill="#d43426" d="M 223.5,33.5 C 229.468,32.6311 233.135,34.9644 234.5,40.5C 233.167,40.5 231.833,40.5 230.5,40.5C 230.143,36.6052 228.143,35.6052 224.5,37.5C 226.831,39.6596 229.331,41.6596 232,43.5C 232.944,46.3471 232.444,48.8471 230.5,51C 227.366,51.7901 224.366,51.4568 221.5,50C 219.845,48.5557 219.178,46.7224 219.5,44.5C 221.82,45.7242 224.153,47.0575 226.5,48.5C 228,48.5472 229,47.8805 229.5,46.5C 227.313,44.1505 224.813,42.1505 222,40.5C 221.167,37.829 221.667,35.4957 223.5,33.5 Z"/></g>
<g><path style="opacity:1" fill="#d53c2c" d="M 203.5,29.5 C 204.5,29.5 205.5,29.5 206.5,29.5C 206.5,32.1667 206.5,34.8333 206.5,37.5C 208.833,37.5 211.167,37.5 213.5,37.5C 213.5,35.1667 213.5,32.8333 213.5,30.5C 214.833,30.5 216.167,30.5 217.5,30.5C 216.443,36.4529 215.776,42.4529 215.5,48.5C 214.167,48.5 212.833,48.5 211.5,48.5C 211.575,45.7938 211.908,43.1272 212.5,40.5C 210.139,40.3259 207.806,39.9926 205.5,39.5C 205.007,41.8056 204.674,44.139 204.5,46.5C 203.5,46.5 202.5,46.5 201.5,46.5C 201.607,40.7515 202.274,35.0848 203.5,29.5 Z"/></g>
<g><path style="opacity:1" fill="#d53729" d="M 183.5,28.5 C 197.518,27.0754 201.518,32.5754 195.5,45C 191.637,46.3537 187.637,46.8537 183.5,46.5C 182.167,40.5 182.167,34.5 183.5,28.5 Z"/></g>
<g><path style="opacity:1" fill="#edd7c3" d="M 187.5,31.5 C 192.331,30.6671 194.664,32.6671 194.5,37.5C 194.664,42.3329 192.331,44.3329 187.5,43.5C 187.5,41.8333 187.5,40.1667 187.5,38.5C 191.5,37.8333 191.5,37.1667 187.5,36.5C 187.5,34.8333 187.5,33.1667 187.5,31.5 Z"/></g>
<g><path style="opacity:0.016" fill="#5e0731" d="M 247.5,403.5 C 247.5,403.167 247.5,402.833 247.5,402.5C 248.833,402.5 250.167,402.5 251.5,402.5C 250.432,403.434 249.099,403.768 247.5,403.5 Z"/></g>
<g><path style="opacity:0.012" fill="#793f76" d="M 247.5,403.5 C 246.749,404.573 245.749,404.74 244.5,404C 245.448,403.517 246.448,403.351 247.5,403.5 Z"/></g>
<g><path style="opacity:0.016" fill="#76ff3f" d="M 240.5,405.5 C 240.5,405.167 240.5,404.833 240.5,404.5C 244.5,404.833 244.5,405.167 240.5,405.5 Z"/></g>
<g><path style="opacity:0.004" fill="#44262b" d="M 236.5,406.5 C 236.5,406.167 236.5,405.833 236.5,405.5C 237.833,405.5 239.167,405.5 240.5,405.5C 239.432,406.434 238.099,406.768 236.5,406.5 Z"/></g>
<g><path style="opacity:0.016" fill="#5f2030" d="M 232.5,407.5 C 232.5,407.167 232.5,406.833 232.5,406.5C 233.833,406.5 235.167,406.5 236.5,406.5C 235.432,407.434 234.099,407.768 232.5,407.5 Z"/></g>
<g><path style="opacity:0.016" fill="#6d1b30" d="M 228.5,408.5 C 228.5,408.167 228.5,407.833 228.5,407.5C 229.833,407.5 231.167,407.5 232.5,407.5C 231.432,408.434 230.099,408.768 228.5,408.5 Z"/></g>
<g><path style="opacity:0.012" fill="#8b304a" d="M 225.5,409.5 C 225.5,409.167 225.5,408.833 225.5,408.5C 226.5,408.5 227.5,408.5 228.5,408.5C 227.791,409.404 226.791,409.737 225.5,409.5 Z"/></g>
<g><path style="opacity:0.016" fill="#5e0933" d="M 221.5,410.5 C 221.5,410.167 221.5,409.833 221.5,409.5C 222.833,409.5 224.167,409.5 225.5,409.5C 224.432,410.434 223.099,410.768 221.5,410.5 Z"/></g>
<g><path style="opacity:0.016" fill="#340b33" d="M 217.5,411.5 C 217.5,411.167 217.5,410.833 217.5,410.5C 218.833,410.5 220.167,410.5 221.5,410.5C 220.432,411.434 219.099,411.768 217.5,411.5 Z"/></g>
<g><path style="opacity:0.016" fill="#5e0731" d="M 213.5,412.5 C 213.5,412.167 213.5,411.833 213.5,411.5C 214.833,411.5 216.167,411.5 217.5,411.5C 216.432,412.434 215.099,412.768 213.5,412.5 Z"/></g>
<g><path style="opacity:0.008" fill="#1f073f" d="M 185.5,412.5 C 184.399,413.598 183.066,413.765 181.5,413C 182.793,412.51 184.127,412.343 185.5,412.5 Z"/></g>
<g><path style="opacity:0.016" fill="#4e004e" d="M 210.5,412.5 C 211.5,412.5 212.5,412.5 213.5,412.5C 212.5,413.833 211.5,413.833 210.5,412.5 Z"/></g>
</svg>
