<svg width="1201" height="429" viewBox="0 0 1201 429" fill="none" xmlns="http://www.w3.org/2000/svg">
<path d="M0 173.5H1186" stroke="#BFC5CE" stroke-opacity="0.9"/>
<line x1="177.5" y1="-2.18557e-08" x2="177.5" y2="348" stroke="#BFC5CE" stroke-opacity="0.9"/>
<path d="M290.991 60.0093C268.544 37.563 239.946 22.2769 208.812 16.084C177.678 9.89103 145.407 13.0695 116.079 25.2173C86.7517 37.3652 61.6851 57.9369 44.0491 84.331C26.4132 110.725 17 141.756 17 173.5C17 205.244 26.4132 236.275 44.0491 262.669C61.6851 289.063 86.7518 309.635 116.079 321.783C145.407 333.931 177.678 337.109 208.812 330.916C239.946 324.723 268.544 309.437 290.991 286.991L265.569 261.569C248.15 278.987 225.958 290.849 201.798 295.655C177.638 300.461 152.596 297.994 129.838 288.567C107.079 279.141 87.6276 263.177 73.9421 242.695C60.2566 222.213 52.952 198.133 52.952 173.5C52.952 148.867 60.2566 124.787 73.9421 104.305C87.6276 83.823 107.079 67.8594 129.838 58.4327C152.596 49.0059 177.638 46.5394 201.798 51.3451C225.958 56.1509 248.15 68.0129 265.569 85.4312L290.991 60.0093Z" fill="#EA4335"/>
<path d="M255.635 95.3647C245.374 85.1038 233.193 76.9644 219.787 71.4113C206.38 65.8582 192.011 63 177.5 63C162.989 63 148.62 65.8582 135.213 71.4113C121.807 76.9645 109.626 85.1038 99.3647 95.3647L115.101 111.101C123.295 102.907 133.024 96.4067 143.73 91.972C154.436 87.5372 165.911 85.2547 177.5 85.2547C189.089 85.2547 200.564 87.5372 211.27 91.972C221.976 96.4067 231.705 102.907 239.899 111.101L255.635 95.3647Z" fill="#FBBC05"/>
<path d="M255.635 251.635C234.913 272.358 206.806 284 177.5 284C148.194 284 120.087 272.358 99.3647 251.635L115.101 235.899C131.65 252.448 154.096 261.745 177.5 261.745C200.904 261.745 223.35 252.448 239.899 235.899L255.635 251.635Z" fill="#FBBC05"/>
<path d="M124.821 120.821C138.792 106.849 157.741 99 177.5 99C197.259 99 216.208 106.849 230.179 120.821L177.5 173.5L124.821 120.821Z" fill="#4285F4"/>
<line x1="100.876" y1="94.1327" x2="257.075" y2="250.332" stroke="#34A853" stroke-width="5"/>
<path d="M89.2841 401.768C86.5961 401.768 84.2441 401.24 82.2281 400.184C80.2441 399.096 78.6921 397.48 77.5721 395.336C76.4521 393.192 75.8921 390.552 75.8921 387.416C75.8921 384.536 76.3401 381.896 77.2361 379.496C78.1641 377.064 79.4601 374.968 81.1241 373.208C82.7881 371.416 84.7721 370.04 87.0761 369.08C89.3801 368.088 91.9401 367.592 94.7561 367.592C97.3801 367.592 99.3481 367.88 100.66 368.456C101.972 369 102.628 369.992 102.628 371.432C102.628 372.2 102.484 372.856 102.196 373.4C101.94 373.944 101.652 374.216 101.332 374.216C101.044 374.216 100.708 374.12 100.324 373.928C99.9721 373.736 99.5721 373.528 99.1241 373.304C98.3561 372.92 97.5081 372.52 96.5801 372.104C95.6841 371.656 94.4841 371.432 92.9801 371.432C91.0281 371.432 89.2361 372.072 87.6041 373.352C86.0041 374.632 84.7081 376.408 83.7161 378.68C82.7561 380.92 82.2761 383.544 82.2761 386.552C82.2761 389.08 82.6441 391.192 83.3801 392.888C84.1481 394.584 85.1561 395.848 86.4041 396.68C87.6521 397.512 89.0121 397.928 90.4841 397.928C91.7001 397.928 92.7881 397.704 93.7481 397.256C94.7081 396.776 95.5401 396.232 96.2441 395.624C96.9801 395.016 97.6361 394.488 98.2121 394.04C98.7881 393.56 99.3001 393.32 99.7481 393.32C100.1 393.32 100.388 393.4 100.612 393.56C100.868 393.72 100.996 394.056 100.996 394.568C100.996 395.816 100.468 396.984 99.4121 398.072C98.3561 399.16 96.9481 400.056 95.1881 400.76C93.4281 401.432 91.4601 401.768 89.2841 401.768ZM119.605 401.48C119.349 401.48 119.125 401.32 118.933 401C118.773 400.648 118.661 400.264 118.597 399.848C118.533 399.432 118.501 399.096 118.501 398.84C118.501 398.392 118.533 397.816 118.597 397.112C118.661 396.408 118.741 395.672 118.837 394.904C118.933 394.104 119.029 393.416 119.125 392.84L119.941 387.848C120.037 387.208 120.133 386.616 120.229 386.072C120.325 385.496 120.373 384.888 120.373 384.248C120.373 383.768 120.277 383.4 120.085 383.144C119.893 382.888 119.637 382.76 119.317 382.76C118.901 382.76 118.213 383.16 117.253 383.96C116.325 384.728 115.317 385.848 114.229 387.32C113.173 388.792 112.197 390.584 111.301 392.696C110.437 394.776 109.877 397.144 109.621 399.8L108.421 392.6C109.733 388.888 111.205 385.928 112.837 383.72C114.469 381.512 116.085 379.928 117.685 378.968C119.285 377.976 120.693 377.48 121.909 377.48C123.317 377.48 124.341 377.896 124.981 378.728C125.621 379.528 125.941 380.568 125.941 381.848C125.941 382.552 125.877 383.288 125.749 384.056C125.653 384.824 125.541 385.624 125.413 386.456L123.109 401.48H119.605ZM105.349 401.672C104.933 401.672 104.613 401.576 104.389 401.384C104.197 401.224 104.101 400.84 104.101 400.232C104.101 399.624 104.165 398.68 104.293 397.4L106.357 378.488C106.549 376.664 106.789 374.856 107.077 373.064C107.365 371.24 107.557 369.416 107.653 367.592H111.013C111.653 367.592 112.117 368.024 112.405 368.888C112.725 369.752 112.885 370.632 112.885 371.528C112.885 372.232 112.853 372.872 112.789 373.448C112.725 373.992 112.629 374.568 112.501 375.176C112.373 375.784 112.197 376.552 111.973 377.48L108.901 391.544L110.485 389.576C110.261 391.624 110.085 393.56 109.957 395.384C109.829 397.208 109.717 398.68 109.621 399.8C109.621 400.12 109.333 400.424 108.757 400.712C108.213 401 107.605 401.224 106.933 401.384C106.261 401.576 105.733 401.672 105.349 401.672ZM133.97 401.624C132.722 401.624 131.746 401.288 131.042 400.616C130.37 399.912 130.034 398.872 130.034 397.496C130.034 397.016 130.034 396.536 130.034 396.056C130.066 395.576 130.114 395 130.178 394.328C130.274 393.656 130.386 392.792 130.514 391.736L132.338 377.432H135.698C136.242 377.432 136.594 377.752 136.754 378.392C136.946 379 137.042 379.752 137.042 380.648C137.042 381.32 136.994 382.2 136.898 383.288C136.802 384.376 136.658 385.576 136.466 386.888L135.89 390.824C135.762 391.72 135.666 392.52 135.602 393.224C135.57 393.928 135.554 394.504 135.554 394.952C135.554 395.592 135.618 396.088 135.746 396.44C135.906 396.76 136.194 396.92 136.61 396.92C137.09 396.92 137.698 396.568 138.434 395.864C139.17 395.16 139.938 394.232 140.738 393.08C141.57 391.928 142.338 390.696 143.042 389.384C143.746 388.04 144.322 386.744 144.77 385.496C145.218 384.248 145.442 383.176 145.442 382.28C145.442 381.544 145.346 380.936 145.154 380.456C144.994 379.944 144.93 379.528 144.962 379.208C144.962 378.92 145.138 378.664 145.49 378.44C145.874 378.216 146.322 378.04 146.834 377.912C147.346 377.752 147.858 377.64 148.37 377.576C148.882 377.48 149.282 377.432 149.57 377.432C150.114 377.432 150.53 377.752 150.818 378.392C151.138 379.032 151.234 379.944 151.106 381.128L148.85 401.48H145.49C145.106 401.48 144.802 401.288 144.578 400.904C144.354 400.488 144.194 400.024 144.098 399.512C144.034 399 144.002 398.616 144.002 398.36C144.002 397.624 144.098 396.824 144.29 395.96C144.514 395.096 144.818 393.992 145.202 392.648C145.618 391.304 146.114 389.576 146.69 387.464V388.28C145.442 391.544 144.066 394.152 142.562 396.104C141.058 398.056 139.57 399.464 138.098 400.328C136.626 401.192 135.25 401.624 133.97 401.624ZM161.3 411.608C159.924 411.608 158.708 411.384 157.652 410.936C156.596 410.52 155.764 409.832 155.156 408.872C154.548 407.912 154.244 406.632 154.244 405.032C154.244 404.712 154.292 404.488 154.388 404.36C154.516 404.264 154.644 404.216 154.771 404.216C154.932 404.216 155.124 404.28 155.348 404.408C155.572 404.536 155.892 404.728 156.308 404.984C156.884 405.368 157.54 405.768 158.276 406.184C159.044 406.632 159.86 407.016 160.724 407.336C161.588 407.656 162.436 407.816 163.268 407.816C164.1 407.816 164.868 407.544 165.572 407C166.276 406.488 166.932 405.576 167.54 404.264C168.18 402.952 168.788 401.144 169.364 398.84L172.052 387.896L172.34 387.848C171.156 390.984 169.78 393.576 168.212 395.624C166.676 397.64 165.108 399.144 163.508 400.136C161.94 401.096 160.516 401.576 159.236 401.576C157.892 401.576 156.9 401.208 156.26 400.472C155.62 399.736 155.3 398.712 155.3 397.4C155.3 396.76 155.332 396.056 155.396 395.288C155.492 394.52 155.636 393.32 155.828 391.688L157.604 377.432H160.964C161.508 377.432 161.924 377.752 162.212 378.392C162.5 379 162.644 379.752 162.644 380.648C162.644 381.288 162.612 381.864 162.548 382.376C162.484 382.856 162.388 383.416 162.26 384.056C162.164 384.664 162.02 385.544 161.828 386.696L161.156 390.824C161.028 391.72 160.916 392.52 160.82 393.224C160.756 393.896 160.724 394.456 160.724 394.904C160.724 395.576 160.788 396.088 160.916 396.44C161.076 396.76 161.412 396.92 161.924 396.92C162.468 396.92 163.092 396.568 163.796 395.864C164.532 395.16 165.284 394.248 166.052 393.128C166.82 392.008 167.524 390.808 168.164 389.528C168.836 388.248 169.38 387.016 169.796 385.832C170.212 384.616 170.42 383.608 170.42 382.808C170.42 382.264 170.372 381.688 170.276 381.08C170.18 380.44 170.132 379.88 170.132 379.4C170.132 379.016 170.436 378.68 171.044 378.392C171.684 378.072 172.388 377.832 173.156 377.672C173.956 377.512 174.58 377.432 175.028 377.432C175.476 377.432 175.828 377.64 176.084 378.056C176.372 378.472 176.516 379.256 176.516 380.408C176.516 380.952 176.42 381.768 176.228 382.856C176.068 383.912 175.956 384.904 175.892 385.832L174.692 399.56C174.5 401.64 173.972 403.432 173.108 404.936C172.276 406.472 171.22 407.72 169.94 408.68C168.66 409.672 167.268 410.408 165.764 410.888C164.26 411.368 162.772 411.608 161.3 411.608ZM187.094 401.768C184.63 401.768 182.726 401 181.382 399.464C180.038 397.896 179.366 395.752 179.366 393.032C179.366 390.76 179.686 388.68 180.326 386.792C180.966 384.904 181.862 383.256 183.014 381.848C184.166 380.44 185.51 379.352 187.046 378.584C188.614 377.816 190.31 377.432 192.134 377.432C194.31 377.432 195.974 377.896 197.126 378.824C198.278 379.752 198.854 381.08 198.854 382.808C198.854 384.568 198.262 386.104 197.078 387.416C195.926 388.728 194.246 389.848 192.038 390.776C189.862 391.704 187.254 392.488 184.214 393.128L183.59 390.248C185.35 390.024 186.966 389.64 188.438 389.096C189.91 388.552 191.094 387.832 191.99 386.936C192.886 386.008 193.334 384.92 193.334 383.672C193.334 382.808 193.158 382.152 192.806 381.704C192.486 381.256 191.894 381.032 191.03 381.032C189.718 381.032 188.598 381.512 187.67 382.472C186.774 383.432 186.086 384.68 185.606 386.216C185.158 387.752 184.934 389.384 184.934 391.112C184.934 393.448 185.286 395.016 185.99 395.816C186.726 396.584 187.798 396.968 189.206 396.968C190.678 396.968 191.958 396.744 193.046 396.296C194.166 395.816 195.126 395.32 195.926 394.808C196.182 394.648 196.406 394.52 196.598 394.424C196.79 394.328 196.95 394.28 197.078 394.28C197.238 394.28 197.366 394.344 197.462 394.472C197.558 394.6 197.606 394.744 197.606 394.904C197.606 395.48 197.35 396.152 196.838 396.92C196.326 397.688 195.59 398.44 194.63 399.176C193.702 399.912 192.598 400.52 191.318 401C190.038 401.512 188.63 401.768 187.094 401.768ZM217.017 401.48C216.665 401.48 216.393 401.32 216.201 401C216.041 400.648 215.929 400.264 215.865 399.848C215.833 399.432 215.817 399.096 215.817 398.84C215.817 398.392 215.849 397.816 215.913 397.112C215.977 396.408 216.057 395.672 216.153 394.904C216.249 394.104 216.345 393.416 216.441 392.84L217.257 387.848C217.353 387.208 217.449 386.616 217.545 386.072C217.641 385.496 217.689 384.888 217.689 384.248C217.689 383.768 217.593 383.4 217.401 383.144C217.209 382.888 216.953 382.76 216.633 382.76C216.217 382.76 215.529 383.16 214.569 383.96C213.609 384.76 212.585 385.912 211.497 387.416C210.409 388.888 209.417 390.664 208.521 392.744C207.657 394.824 207.097 397.144 206.841 399.704L205.593 392.6C206.553 389.816 207.625 387.464 208.809 385.544C210.025 383.624 211.257 382.072 212.505 380.888C213.753 379.704 214.953 378.84 216.105 378.296C217.289 377.752 218.329 377.48 219.225 377.48C220.185 377.48 220.953 377.656 221.529 378.008C222.137 378.36 222.569 378.856 222.825 379.496C223.113 380.104 223.257 380.824 223.257 381.656C223.257 382.456 223.193 383.256 223.065 384.056C222.969 384.824 222.857 385.624 222.729 386.456L220.425 401.48H217.017ZM202.665 401.672C202.249 401.672 201.929 401.592 201.705 401.432C201.513 401.304 201.401 400.936 201.369 400.328C201.369 399.72 201.449 398.744 201.609 397.4L203.865 377.432H207.225C207.705 377.432 208.137 377.784 208.521 378.488C208.905 379.192 209.097 379.992 209.097 380.888C209.097 381.304 208.969 381.96 208.713 382.856C208.489 383.72 208.217 384.648 207.897 385.64C207.577 386.6 207.289 387.448 207.033 388.184L205.785 392.12L207.561 391.832L206.793 399.704C206.761 400.024 206.569 400.312 206.217 400.568C205.865 400.824 205.449 401.032 204.969 401.192C204.489 401.352 204.025 401.464 203.577 401.528C203.161 401.624 202.857 401.672 202.665 401.672ZM246.936 401.624C244.216 401.624 242.008 401.192 240.312 400.328C238.616 399.464 237.768 398.344 237.768 396.968C237.768 395.912 237.848 395.16 238.008 394.712C238.168 394.264 238.44 394.04 238.824 394.04C239.08 394.04 239.48 394.232 240.024 394.616C240.568 395 241.224 395.432 241.992 395.912C242.792 396.392 243.672 396.824 244.632 397.208C245.624 397.592 246.696 397.784 247.848 397.784C249.512 397.784 250.856 397.432 251.88 396.728C252.936 395.992 253.464 394.872 253.464 393.368C253.464 391.928 253.128 390.84 252.456 390.104C251.784 389.368 250.776 388.568 249.432 387.704L246.408 385.784C245.32 385.08 244.328 384.36 243.432 383.624C242.536 382.888 241.816 382.008 241.272 380.984C240.728 379.928 240.456 378.6 240.456 377C240.456 375.016 240.968 373.32 241.992 371.912C243.016 370.504 244.424 369.432 246.216 368.696C248.008 367.96 250.056 367.592 252.36 367.592C254.504 367.592 256.104 367.736 257.16 368.024C258.216 368.28 258.904 368.648 259.224 369.128C259.576 369.608 259.752 370.168 259.752 370.808C259.752 371.704 259.624 372.392 259.368 372.872C259.112 373.32 258.84 373.544 258.552 373.544C258.296 373.544 258.008 373.464 257.688 373.304C257.368 373.144 256.92 372.936 256.344 372.68C255.896 372.456 255.176 372.2 254.184 371.912C253.224 371.592 252.216 371.432 251.16 371.432C249.784 371.432 248.616 371.784 247.656 372.488C246.728 373.192 246.264 374.248 246.264 375.656C246.264 376.968 246.616 378.008 247.32 378.776C248.024 379.512 248.968 380.168 250.152 380.744L252.792 381.992C254.04 382.568 255.192 383.208 256.248 383.912C257.336 384.616 258.2 385.528 258.84 386.648C259.512 387.736 259.848 389.192 259.848 391.016C259.848 394.408 258.68 397.032 256.344 398.888C254.008 400.712 250.872 401.624 246.936 401.624ZM267.329 401.624C266.081 401.624 265.105 401.288 264.401 400.616C263.729 399.912 263.393 398.872 263.393 397.496C263.393 397.016 263.393 396.536 263.393 396.056C263.425 395.576 263.473 395 263.537 394.328C263.633 393.656 263.745 392.792 263.873 391.736L265.697 377.432H269.057C269.601 377.432 269.953 377.752 270.113 378.392C270.305 379 270.401 379.752 270.401 380.648C270.401 381.32 270.353 382.2 270.257 383.288C270.161 384.376 270.017 385.576 269.825 386.888L269.249 390.824C269.121 391.72 269.025 392.52 268.961 393.224C268.929 393.928 268.913 394.504 268.913 394.952C268.913 395.592 268.977 396.088 269.105 396.44C269.265 396.76 269.553 396.92 269.969 396.92C270.449 396.92 271.057 396.568 271.793 395.864C272.529 395.16 273.297 394.232 274.097 393.08C274.929 391.928 275.697 390.696 276.401 389.384C277.105 388.04 277.681 386.744 278.129 385.496C278.577 384.248 278.801 383.176 278.801 382.28C278.801 381.544 278.705 380.936 278.513 380.456C278.353 379.944 278.289 379.528 278.321 379.208C278.321 378.92 278.497 378.664 278.849 378.44C279.233 378.216 279.681 378.04 280.193 377.912C280.705 377.752 281.217 377.64 281.729 377.576C282.241 377.48 282.641 377.432 282.929 377.432C283.473 377.432 283.889 377.752 284.177 378.392C284.497 379.032 284.593 379.944 284.465 381.128L282.209 401.48H278.849C278.465 401.48 278.161 401.288 277.937 400.904C277.713 400.488 277.553 400.024 277.457 399.512C277.393 399 277.361 398.616 277.361 398.36C277.361 397.624 277.457 396.824 277.649 395.96C277.873 395.096 278.177 393.992 278.561 392.648C278.977 391.304 279.473 389.576 280.049 387.464V388.28C278.801 391.544 277.425 394.152 275.921 396.104C274.417 398.056 272.929 399.464 271.457 400.328C269.985 401.192 268.609 401.624 267.329 401.624ZM302.153 401.384C301.609 401.384 301.225 401.128 301.001 400.616C300.777 400.104 300.665 399.416 300.665 398.552C300.665 397.912 300.713 397.192 300.809 396.392L303.833 368.36H312.761C316.697 368.36 319.641 369.016 321.593 370.328C323.545 371.64 324.521 373.816 324.521 376.856C324.521 378.712 324.089 380.408 323.225 381.944C322.393 383.48 321.305 384.808 319.961 385.928C318.649 387.048 317.241 387.912 315.737 388.52C314.233 389.128 312.825 389.432 311.513 389.432C311.161 389.432 310.76 389.32 310.312 389.096C309.897 388.872 309.529 388.584 309.209 388.232C308.921 387.88 308.777 387.528 308.777 387.176C308.777 386.824 308.889 386.584 309.113 386.456C309.337 386.296 309.577 386.2 309.833 386.168C311.273 385.88 312.617 385.384 313.865 384.68C315.145 383.944 316.169 382.984 316.937 381.8C317.737 380.584 318.137 379.144 318.137 377.48C318.137 376.04 317.785 374.92 317.081 374.12C316.409 373.32 315.417 372.76 314.105 372.44C312.793 372.12 311.161 371.96 309.209 371.96L306.041 401.384H302.153ZM342.027 401.48C341.771 401.48 341.547 401.32 341.355 401C341.195 400.648 341.083 400.264 341.019 399.848C340.955 399.432 340.923 399.096 340.923 398.84C340.923 398.392 340.955 397.816 341.019 397.112C341.083 396.408 341.163 395.672 341.259 394.904C341.355 394.104 341.451 393.416 341.547 392.84L342.363 387.848C342.459 387.208 342.555 386.616 342.651 386.072C342.747 385.496 342.795 384.888 342.795 384.248C342.795 383.768 342.699 383.4 342.507 383.144C342.315 382.888 342.059 382.76 341.739 382.76C341.323 382.76 340.635 383.16 339.675 383.96C338.747 384.728 337.739 385.848 336.651 387.32C335.595 388.792 334.619 390.584 333.723 392.696C332.859 394.776 332.299 397.144 332.043 399.8L330.843 392.6C332.155 388.888 333.627 385.928 335.259 383.72C336.891 381.512 338.507 379.928 340.107 378.968C341.707 377.976 343.115 377.48 344.331 377.48C345.739 377.48 346.763 377.896 347.403 378.728C348.043 379.528 348.363 380.568 348.363 381.848C348.363 382.552 348.299 383.288 348.171 384.056C348.075 384.824 347.963 385.624 347.835 386.456L345.531 401.48H342.027ZM327.771 401.672C327.355 401.672 327.035 401.576 326.811 401.384C326.619 401.224 326.523 400.84 326.523 400.232C326.523 399.624 326.587 398.68 326.715 397.4L328.779 378.488C328.971 376.664 329.211 374.856 329.499 373.064C329.787 371.24 329.979 369.416 330.075 367.592H333.435C334.075 367.592 334.539 368.024 334.827 368.888C335.147 369.752 335.307 370.632 335.307 371.528C335.307 372.232 335.275 372.872 335.211 373.448C335.147 373.992 335.051 374.568 334.923 375.176C334.795 375.784 334.619 376.552 334.395 377.48L331.323 391.544L332.907 389.576C332.683 391.624 332.507 393.56 332.379 395.384C332.251 397.208 332.139 398.68 332.043 399.8C332.043 400.12 331.755 400.424 331.179 400.712C330.635 401 330.027 401.224 329.355 401.384C328.683 401.576 328.155 401.672 327.771 401.672ZM356.488 401.768C354.696 401.768 353.416 401.048 352.648 399.608C351.88 398.136 351.496 396.088 351.496 393.464C351.496 391.128 351.832 388.984 352.504 387.032C353.208 385.08 354.152 383.4 355.336 381.992C356.52 380.552 357.896 379.448 359.464 378.68C361.032 377.88 362.696 377.48 364.456 377.48C365.832 377.48 367.08 377.672 368.2 378.056C369.352 378.408 370.328 378.776 371.128 379.16L369.736 384.2C368.872 383.624 367.896 383.096 366.808 382.616C365.752 382.136 364.76 381.768 363.832 381.512C362.936 381.224 362.264 381.08 361.816 381.08C360.92 381.08 360.088 381.528 359.32 382.424C358.584 383.288 357.992 384.504 357.544 386.072C357.128 387.608 356.92 389.384 356.92 391.4C356.92 393.256 357.048 394.664 357.304 395.624C357.592 396.584 358.04 397.064 358.648 397.064C359.064 397.064 359.768 396.6 360.76 395.672C361.752 394.712 362.952 393.128 364.36 390.92C365.768 388.712 367.256 385.72 368.824 381.944L370.168 386.216C368.44 390.056 366.792 393.112 365.224 395.384C363.656 397.656 362.152 399.288 360.712 400.28C359.272 401.272 357.864 401.768 356.488 401.768ZM367.96 401.48C367.32 401.48 366.936 401.176 366.808 400.568C366.68 399.928 366.616 399.256 366.616 398.552C366.616 398.008 366.68 397.336 366.808 396.536C366.968 395.736 367.16 394.872 367.384 393.944C367.608 393.016 367.848 392.104 368.104 391.208L369.16 387.608L367.768 386.36L368.92 379.112C369.944 378.952 370.84 378.744 371.608 378.488C372.408 378.232 373.064 378.008 373.576 377.816C374.12 377.624 374.504 377.528 374.728 377.528C375.08 377.528 375.256 377.72 375.256 378.104C375.256 378.264 375.048 378.952 374.632 380.168C374.248 381.352 373.816 382.872 373.336 384.728C372.888 386.584 372.552 388.6 372.328 390.776L371.32 401.48H367.96ZM407.52 401.48C407.168 401.48 406.912 401.32 406.752 401C406.592 400.648 406.496 400.264 406.464 399.848C406.432 399.432 406.416 399.096 406.416 398.84C406.416 398.392 406.448 397.816 406.512 397.112C406.576 396.408 406.656 395.672 406.752 394.904C406.848 394.104 406.944 393.416 407.04 392.84L407.856 387.848C407.952 387.208 408.048 386.616 408.144 386.072C408.24 385.496 408.288 384.888 408.288 384.248C408.288 383.768 408.192 383.4 408 383.144C407.808 382.888 407.552 382.76 407.232 382.76C406.816 382.76 406.128 383.16 405.168 383.96C404.208 384.76 403.184 385.896 402.096 387.368C401.008 388.84 400.016 390.616 399.12 392.696C398.224 394.776 397.648 397.096 397.392 399.656L396.336 392.6C397.648 388.888 399.104 385.928 400.704 383.72C402.336 381.512 403.952 379.928 405.552 378.968C407.152 377.976 408.544 377.48 409.728 377.48C410.72 377.48 411.504 377.656 412.08 378.008C412.688 378.36 413.136 378.872 413.424 379.544C413.712 380.216 413.856 381.016 413.856 381.944C413.856 382.616 413.792 383.336 413.664 384.104C413.568 384.84 413.456 385.624 413.328 386.456L411.024 401.48H407.52ZM379.008 401.672C378.592 401.672 378.272 401.592 378.048 401.432C377.856 401.304 377.744 400.936 377.712 400.328C377.712 399.72 377.792 398.744 377.952 397.4L380.208 377.432H383.568C384.208 377.432 384.672 377.784 384.96 378.488C385.28 379.192 385.44 379.992 385.44 380.888C385.44 381.304 385.312 381.96 385.056 382.856C384.832 383.72 384.56 384.648 384.24 385.64C383.92 386.6 383.632 387.448 383.376 388.184L382.128 392.12L383.904 391.832L383.088 399.656C383.056 399.976 382.864 400.264 382.512 400.52C382.192 400.776 381.808 400.984 381.36 401.144C380.912 401.336 380.464 401.464 380.016 401.528C379.6 401.624 379.264 401.672 379.008 401.672ZM393.168 401.672C392.592 401.672 392.24 401.56 392.112 401.336C391.984 401.112 391.92 400.728 391.92 400.184C391.92 399.704 391.968 398.92 392.064 397.832C392.192 396.744 392.448 395.08 392.832 392.84L393.696 387.896C393.824 387.256 393.92 386.632 393.984 386.024C394.08 385.384 394.128 384.744 394.128 384.104C394.128 383.656 394.048 383.32 393.888 383.096C393.728 382.872 393.472 382.76 393.12 382.76C392.672 382.76 391.952 383.16 390.96 383.96C389.968 384.76 388.912 385.896 387.792 387.368C386.704 388.84 385.712 390.616 384.816 392.696C383.92 394.776 383.344 397.096 383.088 399.656L381.936 392.6C382.896 389.816 383.984 387.464 385.2 385.544C386.416 383.624 387.648 382.072 388.896 380.888C390.144 379.704 391.328 378.84 392.448 378.296C393.6 377.752 394.592 377.48 395.424 377.48C396.48 377.48 397.296 377.672 397.872 378.056C398.48 378.44 398.896 378.952 399.12 379.592C399.376 380.2 399.504 380.84 399.504 381.512C399.504 382.312 399.376 383.144 399.12 384.008C398.864 384.872 398.512 385.928 398.064 387.176C397.648 388.392 397.184 389.96 396.672 391.88L398.256 391.304L397.392 399.656C397.36 399.976 397.184 400.264 396.864 400.52C396.544 400.776 396.144 400.984 395.664 401.144C395.216 401.304 394.752 401.432 394.272 401.528C393.824 401.624 393.456 401.672 393.168 401.672ZM443.386 401.768C440.634 401.768 438.218 401.24 436.138 400.184C434.09 399.096 432.49 397.48 431.338 395.336C430.218 393.192 429.658 390.552 429.658 387.416C429.658 384.536 430.106 381.896 431.002 379.496C431.898 377.064 433.146 374.968 434.746 373.208C436.378 371.416 438.266 370.04 440.41 369.08C442.554 368.088 444.89 367.592 447.418 367.592C451.738 367.592 455.098 368.808 457.498 371.24C459.93 373.64 461.146 377.192 461.146 381.896C461.146 384.776 460.698 387.432 459.802 389.864C458.906 392.264 457.642 394.36 456.01 396.152C454.41 397.944 452.538 399.336 450.394 400.328C448.25 401.288 445.914 401.768 443.386 401.768ZM444.01 397.928C445.354 397.928 446.666 397.576 447.946 396.872C449.226 396.136 450.378 395.096 451.402 393.752C452.426 392.408 453.242 390.824 453.85 389C454.458 387.144 454.762 385.096 454.762 382.856C454.762 380.232 454.394 378.088 453.658 376.424C452.954 374.728 451.994 373.48 450.778 372.68C449.594 371.848 448.266 371.432 446.794 371.432C444.842 371.432 443.05 372.072 441.418 373.352C439.786 374.6 438.474 376.36 437.482 378.632C436.522 380.904 436.042 383.528 436.042 386.504C436.042 389.096 436.394 391.24 437.098 392.936C437.834 394.632 438.81 395.896 440.026 396.728C441.242 397.528 442.57 397.928 444.01 397.928ZM479.517 401.48C479.165 401.48 478.893 401.32 478.701 401C478.541 400.648 478.429 400.264 478.365 399.848C478.333 399.432 478.317 399.096 478.317 398.84C478.317 398.392 478.349 397.816 478.413 397.112C478.477 396.408 478.557 395.672 478.653 394.904C478.749 394.104 478.845 393.416 478.941 392.84L479.757 387.848C479.853 387.208 479.949 386.616 480.045 386.072C480.141 385.496 480.189 384.888 480.189 384.248C480.189 383.768 480.093 383.4 479.901 383.144C479.709 382.888 479.453 382.76 479.133 382.76C478.717 382.76 478.029 383.16 477.069 383.96C476.109 384.76 475.085 385.912 473.997 387.416C472.909 388.888 471.917 390.664 471.021 392.744C470.157 394.824 469.597 397.144 469.341 399.704L468.093 392.6C469.053 389.816 470.125 387.464 471.309 385.544C472.525 383.624 473.757 382.072 475.005 380.888C476.253 379.704 477.453 378.84 478.605 378.296C479.789 377.752 480.829 377.48 481.725 377.48C482.685 377.48 483.453 377.656 484.029 378.008C484.637 378.36 485.069 378.856 485.325 379.496C485.613 380.104 485.757 380.824 485.757 381.656C485.757 382.456 485.693 383.256 485.565 384.056C485.469 384.824 485.357 385.624 485.229 386.456L482.925 401.48H479.517ZM465.165 401.672C464.749 401.672 464.429 401.592 464.205 401.432C464.013 401.304 463.901 400.936 463.869 400.328C463.869 399.72 463.949 398.744 464.109 397.4L466.365 377.432H469.725C470.205 377.432 470.637 377.784 471.021 378.488C471.405 379.192 471.597 379.992 471.597 380.888C471.597 381.304 471.469 381.96 471.213 382.856C470.989 383.72 470.717 384.648 470.397 385.64C470.077 386.6 469.789 387.448 469.533 388.184L468.285 392.12L470.061 391.832L469.293 399.704C469.261 400.024 469.069 400.312 468.717 400.568C468.365 400.824 467.949 401.032 467.469 401.192C466.989 401.352 466.525 401.464 466.077 401.528C465.661 401.624 465.357 401.672 465.165 401.672ZM491.622 401.672C491.046 401.672 490.598 401.32 490.278 400.616C489.958 399.912 489.814 399.096 489.846 398.168C489.878 397.08 489.974 395.784 490.134 394.28C490.294 392.776 490.454 391.288 490.614 389.816L491.958 378.488C492.15 377.048 492.198 375.768 492.102 374.648C492.006 373.528 491.878 372.536 491.718 371.672C491.558 370.808 491.478 370.072 491.478 369.464C491.478 369.112 491.75 368.808 492.294 368.552C492.87 368.264 493.526 368.04 494.262 367.88C494.998 367.688 495.622 367.592 496.134 367.592C496.678 367.592 497.158 367.992 497.574 368.792C497.99 369.56 498.198 370.456 498.198 371.48C498.198 371.704 498.166 372.328 498.102 373.352C498.038 374.376 497.91 375.544 497.718 376.856L496.182 387.896C495.862 390.2 495.638 392.504 495.51 394.808C495.382 397.08 495.206 399.368 494.982 401.672H491.622ZM502.764 401.768C502.22 401.768 501.868 401.464 501.708 400.856C501.548 400.216 501.468 399.56 501.468 398.888C501.468 397.736 501.516 396.712 501.612 395.816C501.74 394.92 501.868 393.928 501.996 392.84L503.724 377.432H507.084C507.724 377.432 508.14 377.784 508.332 378.488C508.524 379.192 508.62 379.992 508.62 380.888C508.62 381.336 508.588 381.816 508.524 382.328C508.46 382.808 508.364 383.56 508.236 384.584L507.324 392.408C507.132 394.072 506.956 395.464 506.796 396.584C506.636 397.704 506.508 398.664 506.412 399.464C506.316 400.264 506.22 401.032 506.124 401.768H502.764ZM506.988 374.696C506.092 374.696 505.308 374.392 504.636 373.784C503.996 373.176 503.676 372.376 503.676 371.384C503.676 370.2 504.06 369.288 504.828 368.648C505.596 367.976 506.476 367.64 507.468 367.64C508.396 367.64 509.164 367.912 509.772 368.456C510.412 369 510.732 369.816 510.732 370.904C510.732 371.992 510.364 372.904 509.628 373.64C508.892 374.344 508.012 374.696 506.988 374.696ZM528.032 401.48C527.68 401.48 527.408 401.32 527.216 401C527.056 400.648 526.944 400.264 526.88 399.848C526.848 399.432 526.832 399.096 526.832 398.84C526.832 398.392 526.864 397.816 526.928 397.112C526.992 396.408 527.072 395.672 527.168 394.904C527.264 394.104 527.36 393.416 527.456 392.84L528.272 387.848C528.368 387.208 528.464 386.616 528.56 386.072C528.656 385.496 528.704 384.888 528.704 384.248C528.704 383.768 528.608 383.4 528.416 383.144C528.224 382.888 527.968 382.76 527.648 382.76C527.232 382.76 526.544 383.16 525.584 383.96C524.624 384.76 523.6 385.912 522.512 387.416C521.424 388.888 520.432 390.664 519.536 392.744C518.672 394.824 518.112 397.144 517.856 399.704L516.608 392.6C517.568 389.816 518.64 387.464 519.824 385.544C521.04 383.624 522.272 382.072 523.52 380.888C524.768 379.704 525.968 378.84 527.12 378.296C528.304 377.752 529.344 377.48 530.24 377.48C531.2 377.48 531.968 377.656 532.544 378.008C533.152 378.36 533.584 378.856 533.84 379.496C534.128 380.104 534.272 380.824 534.272 381.656C534.272 382.456 534.208 383.256 534.08 384.056C533.984 384.824 533.872 385.624 533.744 386.456L531.44 401.48H528.032ZM513.68 401.672C513.264 401.672 512.944 401.592 512.72 401.432C512.528 401.304 512.416 400.936 512.384 400.328C512.384 399.72 512.464 398.744 512.624 397.4L514.88 377.432H518.24C518.72 377.432 519.152 377.784 519.536 378.488C519.92 379.192 520.112 379.992 520.112 380.888C520.112 381.304 519.984 381.96 519.728 382.856C519.504 383.72 519.232 384.648 518.912 385.64C518.592 386.6 518.304 387.448 518.048 388.184L516.8 392.12L518.576 391.832L517.808 399.704C517.776 400.024 517.584 400.312 517.232 400.568C516.88 400.824 516.464 401.032 515.984 401.192C515.504 401.352 515.04 401.464 514.592 401.528C514.176 401.624 513.872 401.672 513.68 401.672ZM544.938 401.768C542.474 401.768 540.57 401 539.226 399.464C537.882 397.896 537.21 395.752 537.21 393.032C537.21 390.76 537.53 388.68 538.17 386.792C538.81 384.904 539.706 383.256 540.858 381.848C542.01 380.44 543.354 379.352 544.89 378.584C546.458 377.816 548.154 377.432 549.978 377.432C552.154 377.432 553.818 377.896 554.97 378.824C556.122 379.752 556.698 381.08 556.698 382.808C556.698 384.568 556.106 386.104 554.922 387.416C553.77 388.728 552.09 389.848 549.882 390.776C547.706 391.704 545.098 392.488 542.058 393.128L541.434 390.248C543.194 390.024 544.81 389.64 546.282 389.096C547.754 388.552 548.938 387.832 549.834 386.936C550.73 386.008 551.178 384.92 551.178 383.672C551.178 382.808 551.002 382.152 550.65 381.704C550.33 381.256 549.738 381.032 548.874 381.032C547.562 381.032 546.442 381.512 545.514 382.472C544.618 383.432 543.93 384.68 543.45 386.216C543.002 387.752 542.778 389.384 542.778 391.112C542.778 393.448 543.13 395.016 543.834 395.816C544.57 396.584 545.642 396.968 547.05 396.968C548.522 396.968 549.802 396.744 550.89 396.296C552.01 395.816 552.97 395.32 553.77 394.808C554.026 394.648 554.25 394.52 554.442 394.424C554.634 394.328 554.794 394.28 554.922 394.28C555.082 394.28 555.21 394.344 555.306 394.472C555.402 394.6 555.45 394.744 555.45 394.904C555.45 395.48 555.194 396.152 554.682 396.92C554.17 397.688 553.434 398.44 552.474 399.176C551.546 399.912 550.442 400.52 549.162 401C547.882 401.512 546.474 401.768 544.938 401.768ZM573.09 401.384C572.546 401.384 572.162 401.128 571.938 400.616C571.714 400.104 571.602 399.416 571.602 398.552C571.602 397.912 571.65 397.192 571.746 396.392L574.77 368.36H583.698C587.634 368.36 590.578 369.016 592.53 370.328C594.482 371.64 595.458 373.816 595.458 376.856C595.458 378.712 595.026 380.408 594.162 381.944C593.33 383.48 592.242 384.808 590.898 385.928C589.586 387.048 588.178 387.912 586.674 388.52C585.17 389.128 583.762 389.432 582.45 389.432C582.098 389.432 581.698 389.32 581.25 389.096C580.834 388.872 580.466 388.584 580.146 388.232C579.858 387.88 579.714 387.528 579.714 387.176C579.714 386.824 579.826 386.584 580.05 386.456C580.274 386.296 580.514 386.2 580.77 386.168C582.21 385.88 583.554 385.384 584.802 384.68C586.082 383.944 587.106 382.984 587.874 381.8C588.674 380.584 589.074 379.144 589.074 377.48C589.074 376.04 588.722 374.92 588.018 374.12C587.346 373.32 586.354 372.76 585.042 372.44C583.73 372.12 582.098 371.96 580.146 371.96L576.978 401.384H573.09ZM602.884 399.848L601.732 392.6C602.916 389.528 604.116 386.872 605.332 384.632C606.58 382.36 607.844 380.6 609.124 379.352C610.404 378.104 611.7 377.48 613.012 377.48C613.748 377.48 614.276 377.72 614.596 378.2C614.916 378.648 615.076 379.224 615.076 379.928C615.076 380.568 614.996 381.192 614.836 381.8C614.708 382.376 614.5 382.856 614.212 383.24C613.956 383.624 613.636 383.816 613.252 383.816C612.9 383.816 612.5 383.704 612.052 383.48C611.636 383.256 611.06 383.144 610.324 383.144C609.844 383.144 609.236 383.64 608.5 384.632C607.764 385.624 606.996 386.952 606.196 388.616C605.428 390.248 604.74 392.056 604.132 394.04C603.524 395.992 603.108 397.928 602.884 399.848ZM598.852 401.672C598.436 401.672 598.116 401.592 597.892 401.432C597.7 401.304 597.588 400.936 597.556 400.328C597.556 399.72 597.636 398.744 597.796 397.4L600.052 377.432H603.412C603.892 377.432 604.324 377.784 604.708 378.488C605.092 379.192 605.284 379.992 605.284 380.888C605.284 381.304 605.156 381.96 604.9 382.856C604.676 383.72 604.404 384.648 604.084 385.64C603.764 386.6 603.476 387.448 603.22 388.184L601.972 392.12L603.748 391.832L602.884 399.848C602.852 400.168 602.66 400.456 602.308 400.712C601.956 400.936 601.54 401.112 601.06 401.24C600.612 401.4 600.18 401.512 599.764 401.576C599.348 401.64 599.044 401.672 598.852 401.672ZM622.821 401.72C620.069 401.72 617.925 400.92 616.389 399.32C614.885 397.688 614.133 395.304 614.133 392.168C614.133 390.088 614.469 388.168 615.141 386.408C615.845 384.616 616.789 383.048 617.973 381.704C619.157 380.36 620.517 379.32 622.053 378.584C623.621 377.816 625.269 377.432 626.997 377.432C629.749 377.432 631.845 378.248 633.285 379.88C634.757 381.512 635.493 383.976 635.493 387.272C635.493 389.256 635.157 391.128 634.485 392.888C633.845 394.616 632.949 396.152 631.797 397.496C630.645 398.808 629.301 399.848 627.765 400.616C626.229 401.352 624.581 401.72 622.821 401.72ZM623.973 398.12C625.189 398.12 626.229 397.672 627.093 396.776C627.989 395.88 628.661 394.648 629.109 393.08C629.589 391.512 629.829 389.752 629.829 387.8C629.829 385.72 629.509 384.072 628.869 382.856C628.261 381.64 627.237 381.032 625.797 381.032C624.613 381.032 623.557 381.48 622.629 382.376C621.733 383.272 621.029 384.504 620.517 386.072C620.037 387.608 619.797 389.368 619.797 391.352C619.797 393.56 620.149 395.24 620.853 396.392C621.557 397.544 622.597 398.12 623.973 398.12ZM645.779 411.608C644.243 411.608 642.835 411.368 641.555 410.888C640.307 410.44 639.299 409.72 638.531 408.728C637.795 407.736 637.427 406.44 637.427 404.84C637.427 404.296 637.603 404.024 637.955 404.024C638.115 404.024 638.323 404.088 638.579 404.216C638.835 404.344 639.171 404.52 639.587 404.744C640.163 405.064 640.931 405.464 641.891 405.944C642.883 406.456 643.907 406.904 644.963 407.288C646.019 407.672 646.947 407.864 647.747 407.864C648.259 407.864 648.739 407.752 649.187 407.528C649.667 407.304 650.115 406.872 650.531 406.232C650.979 405.624 651.395 404.728 651.779 403.544C652.163 402.392 652.531 400.872 652.883 398.984L655.283 385.976L654.419 384.824L654.467 378.68C656.515 378.424 658.003 378.168 658.931 377.912C659.859 377.656 660.499 377.528 660.851 377.528C661.171 377.528 661.331 377.72 661.331 378.104C661.331 378.264 661.123 378.936 660.707 380.12C660.323 381.304 659.907 382.824 659.459 384.68C659.011 386.536 658.739 388.616 658.643 390.92L658.307 399.56C658.211 401.8 657.763 403.688 656.963 405.224C656.195 406.76 655.187 407.992 653.939 408.92C652.691 409.88 651.347 410.568 649.907 410.984C648.499 411.4 647.123 411.608 645.779 411.608ZM642.755 401.432C640.963 401.432 639.683 400.712 638.915 399.272C638.147 397.8 637.763 395.752 637.763 393.128C637.763 390.92 638.099 388.872 638.771 386.984C639.443 385.064 640.355 383.4 641.507 381.992C642.691 380.584 644.051 379.48 645.587 378.68C647.155 377.88 648.819 377.48 650.579 377.48C651.955 377.48 653.203 377.672 654.323 378.056C655.475 378.408 656.451 378.776 657.251 379.16L655.859 384.2C654.995 383.624 654.019 383.096 652.931 382.616C651.875 382.136 650.883 381.768 649.955 381.512C649.059 381.224 648.387 381.08 647.939 381.08C647.043 381.08 646.227 381.528 645.491 382.424C644.787 383.32 644.227 384.52 643.811 386.024C643.395 387.528 643.187 389.208 643.187 391.064C643.187 392.92 643.315 394.328 643.571 395.288C643.859 396.248 644.307 396.728 644.915 396.728C645.331 396.728 646.019 396.28 646.979 395.384C647.971 394.488 649.155 392.968 650.531 390.824C651.907 388.68 653.379 385.72 654.947 381.944L656.291 386.216C654.563 390.056 652.915 393.096 651.347 395.336C649.811 397.544 648.339 399.112 646.931 400.04C645.523 400.968 644.131 401.432 642.755 401.432ZM668.884 399.848L667.732 392.6C668.916 389.528 670.116 386.872 671.332 384.632C672.58 382.36 673.844 380.6 675.124 379.352C676.404 378.104 677.7 377.48 679.012 377.48C679.748 377.48 680.276 377.72 680.596 378.2C680.916 378.648 681.076 379.224 681.076 379.928C681.076 380.568 680.996 381.192 680.836 381.8C680.708 382.376 680.5 382.856 680.212 383.24C679.956 383.624 679.636 383.816 679.252 383.816C678.9 383.816 678.5 383.704 678.052 383.48C677.636 383.256 677.06 383.144 676.324 383.144C675.844 383.144 675.236 383.64 674.5 384.632C673.764 385.624 672.996 386.952 672.196 388.616C671.428 390.248 670.74 392.056 670.132 394.04C669.524 395.992 669.108 397.928 668.884 399.848ZM664.852 401.672C664.436 401.672 664.116 401.592 663.892 401.432C663.7 401.304 663.588 400.936 663.556 400.328C663.556 399.72 663.636 398.744 663.796 397.4L666.052 377.432H669.412C669.892 377.432 670.324 377.784 670.708 378.488C671.092 379.192 671.284 379.992 671.284 380.888C671.284 381.304 671.156 381.96 670.9 382.856C670.676 383.72 670.404 384.648 670.084 385.64C669.764 386.6 669.476 387.448 669.22 388.184L667.972 392.12L669.748 391.832L668.884 399.848C668.852 400.168 668.66 400.456 668.308 400.712C667.956 400.936 667.54 401.112 667.06 401.24C666.612 401.4 666.18 401.512 665.764 401.576C665.348 401.64 665.044 401.672 664.852 401.672ZM685.269 401.768C683.477 401.768 682.197 401.048 681.429 399.608C680.661 398.136 680.277 396.088 680.277 393.464C680.277 391.128 680.613 388.984 681.285 387.032C681.989 385.08 682.933 383.4 684.117 381.992C685.301 380.552 686.677 379.448 688.245 378.68C689.813 377.88 691.477 377.48 693.237 377.48C694.613 377.48 695.861 377.672 696.981 378.056C698.133 378.408 699.109 378.776 699.909 379.16L698.517 384.2C697.653 383.624 696.677 383.096 695.589 382.616C694.533 382.136 693.541 381.768 692.613 381.512C691.717 381.224 691.045 381.08 690.597 381.08C689.701 381.08 688.869 381.528 688.101 382.424C687.365 383.288 686.773 384.504 686.325 386.072C685.909 387.608 685.701 389.384 685.701 391.4C685.701 393.256 685.829 394.664 686.085 395.624C686.373 396.584 686.821 397.064 687.429 397.064C687.845 397.064 688.549 396.6 689.541 395.672C690.533 394.712 691.733 393.128 693.141 390.92C694.549 388.712 696.037 385.72 697.605 381.944L698.949 386.216C697.221 390.056 695.573 393.112 694.005 395.384C692.437 397.656 690.933 399.288 689.493 400.28C688.053 401.272 686.645 401.768 685.269 401.768ZM696.741 401.48C696.101 401.48 695.717 401.176 695.589 400.568C695.461 399.928 695.397 399.256 695.397 398.552C695.397 398.008 695.461 397.336 695.589 396.536C695.749 395.736 695.941 394.872 696.165 393.944C696.389 393.016 696.629 392.104 696.885 391.208L697.941 387.608L696.549 386.36L697.701 379.112C698.725 378.952 699.621 378.744 700.389 378.488C701.189 378.232 701.845 378.008 702.357 377.816C702.901 377.624 703.285 377.528 703.509 377.528C703.861 377.528 704.037 377.72 704.037 378.104C704.037 378.264 703.829 378.952 703.413 380.168C703.029 381.352 702.597 382.872 702.117 384.728C701.669 386.584 701.333 388.6 701.109 390.776L700.101 401.48H696.741ZM736.302 401.48C735.95 401.48 735.694 401.32 735.534 401C735.374 400.648 735.278 400.264 735.246 399.848C735.214 399.432 735.198 399.096 735.198 398.84C735.198 398.392 735.23 397.816 735.294 397.112C735.358 396.408 735.438 395.672 735.534 394.904C735.63 394.104 735.726 393.416 735.822 392.84L736.638 387.848C736.734 387.208 736.83 386.616 736.926 386.072C737.022 385.496 737.07 384.888 737.07 384.248C737.07 383.768 736.974 383.4 736.782 383.144C736.59 382.888 736.334 382.76 736.014 382.76C735.598 382.76 734.91 383.16 733.95 383.96C732.99 384.76 731.966 385.896 730.878 387.368C729.79 388.84 728.798 390.616 727.902 392.696C727.006 394.776 726.43 397.096 726.174 399.656L725.118 392.6C726.43 388.888 727.886 385.928 729.486 383.72C731.118 381.512 732.734 379.928 734.334 378.968C735.934 377.976 737.326 377.48 738.51 377.48C739.502 377.48 740.286 377.656 740.862 378.008C741.47 378.36 741.918 378.872 742.206 379.544C742.494 380.216 742.638 381.016 742.638 381.944C742.638 382.616 742.574 383.336 742.446 384.104C742.35 384.84 742.238 385.624 742.11 386.456L739.806 401.48H736.302ZM707.79 401.672C707.374 401.672 707.054 401.592 706.83 401.432C706.638 401.304 706.526 400.936 706.494 400.328C706.494 399.72 706.574 398.744 706.734 397.4L708.99 377.432H712.35C712.99 377.432 713.454 377.784 713.742 378.488C714.062 379.192 714.222 379.992 714.222 380.888C714.222 381.304 714.094 381.96 713.838 382.856C713.614 383.72 713.342 384.648 713.022 385.64C712.702 386.6 712.414 387.448 712.158 388.184L710.91 392.12L712.686 391.832L711.87 399.656C711.838 399.976 711.646 400.264 711.294 400.52C710.974 400.776 710.59 400.984 710.142 401.144C709.694 401.336 709.246 401.464 708.798 401.528C708.382 401.624 708.046 401.672 707.79 401.672ZM721.95 401.672C721.374 401.672 721.022 401.56 720.894 401.336C720.766 401.112 720.702 400.728 720.702 400.184C720.702 399.704 720.75 398.92 720.846 397.832C720.974 396.744 721.23 395.08 721.614 392.84L722.478 387.896C722.606 387.256 722.702 386.632 722.766 386.024C722.862 385.384 722.91 384.744 722.91 384.104C722.91 383.656 722.83 383.32 722.67 383.096C722.51 382.872 722.254 382.76 721.902 382.76C721.454 382.76 720.734 383.16 719.742 383.96C718.75 384.76 717.694 385.896 716.574 387.368C715.486 388.84 714.494 390.616 713.598 392.696C712.702 394.776 712.126 397.096 711.87 399.656L710.718 392.6C711.678 389.816 712.766 387.464 713.982 385.544C715.198 383.624 716.43 382.072 717.678 380.888C718.926 379.704 720.11 378.84 721.23 378.296C722.382 377.752 723.374 377.48 724.206 377.48C725.262 377.48 726.078 377.672 726.654 378.056C727.262 378.44 727.678 378.952 727.902 379.592C728.158 380.2 728.286 380.84 728.286 381.512C728.286 382.312 728.158 383.144 727.902 384.008C727.646 384.872 727.294 385.928 726.846 387.176C726.43 388.392 725.966 389.96 725.454 391.88L727.038 391.304L726.174 399.656C726.142 399.976 725.966 400.264 725.646 400.52C725.326 400.776 724.926 400.984 724.446 401.144C723.998 401.304 723.534 401.432 723.054 401.528C722.606 401.624 722.238 401.672 721.95 401.672ZM776.145 401.48C775.793 401.48 775.537 401.32 775.377 401C775.217 400.648 775.121 400.264 775.089 399.848C775.057 399.432 775.041 399.096 775.041 398.84C775.041 398.392 775.073 397.816 775.137 397.112C775.201 396.408 775.281 395.672 775.377 394.904C775.473 394.104 775.569 393.416 775.665 392.84L776.481 387.848C776.577 387.208 776.673 386.616 776.769 386.072C776.865 385.496 776.913 384.888 776.913 384.248C776.913 383.768 776.817 383.4 776.625 383.144C776.433 382.888 776.177 382.76 775.857 382.76C775.441 382.76 774.753 383.16 773.793 383.96C772.833 384.76 771.809 385.896 770.721 387.368C769.633 388.84 768.641 390.616 767.745 392.696C766.849 394.776 766.273 397.096 766.017 399.656L764.961 392.6C766.273 388.888 767.729 385.928 769.329 383.72C770.961 381.512 772.577 379.928 774.177 378.968C775.777 377.976 777.169 377.48 778.353 377.48C779.345 377.48 780.129 377.656 780.705 378.008C781.313 378.36 781.761 378.872 782.049 379.544C782.337 380.216 782.481 381.016 782.481 381.944C782.481 382.616 782.417 383.336 782.289 384.104C782.193 384.84 782.081 385.624 781.953 386.456L779.649 401.48H776.145ZM747.633 401.672C747.217 401.672 746.897 401.592 746.673 401.432C746.481 401.304 746.369 400.936 746.337 400.328C746.337 399.72 746.417 398.744 746.577 397.4L748.833 377.432H752.193C752.833 377.432 753.297 377.784 753.585 378.488C753.905 379.192 754.065 379.992 754.065 380.888C754.065 381.304 753.937 381.96 753.681 382.856C753.457 383.72 753.185 384.648 752.865 385.64C752.545 386.6 752.257 387.448 752.001 388.184L750.753 392.12L752.529 391.832L751.713 399.656C751.681 399.976 751.489 400.264 751.137 400.52C750.817 400.776 750.433 400.984 749.985 401.144C749.537 401.336 749.089 401.464 748.641 401.528C748.225 401.624 747.889 401.672 747.633 401.672ZM761.793 401.672C761.217 401.672 760.865 401.56 760.737 401.336C760.609 401.112 760.545 400.728 760.545 400.184C760.545 399.704 760.593 398.92 760.689 397.832C760.817 396.744 761.073 395.08 761.457 392.84L762.321 387.896C762.449 387.256 762.545 386.632 762.609 386.024C762.705 385.384 762.753 384.744 762.753 384.104C762.753 383.656 762.673 383.32 762.513 383.096C762.353 382.872 762.097 382.76 761.745 382.76C761.297 382.76 760.577 383.16 759.585 383.96C758.593 384.76 757.537 385.896 756.417 387.368C755.329 388.84 754.337 390.616 753.441 392.696C752.545 394.776 751.969 397.096 751.713 399.656L750.561 392.6C751.521 389.816 752.609 387.464 753.825 385.544C755.041 383.624 756.273 382.072 757.521 380.888C758.769 379.704 759.953 378.84 761.073 378.296C762.225 377.752 763.217 377.48 764.049 377.48C765.105 377.48 765.921 377.672 766.497 378.056C767.105 378.44 767.521 378.952 767.745 379.592C768.001 380.2 768.129 380.84 768.129 381.512C768.129 382.312 768.001 383.144 767.745 384.008C767.489 384.872 767.137 385.928 766.689 387.176C766.273 388.392 765.809 389.96 765.297 391.88L766.881 391.304L766.017 399.656C765.985 399.976 765.809 400.264 765.489 400.52C765.169 400.776 764.769 400.984 764.289 401.144C763.841 401.304 763.377 401.432 762.897 401.528C762.449 401.624 762.081 401.672 761.793 401.672ZM787.717 401.768C787.173 401.768 786.821 401.464 786.661 400.856C786.501 400.216 786.421 399.56 786.421 398.888C786.421 397.736 786.469 396.712 786.565 395.816C786.693 394.92 786.821 393.928 786.949 392.84L788.677 377.432H792.037C792.677 377.432 793.093 377.784 793.285 378.488C793.477 379.192 793.573 379.992 793.573 380.888C793.573 381.336 793.541 381.816 793.477 382.328C793.413 382.808 793.317 383.56 793.189 384.584L792.277 392.408C792.085 394.072 791.909 395.464 791.749 396.584C791.589 397.704 791.461 398.664 791.365 399.464C791.269 400.264 791.173 401.032 791.077 401.768H787.717ZM791.941 374.696C791.045 374.696 790.261 374.392 789.589 373.784C788.949 373.176 788.629 372.376 788.629 371.384C788.629 370.2 789.013 369.288 789.781 368.648C790.549 367.976 791.429 367.64 792.421 367.64C793.349 367.64 794.117 367.912 794.725 368.456C795.365 369 795.685 369.816 795.685 370.904C795.685 371.992 795.317 372.904 794.581 373.64C793.845 374.344 792.965 374.696 791.941 374.696ZM812.985 401.48C812.633 401.48 812.361 401.32 812.169 401C812.009 400.648 811.897 400.264 811.833 399.848C811.801 399.432 811.785 399.096 811.785 398.84C811.785 398.392 811.817 397.816 811.881 397.112C811.945 396.408 812.025 395.672 812.121 394.904C812.217 394.104 812.313 393.416 812.409 392.84L813.225 387.848C813.321 387.208 813.417 386.616 813.513 386.072C813.609 385.496 813.657 384.888 813.657 384.248C813.657 383.768 813.561 383.4 813.369 383.144C813.177 382.888 812.921 382.76 812.601 382.76C812.185 382.76 811.497 383.16 810.537 383.96C809.577 384.76 808.553 385.912 807.465 387.416C806.377 388.888 805.385 390.664 804.489 392.744C803.625 394.824 803.065 397.144 802.809 399.704L801.561 392.6C802.521 389.816 803.593 387.464 804.777 385.544C805.993 383.624 807.225 382.072 808.473 380.888C809.721 379.704 810.921 378.84 812.073 378.296C813.257 377.752 814.297 377.48 815.193 377.48C816.153 377.48 816.921 377.656 817.497 378.008C818.105 378.36 818.537 378.856 818.793 379.496C819.081 380.104 819.225 380.824 819.225 381.656C819.225 382.456 819.161 383.256 819.033 384.056C818.937 384.824 818.825 385.624 818.697 386.456L816.393 401.48H812.985ZM798.633 401.672C798.217 401.672 797.897 401.592 797.673 401.432C797.481 401.304 797.369 400.936 797.337 400.328C797.337 399.72 797.417 398.744 797.577 397.4L799.833 377.432H803.193C803.673 377.432 804.105 377.784 804.489 378.488C804.873 379.192 805.065 379.992 805.065 380.888C805.065 381.304 804.937 381.96 804.681 382.856C804.457 383.72 804.185 384.648 803.865 385.64C803.545 386.6 803.257 387.448 803.001 388.184L801.753 392.12L803.529 391.832L802.761 399.704C802.729 400.024 802.537 400.312 802.185 400.568C801.833 400.824 801.417 401.032 800.937 401.192C800.457 401.352 799.993 401.464 799.545 401.528C799.129 401.624 798.825 401.672 798.633 401.672ZM830.419 411.608C828.883 411.608 827.475 411.368 826.195 410.888C824.947 410.44 823.939 409.72 823.171 408.728C822.435 407.736 822.067 406.44 822.067 404.84C822.067 404.296 822.243 404.024 822.595 404.024C822.755 404.024 822.963 404.088 823.219 404.216C823.475 404.344 823.811 404.52 824.227 404.744C824.803 405.064 825.571 405.464 826.531 405.944C827.523 406.456 828.547 406.904 829.603 407.288C830.659 407.672 831.587 407.864 832.387 407.864C832.899 407.864 833.379 407.752 833.827 407.528C834.307 407.304 834.755 406.872 835.171 406.232C835.619 405.624 836.035 404.728 836.419 403.544C836.803 402.392 837.171 400.872 837.523 398.984L839.923 385.976L839.059 384.824L839.107 378.68C841.155 378.424 842.643 378.168 843.571 377.912C844.499 377.656 845.139 377.528 845.491 377.528C845.811 377.528 845.971 377.72 845.971 378.104C845.971 378.264 845.763 378.936 845.347 380.12C844.963 381.304 844.547 382.824 844.099 384.68C843.651 386.536 843.379 388.616 843.283 390.92L842.947 399.56C842.851 401.8 842.403 403.688 841.603 405.224C840.835 406.76 839.827 407.992 838.579 408.92C837.331 409.88 835.987 410.568 834.547 410.984C833.139 411.4 831.763 411.608 830.419 411.608ZM827.395 401.432C825.603 401.432 824.323 400.712 823.555 399.272C822.787 397.8 822.403 395.752 822.403 393.128C822.403 390.92 822.739 388.872 823.411 386.984C824.083 385.064 824.995 383.4 826.147 381.992C827.331 380.584 828.691 379.48 830.227 378.68C831.795 377.88 833.459 377.48 835.219 377.48C836.595 377.48 837.843 377.672 838.963 378.056C840.115 378.408 841.091 378.776 841.891 379.16L840.499 384.2C839.635 383.624 838.659 383.096 837.571 382.616C836.515 382.136 835.523 381.768 834.595 381.512C833.699 381.224 833.027 381.08 832.579 381.08C831.683 381.08 830.867 381.528 830.131 382.424C829.427 383.32 828.867 384.52 828.451 386.024C828.035 387.528 827.827 389.208 827.827 391.064C827.827 392.92 827.955 394.328 828.211 395.288C828.499 396.248 828.947 396.728 829.555 396.728C829.971 396.728 830.659 396.28 831.619 395.384C832.611 394.488 833.795 392.968 835.171 390.824C836.547 388.68 838.019 385.72 839.587 381.944L840.931 386.216C839.203 390.056 837.555 393.096 835.987 395.336C834.451 397.544 832.979 399.112 831.571 400.04C830.163 400.968 828.771 401.432 827.395 401.432ZM862.698 401.576C862.122 401.576 861.674 401.224 861.354 400.52C861.066 399.816 860.922 399.032 860.922 398.168C860.922 396.92 861.066 394.888 861.354 392.072L863.754 368.36H871.146C873.418 368.36 875.21 368.328 876.522 368.264C877.866 368.168 878.874 368.088 879.546 368.024C880.25 367.928 880.762 367.88 881.082 367.88C881.434 367.88 881.674 367.944 881.802 368.072C881.962 368.168 882.042 368.456 882.042 368.936C882.042 369.512 881.93 370.136 881.706 370.808C881.482 371.48 881.178 372.056 880.794 372.536C880.442 373.016 880.026 373.256 879.546 373.256C879.226 373.256 878.698 373.208 877.962 373.112C877.226 373.016 876.394 372.904 875.466 372.776L869.226 371.96L867.066 393.368C867.002 394.04 866.97 394.712 866.97 395.384C866.97 396.056 867.018 396.728 867.114 397.4L877.386 395.384C877.962 395.256 878.442 395.16 878.826 395.096C879.242 395 879.514 394.952 879.642 394.952C880.026 394.952 880.218 395.176 880.218 395.624C880.218 396.424 880.074 397.24 879.786 398.072C879.53 398.904 879.162 399.608 878.682 400.184C878.202 400.728 877.61 401 876.906 401H875.466C871.882 401 869.066 401.096 867.018 401.288C864.97 401.48 863.53 401.576 862.698 401.576ZM865.146 385.88L865.77 382.184H868.074C869.45 382.184 870.746 382.136 871.962 382.04C873.178 381.944 874.202 381.848 875.034 381.752C875.866 381.656 876.394 381.608 876.618 381.608C876.874 381.608 877.066 381.688 877.194 381.848C877.322 381.976 877.386 382.168 877.386 382.424C877.386 382.904 877.066 383.4 876.426 383.912C875.786 384.424 874.986 384.856 874.026 385.208C873.098 385.56 872.186 385.752 871.29 385.784L865.146 385.88ZM899.235 401.48C898.883 401.48 898.611 401.32 898.419 401C898.259 400.648 898.147 400.264 898.083 399.848C898.051 399.432 898.035 399.096 898.035 398.84C898.035 398.392 898.067 397.816 898.131 397.112C898.195 396.408 898.275 395.672 898.371 394.904C898.467 394.104 898.563 393.416 898.659 392.84L899.475 387.848C899.571 387.208 899.667 386.616 899.763 386.072C899.859 385.496 899.907 384.888 899.907 384.248C899.907 383.768 899.811 383.4 899.619 383.144C899.427 382.888 899.171 382.76 898.851 382.76C898.435 382.76 897.747 383.16 896.787 383.96C895.827 384.76 894.803 385.912 893.715 387.416C892.627 388.888 891.635 390.664 890.739 392.744C889.875 394.824 889.315 397.144 889.059 399.704L887.811 392.6C888.771 389.816 889.843 387.464 891.027 385.544C892.243 383.624 893.475 382.072 894.723 380.888C895.971 379.704 897.171 378.84 898.323 378.296C899.507 377.752 900.547 377.48 901.443 377.48C902.403 377.48 903.171 377.656 903.747 378.008C904.355 378.36 904.787 378.856 905.043 379.496C905.331 380.104 905.475 380.824 905.475 381.656C905.475 382.456 905.411 383.256 905.283 384.056C905.187 384.824 905.075 385.624 904.947 386.456L902.643 401.48H899.235ZM884.883 401.672C884.467 401.672 884.147 401.592 883.923 401.432C883.731 401.304 883.619 400.936 883.587 400.328C883.587 399.72 883.667 398.744 883.827 397.4L886.083 377.432H889.443C889.923 377.432 890.355 377.784 890.739 378.488C891.123 379.192 891.315 379.992 891.315 380.888C891.315 381.304 891.187 381.96 890.931 382.856C890.707 383.72 890.435 384.648 890.115 385.64C889.795 386.6 889.507 387.448 889.251 388.184L888.003 392.12L889.779 391.832L889.011 399.704C888.979 400.024 888.787 400.312 888.435 400.568C888.083 400.824 887.667 401.032 887.187 401.192C886.707 401.352 886.243 401.464 885.795 401.528C885.379 401.624 885.075 401.672 884.883 401.672ZM916.237 401.768C914.893 401.768 913.805 401.272 912.973 400.28C912.173 399.256 911.677 397.784 911.485 395.864L910.429 385.112C910.365 384.376 910.253 383.64 910.093 382.904C909.965 382.136 909.789 381.528 909.565 381.08C909.341 380.632 909.149 380.328 908.989 380.168C908.829 379.976 908.749 379.752 908.749 379.496C908.749 379.24 908.925 379 909.277 378.776C909.661 378.52 910.125 378.296 910.669 378.104C911.213 377.88 911.757 377.72 912.301 377.624C912.845 377.496 913.293 377.432 913.645 377.432C914.221 377.432 914.685 377.736 915.037 378.344C915.389 378.952 915.661 380.152 915.853 381.944L917.101 394.136C917.197 395.064 917.357 395.768 917.581 396.248C917.837 396.728 918.189 396.968 918.637 396.968C918.989 396.968 919.469 396.744 920.077 396.296C920.717 395.848 921.357 395.096 921.997 394.04C922.669 392.984 923.229 391.576 923.677 389.816C924.125 388.056 924.349 385.864 924.349 383.24C924.349 382.472 924.237 381.88 924.013 381.464C923.821 381.048 923.725 380.68 923.725 380.36C923.725 380.072 923.901 379.752 924.253 379.4C924.605 379.048 925.037 378.728 925.549 378.44C926.093 378.152 926.621 377.912 927.133 377.72C927.677 377.528 928.109 377.432 928.429 377.432C928.813 377.432 929.197 377.544 929.581 377.768C929.965 377.992 930.157 378.552 930.157 379.448C930.157 380.984 929.933 382.744 929.485 384.728C929.037 386.68 928.397 388.648 927.565 390.632C926.765 392.616 925.789 394.456 924.637 396.152C923.485 397.848 922.205 399.208 920.797 400.232C919.389 401.256 917.869 401.768 916.237 401.768ZM934.155 401.768C933.611 401.768 933.259 401.464 933.099 400.856C932.939 400.216 932.859 399.56 932.859 398.888C932.859 397.736 932.907 396.712 933.003 395.816C933.131 394.92 933.259 393.928 933.387 392.84L935.115 377.432H938.475C939.115 377.432 939.531 377.784 939.723 378.488C939.915 379.192 940.011 379.992 940.011 380.888C940.011 381.336 939.979 381.816 939.915 382.328C939.851 382.808 939.755 383.56 939.627 384.584L938.715 392.408C938.523 394.072 938.347 395.464 938.187 396.584C938.027 397.704 937.899 398.664 937.803 399.464C937.707 400.264 937.611 401.032 937.515 401.768H934.155ZM938.379 374.696C937.483 374.696 936.699 374.392 936.027 373.784C935.387 373.176 935.067 372.376 935.067 371.384C935.067 370.2 935.451 369.288 936.219 368.648C936.987 367.976 937.867 367.64 938.859 367.64C939.787 367.64 940.555 367.912 941.163 368.456C941.803 369 942.123 369.816 942.123 370.904C942.123 371.992 941.755 372.904 941.019 373.64C940.283 374.344 939.403 374.696 938.379 374.696ZM949.103 399.848L947.951 392.6C949.135 389.528 950.335 386.872 951.551 384.632C952.799 382.36 954.063 380.6 955.343 379.352C956.623 378.104 957.919 377.48 959.231 377.48C959.967 377.48 960.495 377.72 960.815 378.2C961.135 378.648 961.295 379.224 961.295 379.928C961.295 380.568 961.215 381.192 961.055 381.8C960.927 382.376 960.719 382.856 960.431 383.24C960.175 383.624 959.855 383.816 959.471 383.816C959.119 383.816 958.719 383.704 958.271 383.48C957.855 383.256 957.279 383.144 956.543 383.144C956.063 383.144 955.455 383.64 954.719 384.632C953.983 385.624 953.215 386.952 952.415 388.616C951.647 390.248 950.959 392.056 950.351 394.04C949.743 395.992 949.327 397.928 949.103 399.848ZM945.071 401.672C944.655 401.672 944.335 401.592 944.111 401.432C943.919 401.304 943.807 400.936 943.775 400.328C943.775 399.72 943.855 398.744 944.015 397.4L946.271 377.432H949.631C950.111 377.432 950.543 377.784 950.927 378.488C951.311 379.192 951.503 379.992 951.503 380.888C951.503 381.304 951.375 381.96 951.119 382.856C950.895 383.72 950.623 384.648 950.303 385.64C949.983 386.6 949.695 387.448 949.439 388.184L948.191 392.12L949.967 391.832L949.103 399.848C949.071 400.168 948.879 400.456 948.527 400.712C948.175 400.936 947.759 401.112 947.279 401.24C946.831 401.4 946.399 401.512 945.983 401.576C945.567 401.64 945.263 401.672 945.071 401.672ZM969.04 401.72C966.288 401.72 964.144 400.92 962.608 399.32C961.104 397.688 960.352 395.304 960.352 392.168C960.352 390.088 960.688 388.168 961.36 386.408C962.064 384.616 963.008 383.048 964.192 381.704C965.376 380.36 966.736 379.32 968.272 378.584C969.84 377.816 971.488 377.432 973.216 377.432C975.968 377.432 978.064 378.248 979.504 379.88C980.976 381.512 981.712 383.976 981.712 387.272C981.712 389.256 981.376 391.128 980.704 392.888C980.064 394.616 979.168 396.152 978.016 397.496C976.864 398.808 975.52 399.848 973.984 400.616C972.448 401.352 970.8 401.72 969.04 401.72ZM970.192 398.12C971.408 398.12 972.448 397.672 973.312 396.776C974.208 395.88 974.88 394.648 975.328 393.08C975.808 391.512 976.048 389.752 976.048 387.8C976.048 385.72 975.728 384.072 975.088 382.856C974.48 381.64 973.456 381.032 972.016 381.032C970.832 381.032 969.776 381.48 968.848 382.376C967.952 383.272 967.248 384.504 966.736 386.072C966.256 387.608 966.016 389.368 966.016 391.352C966.016 393.56 966.368 395.24 967.072 396.392C967.776 397.544 968.816 398.12 970.192 398.12ZM1000.16 401.48C999.805 401.48 999.533 401.32 999.341 401C999.181 400.648 999.069 400.264 999.005 399.848C998.973 399.432 998.957 399.096 998.957 398.84C998.957 398.392 998.989 397.816 999.053 397.112C999.117 396.408 999.197 395.672 999.293 394.904C999.389 394.104 999.485 393.416 999.581 392.84L1000.4 387.848C1000.49 387.208 1000.59 386.616 1000.69 386.072C1000.78 385.496 1000.83 384.888 1000.83 384.248C1000.83 383.768 1000.73 383.4 1000.54 383.144C1000.35 382.888 1000.09 382.76 999.773 382.76C999.357 382.76 998.669 383.16 997.709 383.96C996.749 384.76 995.725 385.912 994.637 387.416C993.549 388.888 992.557 390.664 991.661 392.744C990.797 394.824 990.237 397.144 989.981 399.704L988.733 392.6C989.693 389.816 990.765 387.464 991.949 385.544C993.165 383.624 994.397 382.072 995.645 380.888C996.893 379.704 998.093 378.84 999.245 378.296C1000.43 377.752 1001.47 377.48 1002.37 377.48C1003.33 377.48 1004.09 377.656 1004.67 378.008C1005.28 378.36 1005.71 378.856 1005.97 379.496C1006.25 380.104 1006.4 380.824 1006.4 381.656C1006.4 382.456 1006.33 383.256 1006.21 384.056C1006.11 384.824 1006 385.624 1005.87 386.456L1003.57 401.48H1000.16ZM985.805 401.672C985.389 401.672 985.069 401.592 984.845 401.432C984.653 401.304 984.541 400.936 984.509 400.328C984.509 399.72 984.589 398.744 984.749 397.4L987.005 377.432H990.365C990.845 377.432 991.277 377.784 991.661 378.488C992.045 379.192 992.237 379.992 992.237 380.888C992.237 381.304 992.109 381.96 991.853 382.856C991.629 383.72 991.357 384.648 991.037 385.64C990.717 386.6 990.429 387.448 990.173 388.184L988.925 392.12L990.701 391.832L989.933 399.704C989.901 400.024 989.709 400.312 989.357 400.568C989.005 400.824 988.589 401.032 988.109 401.192C987.629 401.352 987.165 401.464 986.717 401.528C986.301 401.624 985.997 401.672 985.805 401.672ZM1039.91 401.48C1039.56 401.48 1039.3 401.32 1039.14 401C1038.98 400.648 1038.89 400.264 1038.86 399.848C1038.82 399.432 1038.81 399.096 1038.81 398.84C1038.81 398.392 1038.84 397.816 1038.9 397.112C1038.97 396.408 1039.05 395.672 1039.14 394.904C1039.24 394.104 1039.34 393.416 1039.43 392.84L1040.25 387.848C1040.34 387.208 1040.44 386.616 1040.54 386.072C1040.63 385.496 1040.68 384.888 1040.68 384.248C1040.68 383.768 1040.58 383.4 1040.39 383.144C1040.2 382.888 1039.94 382.76 1039.62 382.76C1039.21 382.76 1038.52 383.16 1037.56 383.96C1036.6 384.76 1035.58 385.896 1034.49 387.368C1033.4 388.84 1032.41 390.616 1031.51 392.696C1030.62 394.776 1030.04 397.096 1029.78 399.656L1028.73 392.6C1030.04 388.888 1031.5 385.928 1033.1 383.72C1034.73 381.512 1036.34 379.928 1037.94 378.968C1039.54 377.976 1040.94 377.48 1042.12 377.48C1043.11 377.48 1043.9 377.656 1044.47 378.008C1045.08 378.36 1045.53 378.872 1045.82 379.544C1046.1 380.216 1046.25 381.016 1046.25 381.944C1046.25 382.616 1046.18 383.336 1046.06 384.104C1045.96 384.84 1045.85 385.624 1045.72 386.456L1043.42 401.48H1039.91ZM1011.4 401.672C1010.98 401.672 1010.66 401.592 1010.44 401.432C1010.25 401.304 1010.14 400.936 1010.1 400.328C1010.1 399.72 1010.18 398.744 1010.34 397.4L1012.6 377.432H1015.96C1016.6 377.432 1017.06 377.784 1017.35 378.488C1017.67 379.192 1017.83 379.992 1017.83 380.888C1017.83 381.304 1017.7 381.96 1017.45 382.856C1017.22 383.72 1016.95 384.648 1016.63 385.64C1016.31 386.6 1016.02 387.448 1015.77 388.184L1014.52 392.12L1016.3 391.832L1015.48 399.656C1015.45 399.976 1015.26 400.264 1014.9 400.52C1014.58 400.776 1014.2 400.984 1013.75 401.144C1013.3 401.336 1012.86 401.464 1012.41 401.528C1011.99 401.624 1011.66 401.672 1011.4 401.672ZM1025.56 401.672C1024.98 401.672 1024.63 401.56 1024.5 401.336C1024.38 401.112 1024.31 400.728 1024.31 400.184C1024.31 399.704 1024.36 398.92 1024.46 397.832C1024.58 396.744 1024.84 395.08 1025.22 392.84L1026.09 387.896C1026.22 387.256 1026.31 386.632 1026.38 386.024C1026.47 385.384 1026.52 384.744 1026.52 384.104C1026.52 383.656 1026.44 383.32 1026.28 383.096C1026.12 382.872 1025.86 382.76 1025.51 382.76C1025.06 382.76 1024.34 383.16 1023.35 383.96C1022.36 384.76 1021.3 385.896 1020.18 387.368C1019.1 388.84 1018.1 390.616 1017.21 392.696C1016.31 394.776 1015.74 397.096 1015.48 399.656L1014.33 392.6C1015.29 389.816 1016.38 387.464 1017.59 385.544C1018.81 383.624 1020.04 382.072 1021.29 380.888C1022.54 379.704 1023.72 378.84 1024.84 378.296C1025.99 377.752 1026.98 377.48 1027.82 377.48C1028.87 377.48 1029.69 377.672 1030.26 378.056C1030.87 378.44 1031.29 378.952 1031.51 379.592C1031.77 380.2 1031.9 380.84 1031.9 381.512C1031.9 382.312 1031.77 383.144 1031.51 384.008C1031.26 384.872 1030.9 385.928 1030.46 387.176C1030.04 388.392 1029.58 389.96 1029.06 391.88L1030.65 391.304L1029.78 399.656C1029.75 399.976 1029.58 400.264 1029.26 400.52C1028.94 400.776 1028.54 400.984 1028.06 401.144C1027.61 401.304 1027.14 401.432 1026.66 401.528C1026.22 401.624 1025.85 401.672 1025.56 401.672ZM1056.91 401.768C1054.44 401.768 1052.54 401 1051.19 399.464C1049.85 397.896 1049.18 395.752 1049.18 393.032C1049.18 390.76 1049.5 388.68 1050.14 386.792C1050.78 384.904 1051.67 383.256 1052.83 381.848C1053.98 380.44 1055.32 379.352 1056.86 378.584C1058.43 377.816 1060.12 377.432 1061.95 377.432C1064.12 377.432 1065.79 377.896 1066.94 378.824C1068.09 379.752 1068.67 381.08 1068.67 382.808C1068.67 384.568 1068.07 386.104 1066.89 387.416C1065.74 388.728 1064.06 389.848 1061.85 390.776C1059.67 391.704 1057.07 392.488 1054.03 393.128L1053.4 390.248C1055.16 390.024 1056.78 389.64 1058.25 389.096C1059.72 388.552 1060.91 387.832 1061.8 386.936C1062.7 386.008 1063.15 384.92 1063.15 383.672C1063.15 382.808 1062.97 382.152 1062.62 381.704C1062.3 381.256 1061.71 381.032 1060.84 381.032C1059.53 381.032 1058.41 381.512 1057.48 382.472C1056.59 383.432 1055.9 384.68 1055.42 386.216C1054.97 387.752 1054.75 389.384 1054.75 391.112C1054.75 393.448 1055.1 395.016 1055.8 395.816C1056.54 396.584 1057.61 396.968 1059.02 396.968C1060.49 396.968 1061.77 396.744 1062.86 396.296C1063.98 395.816 1064.94 395.32 1065.74 394.808C1065.99 394.648 1066.22 394.52 1066.41 394.424C1066.6 394.328 1066.76 394.28 1066.89 394.28C1067.05 394.28 1067.18 394.344 1067.27 394.472C1067.37 394.6 1067.42 394.744 1067.42 394.904C1067.42 395.48 1067.16 396.152 1066.65 396.92C1066.14 397.688 1065.4 398.44 1064.44 399.176C1063.51 399.912 1062.41 400.52 1061.13 401C1059.85 401.512 1058.44 401.768 1056.91 401.768ZM1086.83 401.48C1086.48 401.48 1086.21 401.32 1086.01 401C1085.85 400.648 1085.74 400.264 1085.68 399.848C1085.65 399.432 1085.63 399.096 1085.63 398.84C1085.63 398.392 1085.66 397.816 1085.73 397.112C1085.79 396.408 1085.87 395.672 1085.97 394.904C1086.06 394.104 1086.16 393.416 1086.25 392.84L1087.07 387.848C1087.17 387.208 1087.26 386.616 1087.36 386.072C1087.45 385.496 1087.5 384.888 1087.5 384.248C1087.5 383.768 1087.41 383.4 1087.21 383.144C1087.02 382.888 1086.77 382.76 1086.45 382.76C1086.03 382.76 1085.34 383.16 1084.38 383.96C1083.42 384.76 1082.4 385.912 1081.31 387.416C1080.22 388.888 1079.23 390.664 1078.33 392.744C1077.47 394.824 1076.91 397.144 1076.65 399.704L1075.41 392.6C1076.37 389.816 1077.44 387.464 1078.62 385.544C1079.84 383.624 1081.07 382.072 1082.32 380.888C1083.57 379.704 1084.77 378.84 1085.92 378.296C1087.1 377.752 1088.14 377.48 1089.04 377.48C1090 377.48 1090.77 377.656 1091.34 378.008C1091.95 378.36 1092.38 378.856 1092.64 379.496C1092.93 380.104 1093.07 380.824 1093.07 381.656C1093.07 382.456 1093.01 383.256 1092.88 384.056C1092.78 384.824 1092.67 385.624 1092.54 386.456L1090.24 401.48H1086.83ZM1072.48 401.672C1072.06 401.672 1071.74 401.592 1071.52 401.432C1071.33 401.304 1071.21 400.936 1071.18 400.328C1071.18 399.72 1071.26 398.744 1071.42 397.4L1073.68 377.432H1077.04C1077.52 377.432 1077.95 377.784 1078.33 378.488C1078.72 379.192 1078.91 379.992 1078.91 380.888C1078.91 381.304 1078.78 381.96 1078.53 382.856C1078.3 383.72 1078.03 384.648 1077.71 385.64C1077.39 386.6 1077.1 387.448 1076.85 388.184L1075.6 392.12L1077.37 391.832L1076.61 399.704C1076.57 400.024 1076.38 400.312 1076.03 400.568C1075.68 400.824 1075.26 401.032 1074.78 401.192C1074.3 401.352 1073.84 401.464 1073.39 401.528C1072.97 401.624 1072.67 401.672 1072.48 401.672ZM1101.38 401.768C1099.85 401.768 1098.76 401.32 1098.12 400.424C1097.51 399.528 1097.32 398.12 1097.54 396.2L1099.41 381.56H1097.88C1097.4 381.56 1097.16 381.304 1097.16 380.792C1097.16 380.472 1097.37 380.008 1097.78 379.4C1098.23 378.792 1098.79 378.12 1099.46 377.384C1100.13 376.648 1100.82 375.944 1101.53 375.272C1102.26 374.6 1102.93 374.056 1103.54 373.64C1104.15 373.192 1104.61 372.968 1104.93 372.968C1105.29 372.968 1105.53 373.112 1105.65 373.4C1105.78 373.656 1105.81 373.992 1105.75 374.408L1105.32 378.2H1110.69C1111.17 378.2 1111.45 378.28 1111.51 378.44C1111.61 378.6 1111.59 378.856 1111.46 379.208C1111.08 380.296 1110.71 380.968 1110.36 381.224C1110.04 381.448 1109.43 381.56 1108.53 381.56H1104.69L1103.49 391.832C1103.43 392.44 1103.37 393.016 1103.3 393.56C1103.27 394.104 1103.25 394.6 1103.25 395.048C1103.25 395.784 1103.43 396.312 1103.78 396.632C1104.13 396.92 1104.71 397.064 1105.51 397.064C1106.28 397.064 1106.93 396.904 1107.48 396.584C1108.05 396.264 1108.45 396.104 1108.68 396.104C1108.93 396.104 1109.06 396.264 1109.06 396.584C1109.06 396.904 1108.89 397.352 1108.53 397.928C1108.21 398.504 1107.72 399.096 1107.05 399.704C1106.41 400.28 1105.61 400.76 1104.65 401.144C1103.69 401.56 1102.6 401.768 1101.38 401.768Z" fill="white"/>
<path d="M624 173.5C624 262.142 552.142 334 463.5 334C374.858 334 303 262.142 303 173.5C303 84.8583 374.858 13 463.5 13C552.142 13 624 84.8583 624 173.5ZM338.952 173.5C338.952 242.286 394.714 298.048 463.5 298.048C532.286 298.048 588.048 242.286 588.048 173.5C588.048 104.714 532.286 48.952 463.5 48.952C394.714 48.952 338.952 104.714 338.952 173.5Z" fill="#34A853"/>
<path d="M832 173.5C832 152.423 827.849 131.552 819.783 112.079C811.717 92.6066 799.894 74.9132 784.991 60.0094C770.087 45.1056 752.393 33.2832 732.921 25.2173C713.448 17.1515 692.577 13 671.5 13L671.5 173.5H832Z" fill="#4285F4"/>
<path d="M1153.99 60.0093C1127.73 33.7527 1093.19 17.4125 1056.23 13.7728C1019.28 10.1332 982.206 19.4194 951.331 40.0491C920.456 60.6789 897.69 91.3757 886.911 126.909C876.132 162.443 878.007 200.615 892.217 234.921C906.427 269.227 932.093 297.544 964.841 315.048C997.589 332.553 1035.39 338.16 1071.81 330.916C1108.23 323.672 1141.01 304.024 1164.57 275.32C1188.12 246.616 1201 210.633 1201 173.5H1165.05C1165.05 202.315 1155.06 230.238 1136.78 252.512C1118.5 274.787 1093.06 290.033 1064.8 295.655C1036.54 301.276 1007.2 296.925 981.788 283.342C956.376 269.758 936.46 247.784 925.433 221.162C914.406 194.541 912.95 164.92 921.315 137.346C929.679 109.772 947.346 85.9508 971.305 69.9421C995.263 53.9335 1024.03 46.7274 1052.71 49.5517C1081.38 52.3761 1108.19 65.0561 1128.57 85.4312L1153.99 60.0093Z" fill="#FBBC05"/>
<line x1="672.5" y1="-2.18557e-08" x2="672.5" y2="348" stroke="#BFC5CE"/>
<path d="M1126 63L922 267" stroke="#FBBC05" stroke-width="35"/>
<path d="M1038 71.5C1038 76.1944 1034.19 80 1029.5 80C1024.81 80 1021 76.1944 1021 71.5C1021 66.8056 1024.81 63 1029.5 63C1034.19 63 1038 66.8056 1038 71.5Z" fill="#EA4335"/>
</svg>
